<?xml version="1.0" encoding="utf-8"?>
<!-- Generator: Adobe Illustrator 25.3.1, SVG Export Plug-In . SVG Version: 6.00 Build 0)  -->
<!DOCTYPE svg PUBLIC "-//W3C//DTD SVG 1.1//EN" "http://www.w3.org/Graphics/SVG/1.1/DTD/svg11.dtd" [
	<!ENTITY ns_extend "http://ns.adobe.com/Extensibility/1.0/">
	<!ENTITY ns_ai "http://ns.adobe.com/AdobeIllustrator/10.0/">
	<!ENTITY ns_graphs "http://ns.adobe.com/Graphs/1.0/">
	<!ENTITY ns_vars "http://ns.adobe.com/Variables/1.0/">
	<!ENTITY ns_imrep "http://ns.adobe.com/ImageReplacement/1.0/">
	<!ENTITY ns_sfw "http://ns.adobe.com/SaveForWeb/1.0/">
	<!ENTITY ns_custom "http://ns.adobe.com/GenericCustomNamespace/1.0/">
	<!ENTITY ns_adobe_xpath "http://ns.adobe.com/XPath/1.0/">
]>
<svg version="1.1" id="Слой_1" xmlns:x="&ns_extend;" xmlns:i="&ns_ai;" xmlns:graph="&ns_graphs;"
	 xmlns="http://www.w3.org/2000/svg" xmlns:xlink="http://www.w3.org/1999/xlink" x="0px" y="0px" viewBox="0 0 1366 768"
	 style="enable-background:new 0 0 1366 768;" xml:space="preserve">
<style type="text/css">
	.st0{fill:#FF9200;}
</style>
<metadata>
	<sfw  xmlns="&ns_sfw;">
		<slices></slices>
		<sliceSourceBounds  bottomLeftOrigin="true" height="768" width="1366" x="-2.1" y="-1.6"></sliceSourceBounds>
	</sfw>
</metadata>
<g id="Слой_2_1_">
</g>
<g id="Слой_4">
</g>
<g id="Слой_3">
	<g>
		<path class="st0" d="M1034.9,648.9c-0.2-0.2-0.2-0.3-0.2-0.3c-0.2-0.4-0.3-1.1-0.5-1.9l-0.4-3.5c-0.1-2.8-0.2-6.2-0.2-9.7v-1.7
			c0-6.4,0.3-12.8,1-14.7c0.2-0.3,0.7-0.3,1.2,0.1c0.4,0.3,0.8,0.9,0.6,1.2c-0.6,1.9-0.9,9-0.9,16.1c0,3.5,0.1,7,0.3,9.7
			c0.9-2.2,4.4-6.7,6.8-6.3c0.5,0.1,1.1,0.3,1.6,0.8l0.3,0.2c1.1,1,1.5,2.3,1.5,3.6c0,0.8-0.2,1.6-0.4,2.2l-0.4,0.9
			c2.6-0.4,7-2.9,8.9-4.5c0.5-0.5,0.2,1.1-0.3,1.8c-2,2.7-5.8,4.8-10.6,4.8h-0.4l-0.2,0.1c-0.9,0.2-4,0-5.2-0.8l-0.1-0.1l-0.2,0.5
			l-0.3,1.5c0.1,0.4-0.1,0.6-0.1,0.8c-0.1,0-0.1,0.1-0.2,0.2c-0.1,0-0.3,0.2-0.9-0.1C1035.2,649.3,1034.9,648.9,1034.9,648.9z
			 M1039.3,645.9c2.5,0,4.6-2.2,4.6-4.8c0-0.8-0.2-1.3-0.5-1.6l-0.2-0.2h-0.1c-1.8,0.6-3.2,2.8-5.6,6.2l0.1,0.1
			C1038.2,645.8,1038.8,645.9,1039.3,645.9z"/>
		<path class="st0" d="M1064.3,643.8c-1.6,2.1-4,4.3-5.8,4.3s-3.5-1.3-4.2-3.1c-0.3-0.8-0.5-1.7-0.5-2.6c0-0.8,0.1-1.5,0.4-2.2
			c0.2-0.6,0.5-1.1,1.1-1.3c0.3-0.1,0.9,0.1,1.3,0.5s0.4,0.9,0.2,1c-0.2,0.1-0.5,0.4-0.8,0.9c-0.1,0.5-0.3,1.2-0.3,2
			c0.1,0.9,0.2,2.4,1.1,3c2.3,1.3,7-5,7.1-6.8c0-0.1,0.1-0.2,0.2-0.2c-0.1-0.1-0.1-0.1,0-0.1c0.1-0.1,0.3-0.2,0.5-0.2
			c0.5,0,1.5,0.6,1.5,1.2c0.1,0.1,0.3,2.3,0.4,5.5v0.2l0.1-0.1c1.5-0.9,8.3-4.2,9.6-3.1c0.5,0.4,0.4,0.5,0,0.6
			c-2.2,0.6-5.7,2.6-8,3.9l-1.6,1.1l-0.1,0.6l-0.2,5c-0.4,6.8-1.9,14.2-6.6,15.2c-1.4,0.3-3.5-0.6-5-2.1s-2.3-3.5-2.1-5.4
			c0.8-4.2,5.1-9.6,10.6-13.6l1.3-1L1064.3,643.8z M1064.5,649.8l-1.2,1.1c-4.4,4-8,8.4-8.6,12c-0.3,1.7,0.5,3,1.1,3.8
			c0.8,0.8,1.8,1.2,2.5,1C1062.4,666.9,1064.6,657.4,1064.5,649.8z"/>
		<path class="st0" d="M1098.2,642.3c0.2,0.7,0.3,1.5,0.1,2.3c-0.5,2.7-2.7,4-5.2,3.9c-2-0.1-3.3-1.8-3.6-3.3
			c-0.4-2.3,1-4.9,2.3-5.3c0.1,0,0.2-0.1,0.3-0.1c0.2-0.8,0.6-1.4,1.7-1.3c1.5,0.2,2.6,0.9,3.5,1.9c1.4,0.2,2.8,0.2,4,0.2
			c2.5,0,4.6-0.2,5.1-0.2c1.6-0.1,1.2,0.6-0.1,1.1C1105,642,1101.5,642.5,1098.2,642.3z M1091.4,645.1c0.3,1.6,0.9,2.2,1.9,2.1
			c2.4-0.1,3.6-3.2,2.7-5.1c-1.2-0.2-2.3-0.5-3-1l-0.1,0.1C1092.2,641.7,1091.1,643.6,1091.4,645.1z"/>
		<path class="st0" d="M1107,649c-1-1.6-1.4-5.5-1.4-9.9c0-9,1.5-20.6,2.2-22.8c0.1-0.3,0.4-0.4,0.9-0.2c0.5,0.3,1,0.7,1,1
			c-0.3,1-1.9,14-1.9,23.3c0,4.8,0.4,8.6,1.6,9.5c2.8,1.7,9.3-7.1,10.2-8.1c0.5-0.8,0.6,0.6,0.4,1.2c-1,2.7-5.3,8.5-8.7,8.5
			C1109.6,651.4,1108.1,650.5,1107,649z"/>
		<path class="st0" d="M1127,642.3c0.2,0.7,0.3,1.5,0.1,2.3c-0.5,2.7-2.7,4-5.2,3.9c-2-0.1-3.3-1.8-3.6-3.3c-0.4-2.3,1-4.9,2.3-5.3
			c0.1,0,0.2-0.1,0.3-0.1c0.2-0.8,0.6-1.4,1.7-1.3c1.5,0.2,2.6,0.9,3.5,1.9c1.4,0.2,2.8,0.2,4,0.2c2.5,0,4.6-0.2,5.1-0.2
			c1.6-0.1,1.2,0.6-0.1,1.1C1133.8,642,1130.3,642.5,1127,642.3z M1120.2,645.1c0.3,1.6,0.9,2.2,1.9,2.1c2.4-0.1,3.6-3.2,2.7-5.1
			c-1.2-0.2-2.3-0.5-3-1l-0.1,0.1C1121,641.7,1120,643.6,1120.2,645.1z"/>
		<path class="st0" d="M1147,648c-2.7,0-6-1-8-3.5c-1.2,1.5-1.8,4.2-1.9,6.7c0,0.8-1.5,0.1-1.8-0.8c-0.1-1.9-0.2-3.9-0.2-5.9
			c0-9.6,0.5-19.9,0.6-26.6c0-0.3,0.5-0.5,1-0.3c0.6,0.2,1.1,0.6,1.1,0.9c-0.2,7-0.3,14.7-0.8,24.9c1.7-2.9,4.1-6.4,7.2-6.7
			c1.2-0.1,1.9,0.8,2.2,1.4c0.8,2-3,5.1-5.6,5.8c0.9,1.1,3.7,2.3,5.9,2.1c3.9-0.3,8.5-3.4,10.7-5.2c0.7-0.6,0.1,1.7-0.9,2.6
			C1155.6,644.4,1152.2,648,1147,648z M1139.9,642.9c1.3-0.1,5-3.2,4.6-4.6C1143.8,638,1142,639.5,1139.9,642.9z"/>
		<path class="st0" d="M1157.3,638.9c0-0.4,0.5-0.4,1.1-0.1c0.5,0.3,0.8,0.8,0.8,1.1l-0.1,2.1c1.3-1.7,5.3-4.9,8.3-4.4
			c1.2,0.2,2,1.4,1.6,1.8c-0.8,0.9-1.5,0.5-1.5,0.1l0.1-0.4c-2.7-0.1-7.2,3.2-8.5,7c-0.2,0.4-0.2,0.8-0.4,2.3c0.1,0.7-1.7,0-1.9-0.8
			C1156.7,647.1,1156.6,645.7,1157.3,638.9z"/>
		<path class="st0" d="M1170.8,645c-0.2-0.5-0.3-1-0.3-1.6c0-2.4,1.6-4.8,4.3-4.9c1.7,0,3.2,1.6,2.6,3.2c-0.7,1.7-3,3-4.9,3
			c0.2,1,2.1,2.8,3.9,2.8c5.1,0,8.9-3.8,11.1-6.2c1.2-1.3,1-0.1,0.3,1.5c-1.5,3.1-5,5.8-8.7,6C1176,648.9,1171.9,648.3,1170.8,645z
			 M1172.5,643.4c2.3-1,3.8-2.5,3.2-3.1C1174.5,639.2,1172.4,642.1,1172.5,643.4z"/>
		<path class="st0" d="M1185.7,644.2c0-1.2,0.6-2.4,1.9-3.3c1.5-1,3.3-1.5,5.2-1.5c1.5,0,3,0.3,4.4,0.9h0.1l0.9-1.2
			c0.3-0.6,2.2,0.6,1.8,1.2c-0.3,0.8-0.8,1.8-0.9,2.8c-0.1,0.9,0.2,2,1.2,2.3c2.8,0.5,7.4-2.2,9.3-4.4c0.9-0.9,1.7,0.4-1.2,3.4
			c-1.3,1.3-5.1,3.1-7.3,2.5c-1.8-0.4-3.1-1.5-3.8-3.4c-1.5,1.3-5.1,4.1-7.9,4.1c-0.7,0-1.3-0.2-1.9-0.5
			C1186.3,646.3,1185.7,645.3,1185.7,644.2z M1196.3,641.4c-0.5-0.2-1.3-0.3-2.1-0.3c-2.7,0-6.3,1-6.9,3.5c-0.2,0.6,0.2,1.2,1,1.3
			C1190.9,645.6,1194.4,643.4,1196.3,641.4z"/>
		<path class="st0" d="M1209.7,648c-0.1,0-0.2,0-0.3-0.1c-0.1,0-0.4-0.2-0.7-0.6c-0.2-0.5-0.1-0.8,0-0.9c0-0.1,0.1-0.1,0.2-0.1
			l0.1-0.1c2.2-1.3,5.2-2.9,7.5-4.8l0.3-0.3l-2.4,0.3c-1.7,0.2-3.4,0.4-5,0.4c-0.4,0-0.8-0.3-1-0.8s-0.1-0.9,0.3-0.9
			c3.2-0.1,6.6-0.6,10.1-1c0.8-0.1,1.6,0.9,1.2,1.4c-1.7,2.1-4.4,3.9-6.9,5.3l-0.1,0.1h0.5c0.9-0.1,1.8-0.1,2.8-0.1
			c1.5,0,2.9,0.1,4.2,0.3c0.5,0.1,0.9,0.5,1,1c0.1,0.4-0.2,0.7-0.7,0.6c-1.1-0.3-2.7-0.4-4.1-0.4c-0.9,0-1.7,0.1-2.5,0.1l-3,0.2
			c-0.4,0.1-0.6,0.1-1,0.1h-0.5V648z"/>
	</g>
</g>
<g>
	<g>
		<path class="st0" d="M345.3,353.6c3.7,0,5.5-1.7,5.5-5.1V163.3c0-3.4-1.8-5.1-5.5-5.1c-3.9,0-5.9,1.7-5.9,5.1v179.8h-92.2
			c-1.8,0-3.3,0.5-4.3,1.6s-1.6,2.3-1.6,3.8c0,3.4,2,5.1,5.9,5.1H345.3z M319.6,192.1c0-3.4-1.8-5.1-5.5-5.1c-1.6,0-3,0.5-4.2,1.4
			c-1.2,1-1.7,2.2-1.7,3.7v130.8c0,1.5,0.6,2.7,1.7,3.7c1.2,1,2.5,1.4,4.2,1.4c3.7,0,5.5-1.7,5.5-5.1V192.1z M319.3,376
			c0-1.5-0.6-2.7-1.7-3.7c-1.2-1-2.5-1.4-4.2-1.4h-85.3c-3.7,0-5.5,1.7-5.5,5.1c0,1.5,0.5,2.8,1.6,3.8c1,1.1,2.4,1.6,4,1.6h85.3
			c1.6,0,3-0.5,4.2-1.6C318.7,378.8,319.3,377.5,319.3,376z M227.8,354.3c2.5-0.6,4.3-1.7,5.2-3.2s1.2-3,0.7-4.5v-0.3
			c-1.2-2.6-3.1-3.8-5.9-3.8c-0.5,0-0.8,0.1-1,0.2s-0.6,0.2-1,0.2c-1.8,0.4-3.1,1.4-3.8,2.9s-0.7,3,0,4.5v0.3
			C222.6,353,224.5,354.3,227.8,354.3z"/>
		<path class="st0" d="M110,353.6c-3.7,0-5.5-1.7-5.5-5.1V163.3c0-3.4,1.8-5.1,5.5-5.1c3.9,0,5.9,1.7,5.9,5.1v179.8h92.2
			c1.8,0,3.3,0.5,4.3,1.6s1.6,2.3,1.6,3.8c0,3.4-2,5.1-5.9,5.1H110z M135.6,192.1c0-3.4,1.8-5.1,5.5-5.1c1.6,0,3,0.5,4.2,1.4
			c1.2,1,1.7,2.2,1.7,3.7v130.8c0,1.5-0.6,2.7-1.7,3.7c-1.2,1-2.5,1.4-4.2,1.4c-3.7,0-5.5-1.7-5.5-5.1V192.1z M136,376
			c0-1.5,0.6-2.7,1.7-3.7c1.2-1,2.5-1.4,4.2-1.4h85.3c3.7,0,5.5,1.7,5.5,5.1c0,1.5-0.5,2.8-1.6,3.8c-1,1.1-2.4,1.6-4,1.6h-85.3
			c-1.6,0-3-0.5-4.2-1.6C136.6,378.8,136,377.5,136,376z M227.5,354.3c-2.5-0.6-4.3-1.7-5.2-3.2s-1.2-3-0.7-4.5v-0.3
			c1.2-2.6,3.1-3.8,5.9-3.8c0.5,0,0.8,0.1,1,0.2s0.6,0.2,1,0.2c1.8,0.4,3.1,1.4,3.8,2.9s0.7,3,0,4.5v0.3
			C232.7,353,230.7,354.3,227.5,354.3z"/>
		<path class="st0" d="M219.5,321.2V220.1h26c1.6,0,2.9-0.5,4-1.6c1-1.1,1.6-2.3,1.6-3.8v-81.6c0-3.6-1.9-5.4-5.5-5.4
			c-1.6,0-3,0.5-4.2,1.4c-1.2,1-1.7,2.3-1.7,4v76.4H214c-1.6,0-3,0.5-4.2,1.4c-1.2,1-1.7,2.2-1.7,3.7V316H145
			c-3.9,0-5.9,1.7-5.9,5.1c0,3.6,2,5.4,5.9,5.4h69C217.7,326.6,219.5,324.8,219.5,321.2z M187.3,298.5c1.6,0,2.9-0.5,4-1.6
			c1-1.1,1.6-2.3,1.6-3.8c0-3.4-1.9-5.1-5.5-5.1H145c-3.9,0-5.9,1.7-5.9,5.1c0,1.5,0.5,2.8,1.6,3.8c1,1.1,2.5,1.6,4.3,1.6H187.3z
			 M219.9,108.5c0-3.4-1.9-5.1-5.5-5.1c-1.6,0-3,0.5-4.2,1.4c-1.2,1-1.7,2.2-1.7,3.7v77.1c0,1.7,0.6,3,1.7,4c1.2,1,2.5,1.4,4.2,1.4
			c3.7,0,5.5-1.8,5.5-5.4V108.5z M245.5,326.6h45.1c3.7,0,5.5-1.8,5.5-5.4c0-3.4-1.9-5.1-5.5-5.1h-45.1c-1.6,0-3,0.5-4.2,1.4
			c-1.2,1-1.7,2.2-1.7,3.7c0,1.7,0.6,3,1.7,4C242.5,326.1,243.9,326.6,245.5,326.6z M239.6,243.1V293c0,1.5,0.6,2.8,1.7,3.8
			c1.2,1.1,2.5,1.6,4.2,1.6h64.1c1.8,0,3.3-0.5,4.3-1.6s1.6-2.3,1.6-3.8c0-3.4-2-5.1-5.9-5.1H251v-44.8c0-3.4-1.9-5.1-5.5-5.1
			c-1.6,0-3,0.5-4.2,1.4C240.2,240.4,239.6,241.6,239.6,243.1z M311.7,326.9c1.8-0.4,3.1-1.4,3.8-2.9c0.7-1.5,0.8-3,0.3-4.5h-0.3
			c-0.7-2.8-2.7-4.2-5.9-4.2c-2.5,0.8-4.3,2-5.2,3.4c-0.9,1.4-1.2,2.8-0.7,4.3l0.3,0.3c0.7,2.6,2.7,3.8,5.9,3.8
			C310.9,327.3,311.5,327.2,311.7,326.9z"/>
		<path class="st0" d="M345.3,417.6c3.7,0,5.5,1.7,5.5,5.1V608c0,3.4-1.8,5.1-5.5,5.1c-3.9,0-5.9-1.7-5.9-5.1V428.2h-92.2
			c-1.8,0-3.3-0.5-4.3-1.6s-1.6-2.3-1.6-3.8c0-3.4,2-5.1,5.9-5.1h98.1V417.6z M319.6,579.2c0,3.4-1.8,5.1-5.5,5.1
			c-1.6,0-3-0.5-4.2-1.4c-1.2-1-1.7-2.2-1.7-3.7V448.3c0-1.5,0.6-2.7,1.7-3.7c1.2-1,2.5-1.4,4.2-1.4c3.7,0,5.5,1.7,5.5,5.1V579.2z
			 M319.3,395.3c0,1.5-0.6,2.7-1.7,3.7c-1.2,1-2.5,1.4-4.2,1.4h-85.3c-3.7,0-5.5-1.7-5.5-5.1c0-1.5,0.5-2.8,1.6-3.8
			c1-1.1,2.4-1.6,4-1.6h85.3c1.6,0,3,0.5,4.2,1.6C318.7,392.5,319.3,393.8,319.3,395.3z M227.8,417c2.5,0.6,4.3,1.7,5.2,3.2
			s1.2,3,0.7,4.5v0.3c-1.2,2.6-3.1,3.8-5.9,3.8c-0.5,0-0.8-0.1-1-0.2s-0.6-0.2-1-0.2c-1.8-0.4-3.1-1.4-3.8-2.9s-0.7-3,0-4.5v-0.3
			C222.6,418.3,224.5,417,227.8,417z"/>
		<path class="st0" d="M110,417.6c-3.7,0-5.5,1.7-5.5,5.1V608c0,3.4,1.8,5.1,5.5,5.1c3.9,0,5.9-1.7,5.9-5.1V428.2h92.2
			c1.8,0,3.3-0.5,4.3-1.6s1.6-2.3,1.6-3.8c0-3.4-2-5.1-5.9-5.1H110V417.6z M135.6,579.2c0,3.4,1.8,5.1,5.5,5.1c1.6,0,3-0.5,4.2-1.4
			c1.2-1,1.7-2.2,1.7-3.7V448.3c0-1.5-0.6-2.7-1.7-3.7c-1.2-1-2.5-1.4-4.2-1.4c-3.7,0-5.5,1.7-5.5,5.1V579.2z M136,395.3
			c0,1.5,0.6,2.7,1.7,3.7c1.2,1,2.5,1.4,4.2,1.4h85.3c3.7,0,5.5-1.7,5.5-5.1c0-1.5-0.5-2.8-1.6-3.8c-1-1.1-2.4-1.6-4-1.6h-85.3
			c-1.6,0-3,0.5-4.2,1.6C136.6,392.5,136,393.8,136,395.3z M227.5,417c-2.5,0.6-4.3,1.7-5.2,3.2s-1.2,3-0.7,4.5v0.3
			c1.2,2.6,3.1,3.8,5.9,3.8c0.5,0,0.8-0.1,1-0.2s0.6-0.2,1-0.2c1.8-0.4,3.1-1.4,3.8-2.9s0.7-3,0-4.5v-0.3
			C232.7,418.3,230.7,417,227.5,417z"/>
		<path class="st0" d="M219.5,450.1v101.1h26c1.6,0,2.9,0.5,4,1.6c1,1.1,1.6,2.3,1.6,3.8v81.6c0,3.6-1.9,5.4-5.5,5.4
			c-1.6,0-3-0.5-4.2-1.4c-1.2-1-1.7-2.3-1.7-4v-76.4H214c-1.6,0-3-0.5-4.2-1.4c-1.2-1-1.7-2.2-1.7-3.7V455.2H145
			c-3.9,0-5.9-1.7-5.9-5.1c0-3.6,2-5.4,5.9-5.4h69C217.7,444.7,219.5,446.5,219.5,450.1z M187.3,472.8c1.6,0,2.9,0.5,4,1.6
			c1,1.1,1.6,2.3,1.6,3.8c0,3.4-1.9,5.1-5.5,5.1H145c-3.9,0-5.9-1.7-5.9-5.1c0-1.5,0.5-2.8,1.6-3.8c1-1.1,2.5-1.6,4.3-1.6H187.3z
			 M219.9,662.8c0,3.4-1.9,5.1-5.5,5.1c-1.6,0-3-0.5-4.2-1.4c-1.2-1-1.7-2.2-1.7-3.7v-77.1c0-1.7,0.6-3,1.7-4c1.2-1,2.5-1.4,4.2-1.4
			c3.7,0,5.5,1.8,5.5,5.4V662.8z M245.5,444.7h45.1c3.7,0,5.5,1.8,5.5,5.4c0,3.4-1.9,5.1-5.5,5.1h-45.1c-1.6,0-3-0.5-4.2-1.4
			c-1.2-1-1.7-2.2-1.7-3.7c0-1.7,0.6-3,1.7-4C242.5,445.1,243.9,444.7,245.5,444.7z M239.6,528.2v-49.9c0-1.5,0.6-2.8,1.7-3.8
			c1.2-1.1,2.5-1.6,4.2-1.6h64.1c1.8,0,3.3,0.5,4.3,1.6s1.6,2.3,1.6,3.8c0,3.4-2,5.1-5.9,5.1H251v44.8c0,3.4-1.9,5.1-5.5,5.1
			c-1.6,0-3-0.5-4.2-1.4C240.2,530.9,239.6,529.6,239.6,528.2z M311.7,444.3c1.8,0.4,3.1,1.4,3.8,2.9c0.7,1.5,0.8,3,0.3,4.5h-0.3
			c-0.7,2.8-2.7,4.2-5.9,4.2c-2.5-0.8-4.3-2-5.2-3.4c-0.9-1.4-1.2-2.8-0.7-4.3l0.3-0.3c0.7-2.6,2.7-3.8,5.9-3.8
			C310.9,444,311.5,444.1,311.7,444.3z"/>
	</g>
	<g>
		<path class="st0" d="M410,390.4c0-6,0.8-12,2.4-17.9c1.6-5.9,3.8-11.5,6.8-16.7c3-5.2,6.6-10,10.9-14.3c4.3-4.3,9.1-7.8,14.5-10.6
			c0.3-0.3,0.8-0.4,1.5-0.4c1.1,0,2,0.5,2.6,1.5c0.5,0.9,0.6,1.7,0.3,2.5c-0.3,0.8-0.9,1.4-1.6,1.8c-4.9,2.6-9.3,5.9-13.2,9.7
			c-3.9,3.8-7.2,8.1-9.8,12.8c-2.6,4.7-4.7,9.8-6,15.1c-1.4,5.4-2.1,10.8-2.1,16.3c0,7.7,1.4,15.1,4.1,22.4
			c2.7,7.2,6.5,13.6,11.3,19.2c4.8,5.5,10.6,10,17.4,13.3c6.7,3.3,14.1,5,22.2,5c8.1,0,15.4-1.7,22.1-5c6.7-3.3,12.4-7.8,17.3-13.4
			c4.8-5.6,8.6-12,11.3-19.2c2.7-7.2,4.1-14.6,4.1-22.3c0-7.4-1.3-14.6-3.8-21.6c-2.5-7-6-13.2-10.6-18.7c-4.5-5.5-10-10-16.3-13.5
			c-6.4-3.5-13.4-5.5-21.1-6V344c0,2-1,3-3,3c-5.8,0-11.1,1.2-15.9,3.6c-4.8,2.4-8.8,5.6-12.2,9.6c-3.3,4-5.9,8.6-7.7,13.8
			c-1.8,5.2-2.7,10.5-2.7,16.1c0,5.4,0.9,10.7,2.7,15.9c1.8,5.2,4.4,9.8,7.8,13.8c3.4,4,7.5,7.2,12.2,9.6c4.7,2.4,10,3.6,15.8,3.6
			c5.8,0,11.1-1.2,15.9-3.6c4.8-2.4,8.9-5.6,12.3-9.5c3.4-4,6-8.5,7.8-13.7c1.8-5.2,2.7-10.5,2.7-16.1c0-9.1-2.2-17.2-6.5-24.4
			c-4.3-7.2-10.2-12.4-17.7-15.7c-0.8-0.3-1.3-0.8-1.6-1.6c-0.3-0.8-0.3-1.6,0.1-2.4c0.4-1.3,1.3-1.9,2.8-1.9c0.5,0,0.9,0.1,1.1,0.2
			c4.3,1.9,8.1,4.4,11.5,7.5c3.4,3.1,6.3,6.6,8.8,10.6c2.5,4,4.3,8.3,5.7,12.9c1.3,4.7,2,9.6,2,14.7c0,6.4-1.1,12.6-3.3,18.5
			c-2.2,5.9-5.3,11.1-9.2,15.7c-3.9,4.5-8.6,8.2-14.2,10.9c-5.5,2.7-11.6,4.1-18.3,4.1c-6.7,0-12.7-1.4-18.2-4.2
			c-5.5-2.8-10.2-6.4-14.2-11c-4-4.5-7-9.8-9.2-15.7c-2.1-5.9-3.2-12-3.2-18.3c0-6,1-11.9,2.9-17.7c2-5.7,4.8-10.8,8.4-15.3
			c3.7-4.5,8-8.2,13.1-11.1c5.1-3,10.8-4.6,17.1-5v-13.6c0-2,1.1-3,3.2-3c8.9,0,17.1,1.9,24.6,5.6c7.4,3.7,13.8,8.6,19.3,14.7
			c5.4,6.1,9.6,13.1,12.7,21.1c3,7.9,4.5,16.2,4.5,24.7c0,8.6-1.5,16.8-4.5,24.8c-3,8-7.2,15-12.7,21.2c-5.4,6.1-11.9,11-19.4,14.6
			c-7.5,3.7-15.6,5.5-24.5,5.5c-8.9,0-17.2-1.8-24.6-5.5c-7.5-3.7-13.9-8.5-19.4-14.6c-5.4-6.1-9.6-13.2-12.7-21.2
			C411.5,407.3,410,399,410,390.4z M452.7,328.5c0.4-1.5,1.4-2.3,3.2-2.3c0.5,0,0.9,0.1,1.1,0.2c0.9,0.3,1.5,0.8,1.9,1.7
			c0.4,0.9,0.4,1.8,0.2,2.6c-0.6,1.6-1.7,2.5-3.2,2.5c-1.5-0.5-2.5-1.2-3-2c-0.5-0.8-0.6-1.7-0.2-2.5V328.5z"/>
		<path class="st0" d="M550.9,439.5c-2,0-3-1-3-3V327.2c0-2,1-3,3-3c2.1,0,3.2,1,3.2,3v106.1h50.2c1,0,1.8,0.3,2.4,0.9
			c0.6,0.6,0.8,1.4,0.8,2.3c0,2-1.1,3-3.2,3H550.9z M564.8,344.2c0-2,1-3,3-3c0.9,0,1.6,0.3,2.3,0.9c0.6,0.6,0.9,1.3,0.9,2.2v77.2
			c0,0.9-0.3,1.6-0.9,2.2c-0.6,0.6-1.4,0.9-2.3,0.9c-2,0-3-1-3-3V344.2z M565,452.8c0-0.9,0.3-1.6,0.9-2.2c0.6-0.6,1.4-0.9,2.3-0.9
			h46.5c2,0,3,1,3,3c0,0.9-0.3,1.6-0.9,2.3c-0.6,0.6-1.3,0.9-2.2,0.9h-46.5c-0.9,0-1.6-0.3-2.3-0.9C565.4,454.4,565,453.6,565,452.8
			z M614.9,439.9c-1.4-0.4-2.3-1-2.8-1.9c-0.5-0.9-0.6-1.8-0.4-2.6v-0.2c0.6-1.5,1.7-2.3,3.2-2.3c0.3,0,0.4,0,0.6,0.1
			c0.1,0.1,0.3,0.1,0.6,0.1c1,0.3,1.7,0.8,2.1,1.7c0.4,0.9,0.4,1.8,0,2.6v0.2C617.7,439.2,616.7,439.9,614.9,439.9z"/>
		<path class="st0" d="M634.2,390.4c0-6,0.8-12,2.4-17.9c1.6-5.9,3.8-11.5,6.8-16.7c3-5.2,6.6-10,10.9-14.3
			c4.3-4.3,9.1-7.8,14.5-10.6c0.3-0.3,0.8-0.4,1.5-0.4c1.1,0,2,0.5,2.6,1.5c0.5,0.9,0.6,1.7,0.3,2.5c-0.3,0.8-0.9,1.4-1.6,1.8
			c-4.9,2.6-9.3,5.9-13.2,9.7c-3.9,3.8-7.2,8.1-9.8,12.8c-2.6,4.7-4.7,9.8-6,15.1c-1.4,5.4-2.1,10.8-2.1,16.3
			c0,7.7,1.4,15.1,4.1,22.4c2.7,7.2,6.5,13.6,11.3,19.2c4.8,5.5,10.6,10,17.4,13.3c6.7,3.3,14.1,5,22.2,5c8.1,0,15.4-1.7,22.1-5
			c6.7-3.3,12.4-7.8,17.3-13.4c4.8-5.6,8.6-12,11.3-19.2c2.7-7.2,4.1-14.6,4.1-22.3c0-7.4-1.3-14.6-3.8-21.6
			c-2.5-7-6-13.2-10.6-18.7s-10-10-16.3-13.5c-6.4-3.5-13.4-5.5-21.1-6V344c0,2-1,3-3,3c-5.8,0-11.1,1.2-15.9,3.6
			c-4.8,2.4-8.8,5.6-12.2,9.6c-3.3,4-5.9,8.6-7.7,13.8c-1.8,5.2-2.7,10.5-2.7,16.1c0,5.4,0.9,10.7,2.7,15.9
			c1.8,5.2,4.4,9.8,7.8,13.8c3.4,4,7.5,7.2,12.2,9.6c4.7,2.4,10,3.6,15.8,3.6c5.8,0,11.1-1.2,15.9-3.6c4.8-2.4,8.9-5.6,12.3-9.5
			s6-8.5,7.8-13.7c1.8-5.2,2.7-10.5,2.7-16.1c0-9.1-2.2-17.2-6.5-24.4c-4.3-7.2-10.2-12.4-17.7-15.7c-0.8-0.3-1.3-0.8-1.6-1.6
			c-0.3-0.8-0.3-1.6,0.1-2.4c0.4-1.3,1.3-1.9,2.8-1.9c0.5,0,0.9,0.1,1.1,0.2c4.3,1.9,8.1,4.4,11.5,7.5c3.4,3.1,6.3,6.6,8.8,10.6
			c2.5,4,4.3,8.3,5.7,12.9c1.3,4.7,2,9.6,2,14.7c0,6.4-1.1,12.6-3.3,18.5c-2.2,5.9-5.3,11.1-9.2,15.7c-3.9,4.5-8.6,8.2-14.2,10.9
			c-5.5,2.7-11.6,4.1-18.3,4.1c-6.7,0-12.7-1.4-18.2-4.2c-5.5-2.8-10.2-6.4-14.2-11c-4-4.5-7-9.8-9.2-15.7c-2.1-5.9-3.2-12-3.2-18.3
			c0-6,1-11.9,2.9-17.7c2-5.7,4.8-10.8,8.4-15.3c3.7-4.5,8-8.2,13.1-11.1c5.1-3,10.8-4.6,17.1-5v-13.6c0-2,1.1-3,3.2-3
			c8.9,0,17.1,1.9,24.6,5.6c7.4,3.7,13.8,8.6,19.3,14.7c5.4,6.1,9.6,13.1,12.7,21.1c3,7.9,4.5,16.2,4.5,24.7
			c0,8.6-1.5,16.8-4.5,24.8c-3,8-7.2,15-12.7,21.2c-5.4,6.1-11.9,11-19.4,14.6c-7.5,3.7-15.6,5.5-24.5,5.5c-8.9,0-17.2-1.8-24.6-5.5
			c-7.5-3.7-13.9-8.5-19.4-14.6c-5.4-6.1-9.6-13.2-12.7-21.2C635.7,407.3,634.2,399,634.2,390.4z M676.8,328.5
			c0.4-1.5,1.4-2.3,3.2-2.3c0.5,0,0.9,0.1,1.1,0.2c0.9,0.3,1.5,0.8,1.9,1.7c0.4,0.9,0.4,1.8,0.2,2.6c-0.6,1.6-1.7,2.5-3.2,2.5
			c-1.5-0.5-2.5-1.2-3-2c-0.5-0.8-0.6-1.7-0.2-2.5V328.5z"/>
		<path class="st0" d="M779.6,345.1c0-0.9,0.3-1.6,0.8-2.3c0.6-0.6,1.4-0.9,2.4-0.9h24.6c3.4,0,6.6,0.4,9.7,1.2
			c3.1,0.8,5.8,2.1,8,3.9c2.3,1.8,4.1,4,5.5,6.8c1.4,2.8,2.1,6,2.1,9.8s-0.7,7.1-2,9.8c-1.3,2.8-3.1,5.1-5.5,7.1
			c-2.3,2-5,3.4-8.1,4.3c-3.1,0.9-6.3,1.4-9.7,1.4h-7.7c-2,0-3-1-3-3V370c0-2,1-3,3-3c0.9,0,1.6,0.3,2.3,0.9
			c0.6,0.6,0.9,1.3,0.9,2.2v10h4.5c5.2,0,9.6-1.3,13.4-4c3.8-2.6,5.7-6.8,5.7-12.5c0-2.9-0.5-5.3-1.6-7.3c-1.1-2-2.5-3.6-4.2-4.8
			c-1.7-1.3-3.7-2.1-6-2.6c-2.3-0.5-4.8-0.8-7.3-0.8h-21.5v106.5c0,0.9-0.3,1.6-0.9,2.3c-0.6,0.6-1.3,0.9-2.2,0.9
			c-1,0-1.8-0.3-2.4-0.9c-0.6-0.6-0.8-1.4-0.8-2.3V345.1z M799.6,443.3c-2,0-3-1-3-3v-40.6c0-2,1-3,3-3h14.7c1.6,0,4.1-0.4,7.3-1.3
			c3.2-0.9,6.5-2.6,9.7-5.1c7.7-6.3,11.5-15.6,11.5-28c0-4.4-0.6-8.5-1.9-12.3c-1.3-3.8-3.1-7-5.5-9.7c-2.4-2.7-5.4-4.8-9-6.4
			c-3.6-1.6-7.6-2.4-12.2-2.4h-14.9c-0.9,0-1.6-0.3-2.3-0.9c-0.6-0.6-0.9-1.4-0.9-2.3c0-0.9,0.3-1.6,0.9-2.2
			c0.6-0.6,1.4-0.8,2.3-0.8h14.9c5.5,0,10.5,0.9,14.8,2.8c4.3,1.9,8,4.5,11,7.8c3,3.3,5.2,7.3,6.7,11.8c1.5,4.5,2.3,9.4,2.3,14.5
			c0,6.2-1.1,12.2-3.2,18c-2.1,5.9-5.7,10.7-10.8,14.6c-3.7,2.9-7.4,4.9-11.2,6.1c-3.8,1.2-7,1.8-9.5,1.8h-11.5v37.4
			c0,0.9-0.3,1.6-0.9,2.2C801.2,443,800.5,443.3,799.6,443.3z M798.7,362.7c-1-0.3-1.7-0.8-2.1-1.6c-0.4-0.8-0.4-1.7-0.2-2.6v-0.2
			c0.6-1.5,1.8-2.3,3.4-2.3c0.4,0,0.7,0.1,0.9,0.2c1,0.3,1.7,0.8,2.1,1.6c0.4,0.8,0.4,1.7,0.2,2.7h-0.2c-0.4,1.5-1.4,2.3-3.2,2.3
			L798.7,362.7z"/>
		<path class="st0" d="M886.9,346.8v106.9c0,2.1-1,3.2-3,3.2c-2.1,0-3.2-1.1-3.2-3.2V343.8c0-0.9,0.3-1.6,0.9-2.3
			c0.6-0.6,1.4-0.9,2.4-0.9h37.6c4.5,0,8.7,0.4,12.6,1.2c3.8,0.8,7.1,2.2,9.8,4.2c2.7,2,4.8,4.7,6.3,8c1.5,3.3,2.3,7.5,2.3,12.6
			c0,17.8-9.9,26.6-29.8,26.6h-5.9c-0.9,0-1.6-0.3-2.3-0.9c-0.6-0.6-0.9-1.4-0.9-2.3c0-0.9,0.3-1.6,0.9-2.2c0.6-0.6,1.4-0.8,2.3-0.8
			h5.9c7.3,0,13.1-1.4,17.3-4.3c4.2-2.9,6.3-8.2,6.3-16.1c0-4-0.6-7.3-1.8-9.9c-1.2-2.6-2.9-4.6-5-6c-2.1-1.4-4.8-2.5-7.8-3
			c-3.1-0.6-6.5-0.8-10.1-0.8H886.9z M938.8,443.1c0.5,0.6,0.7,1.4,0.5,2.3c-0.2,0.9-0.6,1.6-1.2,2.1c-0.5,0.4-1.1,0.6-1.9,0.6
			c-1,0-1.8-0.5-2.5-1.5l-36.6-54.4c-1.1-1.8-0.8-3.2,0.9-4.3c0.4-0.4,0.9-0.6,1.7-0.6c0.9,0,1.8,0.4,2.6,1.3L938.8,443.1z
			 M900.5,417.8c2,0,3,1,3,3v32.9c0,2.1-1,3.2-3,3.2c-0.9,0-1.6-0.3-2.3-0.8c-0.6-0.6-0.9-1.4-0.9-2.4v-32.9c0-0.9,0.3-1.6,0.9-2.2
			C898.8,418.1,899.6,417.8,900.5,417.8z M933,407.2l30.6,44.8c1.1,1.8,0.9,3.2-0.8,4.3c-0.5,0.4-1.1,0.6-1.7,0.6
			c-1.1,0-2-0.4-2.6-1.3l-33.6-49.5c-0.8-0.9-0.8-2-0.2-3.2c0.6-1.1,1.6-1.7,2.8-1.7c5.3,0,10.1-0.8,14.5-2.5c4.4-1.6,8.2-4,11.3-7
			c3.1-3,5.6-6.7,7.3-11c1.7-4.3,2.5-9.1,2.5-14.5c0-12.1-3-20.8-9.1-26.2c-6-5.4-14.9-8-26.6-8h-26.8c-2,0-3-1.1-3-3.2c0-2,1-3,3-3
			h26.8c13.3,0,23.7,3.2,31,9.7c7.3,6.5,11,16.7,11,30.7c0,11.6-3.2,20.9-9.7,28C953.2,401.4,944.3,405.7,933,407.2z M943.2,450.3
			c1,0.3,1.7,0.8,2.1,1.6c0.4,0.8,0.4,1.7,0.2,2.7h-0.2c-0.4,1.5-1.4,2.3-3.2,2.3c-1.4-0.4-2.3-1-2.8-1.8c-0.5-0.8-0.6-1.7-0.4-2.5
			v-0.2c0.6-1.5,1.7-2.3,3.2-2.3C942.5,450.1,942.9,450.2,943.2,450.3z"/>
		<path class="st0" d="M990.2,390.4c0-6,0.8-12,2.4-17.9c1.6-5.9,3.8-11.5,6.8-16.7c3-5.2,6.6-10,10.9-14.3
			c4.3-4.3,9.1-7.8,14.5-10.6c0.3-0.3,0.8-0.4,1.5-0.4c1.1,0,2,0.5,2.6,1.5c0.5,0.9,0.6,1.7,0.3,2.5c-0.3,0.8-0.9,1.4-1.6,1.8
			c-4.9,2.6-9.3,5.9-13.2,9.7c-3.9,3.8-7.2,8.1-9.8,12.8c-2.6,4.7-4.7,9.8-6,15.1c-1.4,5.4-2.1,10.8-2.1,16.3
			c0,7.7,1.4,15.1,4.1,22.4c2.7,7.2,6.5,13.6,11.3,19.2c4.8,5.5,10.6,10,17.4,13.3c6.7,3.3,14.1,5,22.2,5c8.1,0,15.4-1.7,22.1-5
			c6.7-3.3,12.4-7.8,17.3-13.4c4.8-5.6,8.6-12,11.3-19.2c2.7-7.2,4.1-14.6,4.1-22.3c0-7.4-1.3-14.6-3.8-21.6
			c-2.5-7-6-13.2-10.6-18.7c-4.5-5.5-10-10-16.3-13.5c-6.4-3.5-13.4-5.5-21.1-6V344c0,2-1,3-3,3c-5.8,0-11.1,1.2-15.9,3.6
			c-4.8,2.4-8.8,5.6-12.2,9.6c-3.3,4-5.9,8.6-7.7,13.8c-1.8,5.2-2.7,10.5-2.7,16.1c0,5.4,0.9,10.7,2.7,15.9
			c1.8,5.2,4.4,9.8,7.8,13.8c3.4,4,7.5,7.2,12.2,9.6c4.7,2.4,10,3.6,15.8,3.6c5.8,0,11.1-1.2,15.9-3.6c4.8-2.4,8.9-5.6,12.3-9.5
			c3.4-4,6-8.5,7.8-13.7c1.8-5.2,2.7-10.5,2.7-16.1c0-9.1-2.2-17.2-6.5-24.4c-4.3-7.2-10.2-12.4-17.7-15.7c-0.8-0.3-1.3-0.8-1.6-1.6
			c-0.3-0.8-0.3-1.6,0.1-2.4c0.4-1.3,1.3-1.9,2.8-1.9c0.5,0,0.9,0.1,1.1,0.2c4.3,1.9,8.1,4.4,11.5,7.5c3.4,3.1,6.3,6.6,8.8,10.6
			c2.5,4,4.3,8.3,5.7,12.9c1.3,4.7,2,9.6,2,14.7c0,6.4-1.1,12.6-3.3,18.5c-2.2,5.9-5.3,11.1-9.2,15.7c-3.9,4.5-8.6,8.2-14.2,10.9
			c-5.5,2.7-11.6,4.1-18.3,4.1c-6.7,0-12.7-1.4-18.2-4.2c-5.5-2.8-10.2-6.4-14.2-11c-4-4.5-7-9.8-9.2-15.7c-2.1-5.9-3.2-12-3.2-18.3
			c0-6,1-11.9,2.9-17.7c2-5.7,4.8-10.8,8.4-15.3c3.7-4.5,8-8.2,13.1-11.1c5.1-3,10.8-4.6,17.1-5v-13.6c0-2,1.1-3,3.2-3
			c8.9,0,17.1,1.9,24.6,5.6c7.4,3.7,13.8,8.6,19.3,14.7c5.4,6.1,9.6,13.1,12.7,21.1c3,7.9,4.5,16.2,4.5,24.7
			c0,8.6-1.5,16.8-4.5,24.8c-3,8-7.2,15-12.7,21.2c-5.4,6.1-11.9,11-19.4,14.6c-7.5,3.7-15.6,5.5-24.5,5.5c-8.9,0-17.2-1.8-24.6-5.5
			c-7.5-3.7-13.9-8.5-19.4-14.6c-5.4-6.1-9.6-13.2-12.7-21.2C991.7,407.3,990.2,399,990.2,390.4z M1032.9,328.5
			c0.4-1.5,1.4-2.3,3.2-2.3c0.5,0,0.9,0.1,1.1,0.2c0.9,0.3,1.5,0.8,1.9,1.7c0.4,0.9,0.4,1.8,0.2,2.6c-0.6,1.6-1.7,2.5-3.2,2.5
			c-1.5-0.5-2.5-1.2-3-2c-0.5-0.8-0.6-1.7-0.2-2.5V328.5z"/>
		<path class="st0" d="M1125.8,457.7c-0.8-0.5-1.2-1.2-1.4-2.1c-0.2-0.9,0-1.6,0.5-2.3l49.1-77.2l-29.3-46.3
			c-1.1-1.8-0.8-3.2,0.9-4.3c0.5-0.3,1-0.4,1.5-0.4c1.1,0,2,0.4,2.6,1.3l30.4,48c0.9,1,0.9,2.1,0,3.2l-50.2,78.9
			c-0.6,1-1.5,1.5-2.6,1.5C1126.8,458.1,1126.3,457.9,1125.8,457.7z M1157.1,380.2l-32.1-50.4c-0.5-0.8-0.6-1.5-0.4-2.4
			c0.3-0.8,0.7-1.5,1.3-2c0.8-0.3,1.3-0.4,1.7-0.4c1.1,0,2,0.4,2.6,1.3l32.1,50.4c0.9,1.8,0.6,3.2-0.9,4.3c-0.5,0.4-1.1,0.6-1.7,0.6
			C1158.7,381.8,1157.8,381.2,1157.1,380.2z M1152.6,449.4c-0.5,0-1.1-0.2-1.7-0.6c-0.6-0.5-1.1-1.2-1.3-2c-0.3-0.8-0.1-1.6,0.4-2.4
			l14.9-23.4c0.8-0.9,1.6-1.3,2.6-1.3c0.8,0,1.3,0.1,1.7,0.4c1.8,1.1,2.1,2.6,0.9,4.3l-14.9,23.4
			C1154.6,448.9,1153.7,449.4,1152.6,449.4z M1174.9,408.8c-0.6-1-0.6-2.1,0-3.4l50.2-78.9c0.6-0.9,1.5-1.3,2.6-1.3
			c0.4,0,0.9,0.1,1.7,0.4c0.6,0.5,1.1,1.2,1.3,2c0.3,0.8,0.1,1.6-0.4,2.4l-49.3,77.2l23.6,37.2c1.1,1.8,0.8,3.2-0.9,4.3
			c-0.5,0.3-1,0.4-1.5,0.4c-1.3,0-2.1-0.4-2.6-1.3L1174.9,408.8z M1185.9,363.1c-0.6-0.5-1.1-1.2-1.3-2c-0.3-0.8-0.1-1.6,0.4-2.4
			l14.9-23.2c0.6-1,1.5-1.5,2.6-1.5c0.6,0,1.1,0.2,1.5,0.6c1.8,1.1,2.1,2.6,0.9,4.3l-14.7,23.2c-0.5,0.9-1.4,1.3-2.6,1.3
			C1186.8,363.4,1186.2,363.3,1185.9,363.1z M1230,453.3c0.5,0.6,0.7,1.4,0.5,2.3c-0.2,0.9-0.7,1.6-1.4,2.1
			c-0.5,0.3-1.1,0.4-1.7,0.4c-1,0-1.9-0.5-2.6-1.5l-31.9-50.2c-1.1-1.8-0.8-3.2,0.9-4.3c0.6-0.4,1.2-0.6,1.7-0.6
			c1.1,0,2,0.5,2.6,1.5L1230,453.3z M1204.7,327c0.4-1.5,1.4-2.3,3.2-2.3c0.5,0,0.9,0.1,1.1,0.2c0.9,0.3,1.5,0.8,1.9,1.6
			c0.4,0.8,0.4,1.7,0.2,2.7c-0.5,1.5-1.6,2.3-3.2,2.3c-1.4-0.4-2.3-1-2.8-1.8c-0.5-0.8-0.6-1.7-0.4-2.5V327z"/>
	</g>
</g>
</svg>
