<?xml version="1.0" encoding="utf-8"?>
<!-- Generator: Adobe Illustrator 25.3.1, SVG Export Plug-In . SVG Version: 6.00 Build 0)  -->
<!DOCTYPE svg PUBLIC "-//W3C//DTD SVG 1.1//EN" "http://www.w3.org/Graphics/SVG/1.1/DTD/svg11.dtd" [
	<!ENTITY ns_extend "http://ns.adobe.com/Extensibility/1.0/">
	<!ENTITY ns_ai "http://ns.adobe.com/AdobeIllustrator/10.0/">
	<!ENTITY ns_graphs "http://ns.adobe.com/Graphs/1.0/">
	<!ENTITY ns_vars "http://ns.adobe.com/Variables/1.0/">
	<!ENTITY ns_imrep "http://ns.adobe.com/ImageReplacement/1.0/">
	<!ENTITY ns_sfw "http://ns.adobe.com/SaveForWeb/1.0/">
	<!ENTITY ns_custom "http://ns.adobe.com/GenericCustomNamespace/1.0/">
	<!ENTITY ns_adobe_xpath "http://ns.adobe.com/XPath/1.0/">
]>
<svg version="1.1" id="Слой_1" xmlns:x="&ns_extend;" xmlns:i="&ns_ai;" xmlns:graph="&ns_graphs;"
	 xmlns="http://www.w3.org/2000/svg" xmlns:xlink="http://www.w3.org/1999/xlink" x="0px" y="0px" viewBox="0 0 820.8 133.9"
	 style="enable-background:new 0 0 820.8 133.9;" xml:space="preserve">
<style type="text/css">
	.st0{fill:#FF9200;}
</style>
<metadata>
	<sfw  xmlns="&ns_sfw;">
		<slices></slices>
		<sliceSourceBounds  bottomLeftOrigin="true" height="133.9" width="820.8" x="410" y="309.9"></sliceSourceBounds>
	</sfw>
</metadata>
<g id="Слой_2_1_">
</g>
<g id="Слой_4">
</g>
<g>
	<path class="st0" d="M0,66.2c0-6,0.8-12,2.4-17.9s3.8-11.5,6.8-16.7s6.6-10,10.9-14.3s9.1-7.8,14.5-10.6c0.3-0.3,0.8-0.4,1.5-0.4
		c1.1,0,2,0.5,2.6,1.5c0.5,0.9,0.6,1.7,0.3,2.5c-0.3,0.8-0.9,1.4-1.6,1.8c-4.9,2.6-9.3,5.9-13.2,9.7c-3.9,3.8-7.2,8.1-9.8,12.8
		c-2.6,4.7-4.7,9.8-6,15.1C7,55.1,6.3,60.5,6.3,66c0,7.7,1.4,15.1,4.1,22.4c2.7,7.2,6.5,13.6,11.3,19.2c4.8,5.5,10.6,10,17.4,13.3
		c6.7,3.3,14.1,5,22.2,5s15.4-1.7,22.1-5s12.4-7.8,17.3-13.4c4.8-5.6,8.6-12,11.3-19.2s4.1-14.6,4.1-22.3c0-7.4-1.3-14.6-3.8-21.6
		s-6-13.2-10.6-18.7c-4.5-5.5-10-10-16.3-13.5C79,8.7,72,6.7,64.3,6.2v13.6c0,2-1,3-3,3c-5.8,0-11.1,1.2-15.9,3.6S36.6,32,33.2,36
		c-3.3,4-5.9,8.6-7.7,13.8c-1.8,5.2-2.7,10.5-2.7,16.1c0,5.4,0.9,10.7,2.7,15.9c1.8,5.2,4.4,9.8,7.8,13.8s7.5,7.2,12.2,9.6
		s10,3.6,15.8,3.6s11.1-1.2,15.9-3.6s8.9-5.6,12.3-9.5c3.4-4,6-8.5,7.8-13.7s2.7-10.5,2.7-16.1c0-9.1-2.2-17.2-6.5-24.4
		c-4.3-7.2-10.2-12.4-17.7-15.7c-0.8-0.3-1.3-0.8-1.6-1.6c-0.3-0.8-0.3-1.6,0.1-2.4c0.4-1.3,1.3-1.9,2.8-1.9c0.5,0,0.9,0.1,1.1,0.2
		c4.3,1.9,8.1,4.4,11.5,7.5s6.3,6.6,8.8,10.6s4.3,8.3,5.7,12.9c1.3,4.7,2,9.6,2,14.7c0,6.4-1.1,12.6-3.3,18.5s-5.3,11.1-9.2,15.7
		c-3.9,4.5-8.6,8.2-14.2,10.9c-5.5,2.7-11.6,4.1-18.3,4.1c-6.7,0-12.7-1.4-18.2-4.2c-5.5-2.8-10.2-6.4-14.2-11
		c-4-4.5-7-9.8-9.2-15.7c-2.1-5.9-3.2-12-3.2-18.3c0-6,1-11.9,2.9-17.7c2-5.7,4.8-10.8,8.4-15.3c3.7-4.5,8-8.2,13.1-11.1
		c5.1-3,10.8-4.6,17.1-5V3.1c0-2,1.1-3,3.2-3C70,0.1,78.2,2,85.7,5.7c7.4,3.7,13.8,8.6,19.3,14.7c5.4,6.1,9.6,13.1,12.7,21.1
		c3,7.9,4.5,16.2,4.5,24.7c0,8.6-1.5,16.8-4.5,24.8s-7.2,15-12.7,21.2c-5.4,6.1-11.9,11-19.4,14.6c-7.5,3.7-15.6,5.5-24.5,5.5
		s-17.2-1.8-24.6-5.5c-7.5-3.7-13.9-8.5-19.4-14.6C11.7,106.1,7.5,99,4.4,91C1.5,83.1,0,74.8,0,66.2z M42.7,4.3
		C43.1,2.8,44.1,2,45.9,2c0.5,0,0.9,0.1,1.1,0.2c0.9,0.3,1.5,0.8,1.9,1.7c0.4,0.9,0.4,1.8,0.2,2.6C48.5,8.1,47.4,9,45.9,9
		c-1.5-0.5-2.5-1.2-3-2s-0.6-1.7-0.2-2.5V4.3z"/>
	<path class="st0" d="M140.9,115.3c-2,0-3-1-3-3V3c0-2,1-3,3-3c2.1,0,3.2,1,3.2,3v106.1h50.2c1,0,1.8,0.3,2.4,0.9
		c0.6,0.6,0.8,1.4,0.8,2.3c0,2-1.1,3-3.2,3H140.9z M154.8,20c0-2,1-3,3-3c0.9,0,1.6,0.3,2.3,0.9c0.6,0.6,0.9,1.3,0.9,2.2v77.2
		c0,0.9-0.3,1.6-0.9,2.2c-0.6,0.6-1.4,0.9-2.3,0.9c-2,0-3-1-3-3V20z M155,128.6c0-0.9,0.3-1.6,0.9-2.2c0.6-0.6,1.4-0.9,2.3-0.9h46.5
		c2,0,3,1,3,3c0,0.9-0.3,1.6-0.9,2.3c-0.6,0.6-1.3,0.9-2.2,0.9h-46.5c-0.9,0-1.6-0.3-2.3-0.9C155.4,130.2,155,129.4,155,128.6z
		 M204.9,115.7c-1.4-0.4-2.3-1-2.8-1.9s-0.6-1.8-0.4-2.6V111c0.6-1.5,1.7-2.3,3.2-2.3c0.3,0,0.4,0,0.6,0.1c0.1,0.1,0.3,0.1,0.6,0.1
		c1,0.3,1.7,0.8,2.1,1.7c0.4,0.9,0.4,1.8,0,2.6v0.2C207.7,115,206.7,115.7,204.9,115.7z"/>
	<path class="st0" d="M224.2,66.2c0-6,0.8-12,2.4-17.9c1.6-5.9,3.8-11.5,6.8-16.7s6.6-10,10.9-14.3c4.3-4.3,9.1-7.8,14.5-10.6
		c0.3-0.3,0.8-0.4,1.5-0.4c1.1,0,2,0.5,2.6,1.5c0.5,0.9,0.6,1.7,0.3,2.5s-0.9,1.4-1.6,1.8c-4.9,2.6-9.3,5.9-13.2,9.7
		c-3.9,3.8-7.2,8.1-9.8,12.8c-2.6,4.7-4.7,9.8-6,15.1c-1.4,5.4-2.1,10.8-2.1,16.3c0,7.7,1.4,15.1,4.1,22.4
		c2.7,7.2,6.5,13.6,11.3,19.2c4.8,5.5,10.6,10,17.4,13.3c6.7,3.3,14.1,5,22.2,5c8.1,0,15.4-1.7,22.1-5c6.7-3.3,12.4-7.8,17.3-13.4
		c4.8-5.6,8.6-12,11.3-19.2s4.1-14.6,4.1-22.3c0-7.4-1.3-14.6-3.8-21.6s-6-13.2-10.6-18.7s-10-10-16.3-13.5
		c-6.4-3.5-13.4-5.5-21.1-6v13.6c0,2-1,3-3,3c-5.8,0-11.1,1.2-15.9,3.6c-4.8,2.4-8.8,5.6-12.2,9.6c-3.3,4-5.9,8.6-7.7,13.8
		c-1.8,5.2-2.7,10.5-2.7,16.1c0,5.4,0.9,10.7,2.7,15.9c1.8,5.2,4.4,9.8,7.8,13.8c3.4,4,7.5,7.2,12.2,9.6s10,3.6,15.8,3.6
		s11.1-1.2,15.9-3.6c4.8-2.4,8.9-5.6,12.3-9.5s6-8.5,7.8-13.7s2.7-10.5,2.7-16.1c0-9.1-2.2-17.2-6.5-24.4
		c-4.3-7.2-10.2-12.4-17.7-15.7c-0.8-0.3-1.3-0.8-1.6-1.6c-0.3-0.8-0.3-1.6,0.1-2.4c0.4-1.3,1.3-1.9,2.8-1.9c0.5,0,0.9,0.1,1.1,0.2
		c4.3,1.9,8.1,4.4,11.5,7.5s6.3,6.6,8.8,10.6s4.3,8.3,5.7,12.9c1.3,4.7,2,9.6,2,14.7c0,6.4-1.1,12.6-3.3,18.5s-5.3,11.1-9.2,15.7
		c-3.9,4.5-8.6,8.2-14.2,10.9c-5.5,2.7-11.6,4.1-18.3,4.1s-12.7-1.4-18.2-4.2c-5.5-2.8-10.2-6.4-14.2-11c-4-4.5-7-9.8-9.2-15.7
		c-2.1-5.9-3.2-12-3.2-18.3c0-6,1-11.9,2.9-17.7c2-5.7,4.8-10.8,8.4-15.3c3.7-4.5,8-8.2,13.1-11.1c5.1-3,10.8-4.6,17.1-5V3.1
		c0-2,1.1-3,3.2-3c8.9,0,17.1,1.9,24.6,5.6c7.4,3.7,13.8,8.6,19.3,14.7c5.4,6.1,9.6,13.1,12.7,21.1c3,7.9,4.5,16.2,4.5,24.7
		c0,8.6-1.5,16.8-4.5,24.8s-7.2,15-12.7,21.2c-5.4,6.1-11.9,11-19.4,14.6c-7.5,3.7-15.6,5.5-24.5,5.5s-17.2-1.8-24.6-5.5
		c-7.5-3.7-13.9-8.5-19.4-14.6c-5.4-6.1-9.6-13.2-12.7-21.2C225.7,83.1,224.2,74.8,224.2,66.2z M266.8,4.3c0.4-1.5,1.4-2.3,3.2-2.3
		c0.5,0,0.9,0.1,1.1,0.2c0.9,0.3,1.5,0.8,1.9,1.7c0.4,0.9,0.4,1.8,0.2,2.6C272.6,8.1,271.5,9,270,9c-1.5-0.5-2.5-1.2-3-2
		s-0.6-1.7-0.2-2.5V4.3z"/>
	<path class="st0" d="M369.6,20.9c0-0.9,0.3-1.6,0.8-2.3c0.6-0.6,1.4-0.9,2.4-0.9h24.6c3.4,0,6.6,0.4,9.7,1.2c3.1,0.8,5.8,2.1,8,3.9
		c2.3,1.8,4.1,4,5.5,6.8s2.1,6,2.1,9.8s-0.7,7.1-2,9.8c-1.3,2.8-3.1,5.1-5.5,7.1c-2.3,2-5,3.4-8.1,4.3s-6.3,1.4-9.7,1.4h-7.7
		c-2,0-3-1-3-3V45.8c0-2,1-3,3-3c0.9,0,1.6,0.3,2.3,0.9c0.6,0.6,0.9,1.3,0.9,2.2v10h4.5c5.2,0,9.6-1.3,13.4-4
		c3.8-2.6,5.7-6.8,5.7-12.5c0-2.9-0.5-5.3-1.6-7.3s-2.5-3.6-4.2-4.8c-1.7-1.3-3.7-2.1-6-2.6s-4.8-0.8-7.3-0.8h-21.5v106.5
		c0,0.9-0.3,1.6-0.9,2.3c-0.6,0.6-1.3,0.9-2.2,0.9c-1,0-1.8-0.3-2.4-0.9c-0.6-0.6-0.8-1.4-0.8-2.3V20.9z M389.6,119.1c-2,0-3-1-3-3
		V75.5c0-2,1-3,3-3h14.7c1.6,0,4.1-0.4,7.3-1.3s6.5-2.6,9.7-5.1c7.7-6.3,11.5-15.6,11.5-28c0-4.4-0.6-8.5-1.9-12.3
		c-1.3-3.8-3.1-7-5.5-9.7s-5.4-4.8-9-6.4s-7.6-2.4-12.2-2.4h-14.9c-0.9,0-1.6-0.3-2.3-0.9c-0.6-0.6-0.9-1.4-0.9-2.3s0.3-1.6,0.9-2.2
		c0.6-0.6,1.4-0.8,2.3-0.8h14.9c5.5,0,10.5,0.9,14.8,2.8s8,4.5,11,7.8s5.2,7.3,6.7,11.8S439,32.9,439,38c0,6.2-1.1,12.2-3.2,18
		c-2.1,5.9-5.7,10.7-10.8,14.6c-3.7,2.9-7.4,4.9-11.2,6.1s-7,1.8-9.5,1.8h-11.5v37.4c0,0.9-0.3,1.6-0.9,2.2
		C391.2,118.8,390.5,119.1,389.6,119.1z M388.7,38.5c-1-0.3-1.7-0.8-2.1-1.6c-0.4-0.8-0.4-1.7-0.2-2.6v-0.2c0.6-1.5,1.8-2.3,3.4-2.3
		c0.4,0,0.7,0.1,0.9,0.2c1,0.3,1.7,0.8,2.1,1.6c0.4,0.8,0.4,1.7,0.2,2.7h-0.2c-0.4,1.5-1.4,2.3-3.2,2.3L388.7,38.5z"/>
	<path class="st0" d="M476.9,22.6v106.9c0,2.1-1,3.2-3,3.2c-2.1,0-3.2-1.1-3.2-3.2V19.6c0-0.9,0.3-1.6,0.9-2.3
		c0.6-0.6,1.4-0.9,2.4-0.9h37.6c4.5,0,8.7,0.4,12.6,1.2c3.8,0.8,7.1,2.2,9.8,4.2s4.8,4.7,6.3,8s2.3,7.5,2.3,12.6
		c0,17.8-9.9,26.6-29.8,26.6h-5.9c-0.9,0-1.6-0.3-2.3-0.9c-0.6-0.6-0.9-1.4-0.9-2.3s0.3-1.6,0.9-2.2c0.6-0.6,1.4-0.8,2.3-0.8h5.9
		c7.3,0,13.1-1.4,17.3-4.3s6.3-8.2,6.3-16.1c0-4-0.6-7.3-1.8-9.9s-2.9-4.6-5-6s-4.8-2.5-7.8-3c-3.1-0.6-6.5-0.8-10.1-0.8h-34.8V22.6
		z M528.8,118.9c0.5,0.6,0.7,1.4,0.5,2.3s-0.6,1.6-1.2,2.1c-0.5,0.4-1.1,0.6-1.9,0.6c-1,0-1.8-0.5-2.5-1.5L487.1,68
		c-1.1-1.8-0.8-3.2,0.9-4.3c0.4-0.4,0.9-0.6,1.7-0.6c0.9,0,1.8,0.4,2.6,1.3L528.8,118.9z M490.5,93.6c2,0,3,1,3,3v32.9
		c0,2.1-1,3.2-3,3.2c-0.9,0-1.6-0.3-2.3-0.8c-0.6-0.6-0.9-1.4-0.9-2.4V96.6c0-0.9,0.3-1.6,0.9-2.2C488.8,93.9,489.6,93.6,490.5,93.6
		z M523,83l30.6,44.8c1.1,1.8,0.9,3.2-0.8,4.3c-0.5,0.4-1.1,0.6-1.7,0.6c-1.1,0-2-0.4-2.6-1.3l-33.6-49.5c-0.8-0.9-0.8-2-0.2-3.2
		c0.6-1.1,1.6-1.7,2.8-1.7c5.3,0,10.1-0.8,14.5-2.5c4.4-1.6,8.2-4,11.3-7s5.6-6.7,7.3-11s2.5-9.1,2.5-14.5c0-12.1-3-20.8-9.1-26.2
		c-6-5.4-14.9-8-26.6-8h-26.8c-2,0-3-1.1-3-3.2c0-2,1-3,3-3h26.8c13.3,0,23.7,3.2,31,9.7s11,16.7,11,30.7c0,11.6-3.2,20.9-9.7,28
		C543.2,77.2,534.3,81.5,523,83z M533.2,126.1c1,0.3,1.7,0.8,2.1,1.6c0.4,0.8,0.4,1.7,0.2,2.7h-0.2c-0.4,1.5-1.4,2.3-3.2,2.3
		c-1.4-0.4-2.3-1-2.8-1.8s-0.6-1.7-0.4-2.5v-0.2c0.6-1.5,1.7-2.3,3.2-2.3C532.5,125.9,532.9,126,533.2,126.1z"/>
	<path class="st0" d="M580.2,66.2c0-6,0.8-12,2.4-17.9c1.6-5.9,3.8-11.5,6.8-16.7s6.6-10,10.9-14.3c4.3-4.3,9.1-7.8,14.5-10.6
		c0.3-0.3,0.8-0.4,1.5-0.4c1.1,0,2,0.5,2.6,1.5c0.5,0.9,0.6,1.7,0.3,2.5c-0.3,0.8-0.9,1.4-1.6,1.8c-4.9,2.6-9.3,5.9-13.2,9.7
		c-3.9,3.8-7.2,8.1-9.8,12.8c-2.6,4.7-4.7,9.8-6,15.1c-1.4,5.4-2.1,10.8-2.1,16.3c0,7.7,1.4,15.1,4.1,22.4
		c2.7,7.2,6.5,13.6,11.3,19.2c4.8,5.5,10.6,10,17.4,13.3c6.7,3.3,14.1,5,22.2,5s15.4-1.7,22.1-5s12.4-7.8,17.3-13.4
		c4.8-5.6,8.6-12,11.3-19.2c2.7-7.2,4.1-14.6,4.1-22.3c0-7.4-1.3-14.6-3.8-21.6s-6-13.2-10.6-18.7c-4.5-5.5-10-10-16.3-13.5
		c-6.4-3.5-13.4-5.5-21.1-6v13.6c0,2-1,3-3,3c-5.8,0-11.1,1.2-15.9,3.6s-8.8,5.6-12.2,9.6c-3.3,4-5.9,8.6-7.7,13.8
		c-1.8,5.2-2.7,10.5-2.7,16.1c0,5.4,0.9,10.7,2.7,15.9c1.8,5.2,4.4,9.8,7.8,13.8s7.5,7.2,12.2,9.6s10,3.6,15.8,3.6
		s11.1-1.2,15.9-3.6s8.9-5.6,12.3-9.5c3.4-4,6-8.5,7.8-13.7s2.7-10.5,2.7-16.1c0-9.1-2.2-17.2-6.5-24.4
		c-4.3-7.2-10.2-12.4-17.7-15.7c-0.8-0.3-1.3-0.8-1.6-1.6c-0.3-0.8-0.3-1.6,0.1-2.4c0.4-1.3,1.3-1.9,2.8-1.9c0.5,0,0.9,0.1,1.1,0.2
		c4.3,1.9,8.1,4.4,11.5,7.5s6.3,6.6,8.8,10.6s4.3,8.3,5.7,12.9c1.3,4.7,2,9.6,2,14.7c0,6.4-1.1,12.6-3.3,18.5
		c-2.2,5.9-5.3,11.1-9.2,15.7c-3.9,4.5-8.6,8.2-14.2,10.9c-5.5,2.7-11.6,4.1-18.3,4.1c-6.7,0-12.7-1.4-18.2-4.2
		c-5.5-2.8-10.2-6.4-14.2-11c-4-4.5-7-9.8-9.2-15.7c-2.1-5.9-3.2-12-3.2-18.3c0-6,1-11.9,2.9-17.7c2-5.7,4.8-10.8,8.4-15.3
		c3.7-4.5,8-8.2,13.1-11.1c5.1-3,10.8-4.6,17.1-5V3.1c0-2,1.1-3,3.2-3c8.9,0,17.1,1.9,24.6,5.6c7.4,3.7,13.8,8.6,19.3,14.7
		c5.4,6.1,9.6,13.1,12.7,21.1c3,7.9,4.5,16.2,4.5,24.7c0,8.6-1.5,16.8-4.5,24.8s-7.2,15-12.7,21.2c-5.4,6.1-11.9,11-19.4,14.6
		c-7.5,3.7-15.6,5.5-24.5,5.5s-17.2-1.8-24.6-5.5c-7.5-3.7-13.9-8.5-19.4-14.6c-5.4-6.1-9.6-13.2-12.7-21.2
		C581.7,83.1,580.2,74.8,580.2,66.2z M622.9,4.3c0.4-1.5,1.4-2.3,3.2-2.3c0.5,0,0.9,0.1,1.1,0.2c0.9,0.3,1.5,0.8,1.9,1.7
		c0.4,0.9,0.4,1.8,0.2,2.6c-0.6,1.6-1.7,2.5-3.2,2.5c-1.5-0.5-2.5-1.2-3-2s-0.6-1.7-0.2-2.5V4.3z"/>
	<path class="st0" d="M715.8,133.5c-0.8-0.5-1.2-1.2-1.4-2.1c-0.2-0.9,0-1.6,0.5-2.3L764,51.9L734.7,5.6c-1.1-1.8-0.8-3.2,0.9-4.3
		c0.5-0.3,1-0.4,1.5-0.4c1.1,0,2,0.4,2.6,1.3l30.4,48c0.9,1,0.9,2.1,0,3.2l-50.2,78.9c-0.6,1-1.5,1.5-2.6,1.5
		C716.8,133.9,716.3,133.7,715.8,133.5z M747.1,56L715,5.6c-0.5-0.8-0.6-1.5-0.4-2.4c0.3-0.8,0.7-1.5,1.3-2c0.8-0.3,1.3-0.4,1.7-0.4
		c1.1,0,2,0.4,2.6,1.3l32.1,50.4c0.9,1.8,0.6,3.2-0.9,4.3c-0.5,0.4-1.1,0.6-1.7,0.6C748.7,57.6,747.8,57,747.1,56z M742.6,125.2
		c-0.5,0-1.1-0.2-1.7-0.6c-0.6-0.5-1.1-1.2-1.3-2c-0.3-0.8-0.1-1.6,0.4-2.4l14.9-23.4c0.8-0.9,1.6-1.3,2.6-1.3
		c0.8,0,1.3,0.1,1.7,0.4c1.8,1.1,2.1,2.6,0.9,4.3l-14.9,23.4C744.6,124.7,743.7,125.2,742.6,125.2z M764.9,84.6
		c-0.6-1-0.6-2.1,0-3.4l50.2-78.9c0.6-0.9,1.5-1.3,2.6-1.3c0.4,0,0.9,0.1,1.7,0.4c0.6,0.5,1.1,1.2,1.3,2c0.3,0.8,0.1,1.6-0.4,2.4
		L771,83l23.6,37.2c1.1,1.8,0.8,3.2-0.9,4.3c-0.5,0.3-1,0.4-1.5,0.4c-1.3,0-2.1-0.4-2.6-1.3L764.9,84.6z M775.9,38.9
		c-0.6-0.5-1.1-1.2-1.3-2c-0.3-0.8-0.1-1.6,0.4-2.4l14.9-23.2c0.6-1,1.5-1.5,2.6-1.5c0.6,0,1.1,0.2,1.5,0.6c1.8,1.1,2.1,2.6,0.9,4.3
		l-14.7,23.2c-0.5,0.9-1.4,1.3-2.6,1.3C776.8,39.2,776.2,39.1,775.9,38.9z M820,129.1c0.5,0.6,0.7,1.4,0.5,2.3s-0.7,1.6-1.4,2.1
		c-0.5,0.3-1.1,0.4-1.7,0.4c-1,0-1.9-0.5-2.6-1.5l-31.9-50.2c-1.1-1.8-0.8-3.2,0.9-4.3c0.6-0.4,1.2-0.6,1.7-0.6c1.1,0,2,0.5,2.6,1.5
		L820,129.1z M794.7,2.8c0.4-1.5,1.4-2.3,3.2-2.3c0.5,0,0.9,0.1,1.1,0.2c0.9,0.3,1.5,0.8,1.9,1.6c0.4,0.8,0.4,1.7,0.2,2.7
		c-0.5,1.5-1.6,2.3-3.2,2.3c-1.4-0.4-2.3-1-2.8-1.8s-0.6-1.7-0.4-2.5L794.7,2.8L794.7,2.8z"/>
</g>
</svg>
