<?xml version="1.0" encoding="utf-8"?>
<!-- Generator: Adobe Illustrator 25.3.1, SVG Export Plug-In . SVG Version: 6.00 Build 0)  -->
<!DOCTYPE svg PUBLIC "-//W3C//DTD SVG 1.1//EN" "http://www.w3.org/Graphics/SVG/1.1/DTD/svg11.dtd" [
	<!ENTITY ns_extend "http://ns.adobe.com/Extensibility/1.0/">
	<!ENTITY ns_ai "http://ns.adobe.com/AdobeIllustrator/10.0/">
	<!ENTITY ns_graphs "http://ns.adobe.com/Graphs/1.0/">
	<!ENTITY ns_vars "http://ns.adobe.com/Variables/1.0/">
	<!ENTITY ns_imrep "http://ns.adobe.com/ImageReplacement/1.0/">
	<!ENTITY ns_sfw "http://ns.adobe.com/SaveForWeb/1.0/">
	<!ENTITY ns_custom "http://ns.adobe.com/GenericCustomNamespace/1.0/">
	<!ENTITY ns_adobe_xpath "http://ns.adobe.com/XPath/1.0/">
]>
<svg version="1.1" id="Слой_1" xmlns:x="&ns_extend;" xmlns:i="&ns_ai;" xmlns:graph="&ns_graphs;"
	 xmlns="http://www.w3.org/2000/svg" xmlns:xlink="http://www.w3.org/1999/xlink" x="0px" y="0px" viewBox="0 0 247.4 571.9"
	 style="enable-background:new 0 0 247.4 571.9;" xml:space="preserve">
<style type="text/css">
	.st0{fill:#FF9200;}
</style>
<metadata>
	<sfw  xmlns="&ns_sfw;">
		<slices></slices>
		<sliceSourceBounds  bottomLeftOrigin="true" height="1650.3" width="1366" x="-2.1" y="-267.3"></sliceSourceBounds>
	</sfw>
</metadata>
<g id="Слой_2_1_">
</g>
<g id="Слой_4">
</g>
<g id="Слой_3">
	<g>
		<path class="st0" d="M520.6,755.4c-0.2-0.2-0.2-0.3-0.2-0.3c-0.2-0.4-0.3-1.1-0.5-1.9l-0.4-3.5c-0.1-2.8-0.2-6.2-0.2-9.7v-1.7
			c0-6.4,0.3-12.8,1-14.7c0.2-0.3,0.7-0.3,1.2,0.1c0.4,0.3,0.8,0.9,0.6,1.2c-0.6,1.9-0.9,9-0.9,16.1c0,3.5,0.1,7,0.3,9.7
			c0.9-2.2,4.4-6.7,6.8-6.3c0.5,0.1,1.1,0.3,1.6,0.8l0.3,0.2c1.1,1,1.5,2.3,1.5,3.6c0,0.8-0.2,1.6-0.4,2.2l-0.4,0.9
			c2.6-0.4,7-2.9,8.9-4.5c0.5-0.5,0.2,1.1-0.3,1.8c-2,2.7-5.8,4.8-10.6,4.8h-0.4l-0.2,0.1c-0.9,0.2-4,0-5.2-0.8l-0.1-0.1l-0.2,0.5
			l-0.3,1.5c0.1,0.4-0.1,0.6-0.1,0.8c-0.1,0-0.1,0.1-0.2,0.2c-0.1,0-0.3,0.2-0.9-0.1C520.9,755.8,520.6,755.4,520.6,755.4z
			 M525,752.4c2.5,0,4.6-2.2,4.6-4.8c0-0.8-0.2-1.3-0.5-1.6l-0.2-0.2h-0.1c-1.8,0.6-3.2,2.8-5.6,6.2l0.1,0.1
			C523.9,752.3,524.5,752.4,525,752.4z"/>
		<path class="st0" d="M550,750.3c-1.6,2.1-4,4.3-5.8,4.3s-3.5-1.3-4.2-3.1c-0.3-0.8-0.5-1.7-0.5-2.6c0-0.8,0.1-1.5,0.4-2.2
			c0.2-0.6,0.5-1.1,1.1-1.3c0.3-0.1,0.9,0.1,1.3,0.5s0.4,0.9,0.2,1c-0.2,0.1-0.5,0.4-0.8,0.9c-0.1,0.5-0.3,1.2-0.3,2
			c0.1,0.9,0.2,2.4,1.1,3c2.3,1.3,7-5,7.1-6.8c0-0.1,0.1-0.2,0.2-0.2c-0.1-0.1-0.1-0.1,0-0.1c0.1-0.1,0.3-0.2,0.5-0.2
			c0.5,0,1.5,0.6,1.5,1.2c0.1,0.1,0.3,2.3,0.4,5.5v0.2l0.1-0.1c1.5-0.9,8.3-4.2,9.6-3.1c0.5,0.4,0.4,0.5,0,0.6
			c-2.2,0.6-5.7,2.6-8,3.9l-1.6,1.1l-0.1,0.6l-0.2,5c-0.4,6.8-1.9,14.2-6.6,15.2c-1.4,0.3-3.5-0.6-5-2.1s-2.3-3.5-2.1-5.4
			c0.8-4.2,5.1-9.6,10.6-13.6l1.3-1L550,750.3z M550.2,756.3l-1.2,1.1c-4.4,4-8,8.4-8.6,12c-0.3,1.7,0.5,3,1.1,3.8
			c0.8,0.8,1.8,1.2,2.5,1C548.1,773.4,550.3,763.9,550.2,756.3z"/>
		<path class="st0" d="M583.9,748.8c0.2,0.7,0.3,1.5,0.1,2.3c-0.5,2.7-2.7,4-5.2,3.9c-2-0.1-3.3-1.8-3.6-3.3c-0.4-2.3,1-4.9,2.3-5.3
			c0.1,0,0.2-0.1,0.3-0.1c0.2-0.8,0.6-1.4,1.7-1.3c1.5,0.2,2.6,0.9,3.5,1.9c1.4,0.2,2.8,0.2,4,0.2c2.5,0,4.6-0.2,5.1-0.2
			c1.6-0.1,1.2,0.6-0.1,1.1C590.7,748.5,587.2,749,583.9,748.8z M577.1,751.6c0.3,1.6,0.9,2.2,1.9,2.1c2.4-0.1,3.6-3.2,2.7-5.1
			c-1.2-0.2-2.3-0.5-3-1l-0.1,0.1C577.9,748.2,576.8,750.1,577.1,751.6z"/>
		<path class="st0" d="M592.7,755.5c-1-1.6-1.4-5.5-1.4-9.9c0-9,1.5-20.6,2.2-22.8c0.1-0.3,0.4-0.4,0.9-0.2c0.5,0.3,1,0.7,1,1
			c-0.3,1-1.9,14-1.9,23.3c0,4.8,0.4,8.6,1.6,9.5c2.8,1.7,9.3-7.1,10.2-8.1c0.5-0.8,0.6,0.6,0.4,1.2c-1,2.7-5.3,8.5-8.7,8.5
			C595.3,757.9,593.8,757,592.7,755.5z"/>
		<path class="st0" d="M612.7,748.8c0.2,0.7,0.3,1.5,0.1,2.3c-0.5,2.7-2.7,4-5.2,3.9c-2-0.1-3.3-1.8-3.6-3.3c-0.4-2.3,1-4.9,2.3-5.3
			c0.1,0,0.2-0.1,0.3-0.1c0.2-0.8,0.6-1.4,1.7-1.3c1.5,0.2,2.6,0.9,3.5,1.9c1.4,0.2,2.8,0.2,4,0.2c2.5,0,4.6-0.2,5.1-0.2
			c1.6-0.1,1.2,0.6-0.1,1.1C619.5,748.5,616,749,612.7,748.8z M605.9,751.6c0.3,1.6,0.9,2.2,1.9,2.1c2.4-0.1,3.6-3.2,2.7-5.1
			c-1.2-0.2-2.3-0.5-3-1l-0.1,0.1C606.7,748.2,605.7,750.1,605.9,751.6z"/>
		<path class="st0" d="M632.7,754.5c-2.7,0-6-1-8-3.5c-1.2,1.5-1.8,4.2-1.9,6.7c0,0.8-1.5,0.1-1.8-0.8c-0.1-1.9-0.2-3.9-0.2-5.9
			c0-9.6,0.5-19.9,0.6-26.6c0-0.3,0.5-0.5,1-0.3c0.6,0.2,1.1,0.6,1.1,0.9c-0.2,7-0.3,14.7-0.8,24.9c1.7-2.9,4.1-6.4,7.2-6.7
			c1.2-0.1,1.9,0.8,2.2,1.4c0.8,2-3,5.1-5.6,5.8c0.9,1.1,3.7,2.3,5.9,2.1c3.9-0.3,8.5-3.4,10.7-5.2c0.7-0.6,0.1,1.7-0.9,2.6
			C641.3,750.9,637.9,754.5,632.7,754.5z M625.6,749.4c1.3-0.1,5-3.2,4.6-4.6C629.5,744.5,627.7,746,625.6,749.4z"/>
		<path class="st0" d="M643,745.4c0-0.4,0.5-0.4,1.1-0.1c0.5,0.3,0.8,0.8,0.8,1.1l-0.1,2.1c1.3-1.7,5.3-4.9,8.3-4.4
			c1.2,0.2,2,1.4,1.6,1.8c-0.8,0.9-1.5,0.5-1.5,0.1l0.1-0.4c-2.7-0.1-7.2,3.2-8.5,7c-0.2,0.4-0.2,0.8-0.4,2.3c0.1,0.7-1.7,0-1.9-0.8
			C642.4,753.6,642.3,752.2,643,745.4z"/>
		<path class="st0" d="M656.5,751.5c-0.2-0.5-0.3-1-0.3-1.6c0-2.4,1.6-4.8,4.3-4.9c1.7,0,3.2,1.6,2.6,3.2c-0.7,1.7-3,3-4.9,3
			c0.2,1,2.1,2.8,3.9,2.8c5.1,0,8.9-3.8,11.1-6.2c1.2-1.3,1-0.1,0.3,1.5c-1.5,3.1-5,5.8-8.7,6C661.7,755.4,657.6,754.8,656.5,751.5z
			 M658.2,749.9c2.3-1,3.8-2.5,3.2-3.1C660.2,745.7,658.1,748.6,658.2,749.9z"/>
		<path class="st0" d="M671.4,750.7c0-1.2,0.6-2.4,1.9-3.3c1.5-1,3.3-1.5,5.2-1.5c1.5,0,3,0.3,4.4,0.9h0.1l0.9-1.2
			c0.3-0.6,2.2,0.6,1.8,1.2c-0.3,0.8-0.8,1.8-0.9,2.8c-0.1,0.9,0.2,2,1.2,2.3c2.8,0.5,7.4-2.2,9.3-4.4c0.9-0.9,1.7,0.4-1.2,3.4
			c-1.3,1.3-5.1,3.1-7.3,2.5c-1.8-0.4-3.1-1.5-3.8-3.4c-1.5,1.3-5.1,4.1-7.9,4.1c-0.7,0-1.3-0.2-1.9-0.5
			C672,752.8,671.4,751.8,671.4,750.7z M682,747.9c-0.5-0.2-1.3-0.3-2.1-0.3c-2.7,0-6.3,1-6.9,3.5c-0.2,0.6,0.2,1.2,1,1.3
			C676.6,752.1,680.1,749.9,682,747.9z"/>
		<path class="st0" d="M695.4,754.5c-0.1,0-0.2,0-0.3-0.1c-0.1,0-0.4-0.2-0.7-0.6c-0.2-0.5-0.1-0.8,0-0.9c0-0.1,0.1-0.1,0.2-0.1
			l0.1-0.1c2.2-1.3,5.2-2.9,7.5-4.8l0.3-0.3l-2.4,0.3c-1.7,0.2-3.4,0.4-5,0.4c-0.4,0-0.8-0.3-1-0.8s-0.1-0.9,0.3-0.9
			c3.2-0.1,6.6-0.6,10.1-1c0.8-0.1,1.6,0.9,1.2,1.4c-1.7,2.1-4.4,3.9-6.9,5.3l-0.1,0.1h0.5c0.9-0.1,1.8-0.1,2.8-0.1
			c1.5,0,2.9,0.1,4.2,0.3c0.5,0.1,0.9,0.5,1,1c0.1,0.4-0.2,0.7-0.7,0.6c-1.1-0.3-2.7-0.4-4.1-0.4c-0.9,0-1.7,0.1-2.5,0.1l-3,0.2
			c-0.4,0.1-0.6,0.1-1,0.1h-0.5V754.5z"/>
	</g>
</g>
<g>
	<path class="st0" d="M241.9,257.6c3.7,0,5.5-1.7,5.5-5.1V67.3c0-3.4-1.8-5.1-5.5-5.1c-3.9,0-5.9,1.7-5.9,5.1v179.8h-92.2
		c-1.8,0-3.3,0.5-4.3,1.6s-1.6,2.3-1.6,3.8c0,3.4,2,5.1,5.9,5.1H241.9z M216.2,96.1c0-3.4-1.8-5.1-5.5-5.1c-1.6,0-3,0.5-4.2,1.4
		c-1.2,1-1.7,2.2-1.7,3.7v130.8c0,1.5,0.6,2.7,1.7,3.7c1.2,1,2.5,1.4,4.2,1.4c3.7,0,5.5-1.7,5.5-5.1V96.1z M215.9,280
		c0-1.5-0.6-2.7-1.7-3.7c-1.2-1-2.5-1.4-4.2-1.4h-85.3c-3.7,0-5.5,1.7-5.5,5.1c0,1.5,0.5,2.8,1.6,3.8c1,1.1,2.4,1.6,4,1.6h85.3
		c1.6,0,3-0.5,4.2-1.6C215.3,282.8,215.9,281.5,215.9,280z M124.4,258.3c2.5-0.6,4.3-1.7,5.2-3.2s1.2-3,0.7-4.5v-0.3
		c-1.2-2.6-3.1-3.8-5.9-3.8c-0.5,0-0.8,0.1-1,0.2s-0.6,0.2-1,0.2c-1.8,0.4-3.1,1.4-3.8,2.9s-0.7,3,0,4.5v0.3
		C119.2,257,121.1,258.3,124.4,258.3z"/>
	<path class="st0" d="M6.6,257.6c-3.7,0-5.5-1.7-5.5-5.1V67.3c0-3.4,1.8-5.1,5.5-5.1c3.9,0,5.9,1.7,5.9,5.1v179.8h92.2
		c1.8,0,3.3,0.5,4.3,1.6s1.6,2.3,1.6,3.8c0,3.4-2,5.1-5.9,5.1H6.6z M32.2,96.1c0-3.4,1.8-5.1,5.5-5.1c1.6,0,3,0.5,4.2,1.4
		c1.2,1,1.7,2.2,1.7,3.7v130.8c0,1.5-0.6,2.7-1.7,3.7c-1.2,1-2.5,1.4-4.2,1.4c-3.7,0-5.5-1.7-5.5-5.1V96.1z M32.6,280
		c0-1.5,0.6-2.7,1.7-3.7c1.2-1,2.5-1.4,4.2-1.4h85.3c3.7,0,5.5,1.7,5.5,5.1c0,1.5-0.5,2.8-1.6,3.8c-1,1.1-2.4,1.6-4,1.6H38.4
		c-1.6,0-3-0.5-4.2-1.6C33.2,282.8,32.6,281.5,32.6,280z M124.1,258.3c-2.5-0.6-4.3-1.7-5.2-3.2s-1.2-3-0.7-4.5v-0.3
		c1.2-2.6,3.1-3.8,5.9-3.8c0.5,0,0.8,0.1,1,0.2s0.6,0.2,1,0.2c1.8,0.4,3.1,1.4,3.8,2.9s0.7,3,0,4.5v0.3
		C129.3,257,127.3,258.3,124.1,258.3z"/>
	<path class="st0" d="M116.1,225.2V124.1h26c1.6,0,2.9-0.5,4-1.6c1-1.1,1.6-2.3,1.6-3.8V37.1c0-3.6-1.9-5.4-5.5-5.4
		c-1.6,0-3,0.5-4.2,1.4c-1.2,1-1.7,2.3-1.7,4v76.4h-25.7c-1.6,0-3,0.5-4.2,1.4c-1.2,1-1.7,2.2-1.7,3.7V220H41.6
		c-3.9,0-5.9,1.7-5.9,5.1c0,3.6,2,5.4,5.9,5.4h69C114.3,230.6,116.1,228.8,116.1,225.2z M83.9,202.5c1.6,0,2.9-0.5,4-1.6
		c1-1.1,1.6-2.3,1.6-3.8c0-3.4-1.9-5.1-5.5-5.1H41.6c-3.9,0-5.9,1.7-5.9,5.1c0,1.5,0.5,2.8,1.6,3.8c1,1.1,2.5,1.6,4.3,1.6H83.9z
		 M116.5,12.5c0-3.4-1.9-5.1-5.5-5.1c-1.6,0-3,0.5-4.2,1.4c-1.2,1-1.7,2.2-1.7,3.7v77.1c0,1.7,0.6,3,1.7,4c1.2,1,2.5,1.4,4.2,1.4
		c3.7,0,5.5-1.8,5.5-5.4V12.5z M142.1,230.6h45.1c3.7,0,5.5-1.8,5.5-5.4c0-3.4-1.9-5.1-5.5-5.1h-45.1c-1.6,0-3,0.5-4.2,1.4
		c-1.2,1-1.7,2.2-1.7,3.7c0,1.7,0.6,3,1.7,4C139.1,230.1,140.5,230.6,142.1,230.6z M136.2,147.1V197c0,1.5,0.6,2.8,1.7,3.8
		c1.2,1.1,2.5,1.6,4.2,1.6h64.1c1.8,0,3.3-0.5,4.3-1.6s1.6-2.3,1.6-3.8c0-3.4-2-5.1-5.9-5.1h-58.6v-44.8c0-3.4-1.9-5.1-5.5-5.1
		c-1.6,0-3,0.5-4.2,1.4C136.8,144.4,136.2,145.6,136.2,147.1z M208.3,230.9c1.8-0.4,3.1-1.4,3.8-2.9c0.7-1.5,0.8-3,0.3-4.5h-0.3
		c-0.7-2.8-2.7-4.2-5.9-4.2c-2.5,0.8-4.3,2-5.2,3.4c-0.9,1.4-1.2,2.8-0.7,4.3l0.3,0.3c0.7,2.6,2.7,3.8,5.9,3.8
		C207.5,231.3,208.1,231.2,208.3,230.9z"/>
	<path class="st0" d="M241.9,321.6c3.7,0,5.5,1.7,5.5,5.1V512c0,3.4-1.8,5.1-5.5,5.1c-3.9,0-5.9-1.7-5.9-5.1V332.2h-92.2
		c-1.8,0-3.3-0.5-4.3-1.6s-1.6-2.3-1.6-3.8c0-3.4,2-5.1,5.9-5.1h98.1V321.6z M216.2,483.2c0,3.4-1.8,5.1-5.5,5.1
		c-1.6,0-3-0.5-4.2-1.4c-1.2-1-1.7-2.2-1.7-3.7V352.3c0-1.5,0.6-2.7,1.7-3.7c1.2-1,2.5-1.4,4.2-1.4c3.7,0,5.5,1.7,5.5,5.1V483.2z
		 M215.9,299.3c0,1.5-0.6,2.7-1.7,3.7c-1.2,1-2.5,1.4-4.2,1.4h-85.3c-3.7,0-5.5-1.7-5.5-5.1c0-1.5,0.5-2.8,1.6-3.8
		c1-1.1,2.4-1.6,4-1.6h85.3c1.6,0,3,0.5,4.2,1.6C215.3,296.5,215.9,297.8,215.9,299.3z M124.4,321c2.5,0.6,4.3,1.7,5.2,3.2
		s1.2,3,0.7,4.5v0.3c-1.2,2.6-3.1,3.8-5.9,3.8c-0.5,0-0.8-0.1-1-0.2s-0.6-0.2-1-0.2c-1.8-0.4-3.1-1.4-3.8-2.9s-0.7-3,0-4.5v-0.3
		C119.2,322.3,121.1,321,124.4,321z"/>
	<path class="st0" d="M6.6,321.6c-3.7,0-5.5,1.7-5.5,5.1V512c0,3.4,1.8,5.1,5.5,5.1c3.9,0,5.9-1.7,5.9-5.1V332.2h92.2
		c1.8,0,3.3-0.5,4.3-1.6s1.6-2.3,1.6-3.8c0-3.4-2-5.1-5.9-5.1H6.6V321.6z M32.2,483.2c0,3.4,1.8,5.1,5.5,5.1c1.6,0,3-0.5,4.2-1.4
		c1.2-1,1.7-2.2,1.7-3.7V352.3c0-1.5-0.6-2.7-1.7-3.7c-1.2-1-2.5-1.4-4.2-1.4c-3.7,0-5.5,1.7-5.5,5.1V483.2z M32.6,299.3
		c0,1.5,0.6,2.7,1.7,3.7c1.2,1,2.5,1.4,4.2,1.4h85.3c3.7,0,5.5-1.7,5.5-5.1c0-1.5-0.5-2.8-1.6-3.8c-1-1.1-2.4-1.6-4-1.6H38.4
		c-1.6,0-3,0.5-4.2,1.6C33.2,296.5,32.6,297.8,32.6,299.3z M124.1,321c-2.5,0.6-4.3,1.7-5.2,3.2s-1.2,3-0.7,4.5v0.3
		c1.2,2.6,3.1,3.8,5.9,3.8c0.5,0,0.8-0.1,1-0.2s0.6-0.2,1-0.2c1.8-0.4,3.1-1.4,3.8-2.9s0.7-3,0-4.5v-0.3
		C129.3,322.3,127.3,321,124.1,321z"/>
	<path class="st0" d="M116.1,354.1v101.1h26c1.6,0,2.9,0.5,4,1.6c1,1.1,1.6,2.3,1.6,3.8v81.6c0,3.6-1.9,5.4-5.5,5.4
		c-1.6,0-3-0.5-4.2-1.4c-1.2-1-1.7-2.3-1.7-4v-76.4h-25.7c-1.6,0-3-0.5-4.2-1.4c-1.2-1-1.7-2.2-1.7-3.7V359.2H41.6
		c-3.9,0-5.9-1.7-5.9-5.1c0-3.6,2-5.4,5.9-5.4h69C114.3,348.7,116.1,350.5,116.1,354.1z M83.9,376.8c1.6,0,2.9,0.5,4,1.6
		c1,1.1,1.6,2.3,1.6,3.8c0,3.4-1.9,5.1-5.5,5.1H41.6c-3.9,0-5.9-1.7-5.9-5.1c0-1.5,0.5-2.8,1.6-3.8c1-1.1,2.5-1.6,4.3-1.6H83.9z
		 M116.5,566.8c0,3.4-1.9,5.1-5.5,5.1c-1.6,0-3-0.5-4.2-1.4c-1.2-1-1.7-2.2-1.7-3.7v-77.1c0-1.7,0.6-3,1.7-4c1.2-1,2.5-1.4,4.2-1.4
		c3.7,0,5.5,1.8,5.5,5.4V566.8z M142.1,348.7h45.1c3.7,0,5.5,1.8,5.5,5.4c0,3.4-1.9,5.1-5.5,5.1h-45.1c-1.6,0-3-0.5-4.2-1.4
		c-1.2-1-1.7-2.2-1.7-3.7c0-1.7,0.6-3,1.7-4C139.1,349.1,140.5,348.7,142.1,348.7z M136.2,432.2v-49.9c0-1.5,0.6-2.8,1.7-3.8
		c1.2-1.1,2.5-1.6,4.2-1.6h64.1c1.8,0,3.3,0.5,4.3,1.6s1.6,2.3,1.6,3.8c0,3.4-2,5.1-5.9,5.1h-58.6v44.8c0,3.4-1.9,5.1-5.5,5.1
		c-1.6,0-3-0.5-4.2-1.4C136.8,434.9,136.2,433.6,136.2,432.2z M208.3,348.3c1.8,0.4,3.1,1.4,3.8,2.9c0.7,1.5,0.8,3,0.3,4.5h-0.3
		c-0.7,2.8-2.7,4.2-5.9,4.2c-2.5-0.8-4.3-2-5.2-3.4c-0.9-1.4-1.2-2.8-0.7-4.3l0.3-0.3c0.7-2.6,2.7-3.8,5.9-3.8
		C207.5,348,208.1,348.1,208.3,348.3z"/>
</g>
<g>
	<path class="st0" d="M-346.4,891.6c0-6,0.8-12,2.4-17.9c1.6-5.9,3.8-11.5,6.8-16.7c3-5.2,6.6-10,10.9-14.3
		c4.3-4.3,9.1-7.8,14.5-10.6c0.3-0.3,0.8-0.4,1.5-0.4c1.1,0,2,0.5,2.6,1.5c0.5,0.9,0.6,1.7,0.3,2.5c-0.3,0.8-0.9,1.4-1.6,1.8
		c-4.9,2.6-9.3,5.9-13.2,9.7c-3.9,3.8-7.2,8.1-9.8,12.8c-2.6,4.7-4.7,9.8-6,15.1c-1.4,5.4-2.1,10.8-2.1,16.3
		c0,7.7,1.4,15.1,4.1,22.4c2.7,7.2,6.5,13.6,11.3,19.2c4.8,5.5,10.6,10,17.4,13.3c6.7,3.3,14.1,5,22.2,5c8.1,0,15.4-1.7,22.1-5
		c6.7-3.3,12.4-7.8,17.3-13.4c4.8-5.6,8.6-12,11.3-19.2c2.7-7.2,4.1-14.6,4.1-22.3c0-7.4-1.3-14.6-3.8-21.6c-2.5-7-6-13.2-10.6-18.7
		c-4.5-5.5-10-10-16.3-13.5c-6.4-3.5-13.4-5.5-21.1-6v13.4c0,2-1,3-3,3c-5.8,0-11.1,1.2-15.9,3.6c-4.8,2.4-8.8,5.6-12.2,9.6
		c-3.3,4-5.9,8.6-7.7,13.8c-1.8,5.2-2.7,10.5-2.7,16.1c0,5.4,0.9,10.7,2.7,15.9c1.8,5.2,4.4,9.8,7.8,13.8c3.4,4,7.5,7.2,12.2,9.6
		c4.7,2.4,10,3.6,15.8,3.6c5.8,0,11.1-1.2,15.9-3.6c4.8-2.4,8.9-5.6,12.3-9.5c3.4-4,6-8.5,7.8-13.7c1.8-5.2,2.7-10.5,2.7-16.1
		c0-9.1-2.2-17.2-6.5-24.4s-10.2-12.4-17.7-15.7c-0.8-0.3-1.3-0.8-1.6-1.6c-0.3-0.8-0.3-1.6,0.1-2.4c0.4-1.3,1.3-1.9,2.8-1.9
		c0.5,0,0.9,0.1,1.1,0.2c4.3,1.9,8.1,4.4,11.5,7.5c3.4,3.1,6.3,6.6,8.8,10.6c2.5,4,4.3,8.3,5.7,12.9c1.3,4.7,2,9.6,2,14.7
		c0,6.4-1.1,12.6-3.3,18.5c-2.2,5.9-5.3,11.1-9.2,15.7c-3.9,4.5-8.6,8.2-14.2,10.9c-5.5,2.7-11.6,4.1-18.3,4.1
		c-6.7,0-12.7-1.4-18.2-4.2c-5.5-2.8-10.2-6.4-14.2-11c-4-4.5-7-9.8-9.2-15.7c-2.1-5.9-3.2-12-3.2-18.3c0-6,1-11.9,2.9-17.7
		c2-5.7,4.8-10.8,8.4-15.3c3.7-4.5,8-8.2,13.1-11.1c5.1-3,10.8-4.6,17.1-5v-13.6c0-2,1.1-3,3.2-3c8.9,0,17.1,1.9,24.6,5.6
		c7.4,3.7,13.8,8.6,19.3,14.7c5.4,6.1,9.6,13.1,12.7,21.1c3,7.9,4.5,16.2,4.5,24.7c0,8.6-1.5,16.8-4.5,24.8c-3,8-7.2,15-12.7,21.2
		c-5.4,6.1-11.9,11-19.4,14.6c-7.5,3.7-15.6,5.5-24.5,5.5c-8.9,0-17.2-1.8-24.6-5.5c-7.5-3.7-13.9-8.5-19.4-14.6
		c-5.4-6.1-9.6-13.2-12.7-21.2C-344.9,908.5-346.4,900.2-346.4,891.6z M-303.7,829.7c0.4-1.5,1.4-2.3,3.2-2.3c0.5,0,0.9,0.1,1.1,0.2
		c0.9,0.3,1.5,0.8,1.9,1.7c0.4,0.9,0.4,1.8,0.2,2.6c-0.6,1.6-1.7,2.5-3.2,2.5c-1.5-0.5-2.5-1.2-3-2c-0.5-0.8-0.6-1.7-0.2-2.5V829.7z
		"/>
	<path class="st0" d="M-205.5,940.8c-2,0-3-1-3-3V828.4c0-2,1-3,3-3c2.1,0,3.2,1,3.2,3v106.1h50.2c1,0,1.8,0.3,2.4,0.9
		c0.6,0.6,0.8,1.4,0.8,2.3c0,2-1.1,3-3.2,3H-205.5z M-191.5,845.4c0-2,1-3,3-3c0.9,0,1.6,0.3,2.3,0.9c0.6,0.6,0.9,1.3,0.9,2.2v77.2
		c0,0.9-0.3,1.6-0.9,2.2c-0.6,0.6-1.4,0.9-2.3,0.9c-2,0-3-1-3-3V845.4z M-191.3,954c0-0.9,0.3-1.6,0.9-2.2c0.6-0.6,1.4-0.9,2.3-0.9
		h46.5c2,0,3,1,3,3c0,0.9-0.3,1.6-0.9,2.3c-0.6,0.6-1.3,0.9-2.2,0.9h-46.5c-0.9,0-1.6-0.3-2.3-0.9C-191,955.6-191.3,954.9-191.3,954
		z M-141.5,941.1c-1.4-0.4-2.3-1-2.8-1.9c-0.5-0.9-0.6-1.8-0.4-2.6v-0.2c0.6-1.5,1.7-2.3,3.2-2.3c0.3,0,0.4,0,0.6,0.1
		c0.1,0.1,0.3,0.1,0.6,0.1c1,0.3,1.7,0.8,2.1,1.7c0.4,0.9,0.4,1.8,0,2.6v0.2C-138.6,940.4-139.7,941.1-141.5,941.1z"/>
	<path class="st0" d="M-122.2,891.6c0-6,0.8-12,2.4-17.9c1.6-5.9,3.8-11.5,6.8-16.7c3-5.2,6.6-10,10.9-14.3
		c4.3-4.3,9.1-7.8,14.5-10.6c0.3-0.3,0.8-0.4,1.5-0.4c1.1,0,2,0.5,2.6,1.5c0.5,0.9,0.6,1.7,0.3,2.5c-0.3,0.8-0.9,1.4-1.6,1.8
		c-4.9,2.6-9.3,5.9-13.2,9.7c-3.9,3.8-7.2,8.1-9.8,12.8c-2.6,4.7-4.7,9.8-6,15.1c-1.4,5.4-2.1,10.8-2.1,16.3
		c0,7.7,1.4,15.1,4.1,22.4c2.7,7.2,6.5,13.6,11.3,19.2c4.8,5.5,10.6,10,17.4,13.3c6.7,3.3,14.1,5,22.2,5c8.1,0,15.4-1.7,22.1-5
		c6.7-3.3,12.4-7.8,17.3-13.4c4.8-5.6,8.6-12,11.3-19.2c2.7-7.2,4.1-14.6,4.1-22.3c0-7.4-1.3-14.6-3.8-21.6c-2.5-7-6-13.2-10.6-18.7
		c-4.5-5.5-10-10-16.3-13.5c-6.4-3.5-13.4-5.5-21.1-6v13.4c0,2-1,3-3,3c-5.8,0-11.1,1.2-15.9,3.6c-4.8,2.4-8.8,5.6-12.2,9.6
		c-3.3,4-5.9,8.6-7.7,13.8c-1.8,5.2-2.7,10.5-2.7,16.1c0,5.4,0.9,10.7,2.7,15.9c1.8,5.2,4.4,9.8,7.8,13.8c3.4,4,7.5,7.2,12.2,9.6
		c4.7,2.4,10,3.6,15.8,3.6c5.8,0,11.1-1.2,15.9-3.6c4.8-2.4,8.9-5.6,12.3-9.5c3.4-4,6-8.5,7.8-13.7c1.8-5.2,2.7-10.5,2.7-16.1
		c0-9.1-2.2-17.2-6.5-24.4s-10.2-12.4-17.7-15.7c-0.8-0.3-1.3-0.8-1.6-1.6c-0.3-0.8-0.3-1.6,0.1-2.4c0.4-1.3,1.3-1.9,2.8-1.9
		c0.5,0,0.9,0.1,1.1,0.2c4.3,1.9,8.1,4.4,11.5,7.5c3.4,3.1,6.3,6.6,8.8,10.6c2.5,4,4.3,8.3,5.7,12.9c1.3,4.7,2,9.6,2,14.7
		c0,6.4-1.1,12.6-3.3,18.5c-2.2,5.9-5.3,11.1-9.2,15.7c-3.9,4.5-8.6,8.2-14.2,10.9c-5.5,2.7-11.6,4.1-18.3,4.1
		c-6.7,0-12.7-1.4-18.2-4.2c-5.5-2.8-10.2-6.4-14.2-11c-4-4.5-7-9.8-9.2-15.7c-2.1-5.9-3.2-12-3.2-18.3c0-6,1-11.9,2.9-17.7
		c2-5.7,4.8-10.8,8.4-15.3c3.7-4.5,8-8.2,13.1-11.1c5.1-3,10.8-4.6,17.1-5v-13.6c0-2,1.1-3,3.2-3c8.9,0,17.1,1.9,24.6,5.6
		c7.4,3.7,13.8,8.6,19.3,14.7c5.4,6.1,9.6,13.1,12.7,21.1S0,883.1,0,891.6c0,8.6-1.5,16.8-4.5,24.8c-3,8-7.2,15-12.7,21.2
		c-5.4,6.1-11.9,11-19.4,14.6c-7.5,3.7-15.6,5.5-24.5,5.5c-8.9,0-17.2-1.8-24.6-5.5c-7.5-3.7-13.9-8.5-19.4-14.6
		c-5.4-6.1-9.6-13.2-12.7-21.2C-120.7,908.5-122.2,900.2-122.2,891.6z M-79.5,829.7c0.4-1.5,1.4-2.3,3.2-2.3c0.5,0,0.9,0.1,1.1,0.2
		c0.9,0.3,1.5,0.8,1.9,1.7c0.4,0.9,0.4,1.8,0.2,2.6c-0.6,1.6-1.7,2.5-3.2,2.5c-1.5-0.5-2.5-1.2-3-2c-0.5-0.8-0.6-1.7-0.2-2.5V829.7z
		"/>
	<path class="st0" d="M23.2,846.3c0-0.9,0.3-1.6,0.8-2.3c0.6-0.6,1.4-0.9,2.4-0.9H51c3.4,0,6.6,0.4,9.7,1.2c3.1,0.8,5.8,2.1,8,3.9
		c2.3,1.8,4.1,4,5.5,6.8c1.4,2.8,2.1,6,2.1,9.8c0,3.8-0.7,7.1-2,9.8c-1.3,2.8-3.1,5.1-5.5,7.1c-2.3,2-5,3.4-8.1,4.3
		c-3.1,0.9-6.3,1.4-9.7,1.4h-7.7c-2,0-3-1-3-3v-13.2c0-2,1-3,3-3c0.9,0,1.6,0.3,2.3,0.9c0.6,0.6,0.9,1.3,0.9,2.2v10H51
		c5.2,0,9.6-1.3,13.4-4c3.8-2.6,5.7-6.8,5.7-12.5c0-2.9-0.5-5.3-1.6-7.3c-1.1-2-2.5-3.6-4.2-4.8c-1.7-1.3-3.7-2.1-6-2.6
		c-2.3-0.5-4.8-0.8-7.3-0.8H29.5v106.5c0,0.9-0.3,1.6-0.9,2.3c-0.6,0.6-1.3,0.9-2.2,0.9c-1,0-1.8-0.3-2.4-0.9
		c-0.6-0.6-0.8-1.4-0.8-2.3V846.3z M43.2,944.5c-2,0-3-1-3-3v-40.6c0-2,1-3,3-3H58c1.6,0,4.1-0.4,7.3-1.3c3.2-0.9,6.5-2.6,9.7-5.1
		c7.7-6.3,11.5-15.6,11.5-28c0-4.4-0.6-8.5-1.9-12.3c-1.3-3.8-3.1-7-5.5-9.7c-2.4-2.7-5.4-4.8-9-6.4c-3.6-1.6-7.6-2.4-12.2-2.4H43.1
		c-0.9,0-1.6-0.3-2.3-0.9c-0.6-0.6-0.9-1.4-0.9-2.3c0-0.9,0.3-1.6,0.9-2.2c0.6-0.6,1.4-0.8,2.3-0.8H58c5.5,0,10.5,0.9,14.8,2.8
		c4.3,1.9,8,4.5,11,7.8c3,3.3,5.2,7.3,6.7,11.8c1.5,4.5,2.3,9.4,2.3,14.5c0,6.2-1.1,12.2-3.2,18c-2.1,5.9-5.7,10.7-10.8,14.6
		c-3.7,2.9-7.4,4.9-11.2,6.1c-3.8,1.2-7,1.8-9.5,1.8H46.5v37.4c0,0.9-0.3,1.6-0.9,2.2C44.9,944.2,44.1,944.5,43.2,944.5z
		 M42.3,863.9c-1-0.3-1.7-0.8-2.1-1.6c-0.4-0.8-0.4-1.7-0.2-2.6v-0.2c0.6-1.5,1.8-2.3,3.4-2.3c0.4,0,0.7,0.1,0.9,0.2
		c1,0.3,1.7,0.8,2.1,1.6c0.4,0.8,0.4,1.7,0.2,2.7h-0.2c-0.4,1.5-1.4,2.3-3.2,2.3L42.3,863.9z"/>
	<path class="st0" d="M130.5,848v106.9c0,2.1-1,3.2-3,3.2c-2.1,0-3.2-1.1-3.2-3.2V845c0-0.9,0.3-1.6,0.9-2.3
		c0.6-0.6,1.4-0.9,2.4-0.9h37.6c4.5,0,8.7,0.4,12.6,1.2c3.8,0.8,7.1,2.2,9.8,4.2c2.7,2,4.8,4.7,6.3,8c1.5,3.3,2.3,7.5,2.3,12.6
		c0,17.8-9.9,26.6-29.8,26.6h-5.9c-0.9,0-1.6-0.3-2.3-0.9c-0.6-0.6-0.9-1.4-0.9-2.3c0-0.9,0.3-1.6,0.9-2.2c0.6-0.6,1.4-0.8,2.3-0.8
		h5.9c7.3,0,13.1-1.4,17.3-4.3c4.2-2.9,6.3-8.2,6.3-16.1c0-4-0.6-7.3-1.8-9.9c-1.2-2.6-2.9-4.6-5-6c-2.1-1.4-4.8-2.5-7.8-3
		c-3.1-0.6-6.5-0.8-10.1-0.8H130.5z M182.4,944.3c0.5,0.6,0.7,1.4,0.5,2.3c-0.2,0.9-0.6,1.6-1.2,2.1c-0.5,0.4-1.1,0.6-1.9,0.6
		c-1,0-1.8-0.5-2.5-1.5l-36.6-54.4c-1.1-1.8-0.8-3.2,0.9-4.3c0.4-0.4,0.9-0.6,1.7-0.6c0.9,0,1.8,0.4,2.6,1.3L182.4,944.3z
		 M144.1,919c2,0,3,1,3,3v32.9c0,2.1-1,3.2-3,3.2c-0.9,0-1.6-0.3-2.3-0.8c-0.6-0.6-0.9-1.4-0.9-2.4v-32.9c0-0.9,0.3-1.6,0.9-2.2
		C142.5,919.3,143.2,919,144.1,919z M176.6,908.5l30.6,44.8c1.1,1.8,0.9,3.2-0.8,4.3c-0.5,0.4-1.1,0.6-1.7,0.6c-1.1,0-2-0.4-2.6-1.3
		l-33.6-49.5c-0.8-0.9-0.8-2-0.2-3.2c0.6-1.1,1.6-1.7,2.8-1.7c5.3,0,10.1-0.8,14.5-2.5c4.4-1.6,8.2-4,11.3-7c3.1-3,5.6-6.7,7.3-11
		c1.7-4.3,2.5-9.1,2.5-14.5c0-12.1-3-20.8-9.1-26.2c-6-5.4-14.9-8-26.6-8h-26.8c-2,0-3-1.1-3-3.2c0-2,1-3,3-3h26.8
		c13.3,0,23.7,3.2,31,9.7c7.3,6.5,11,16.7,11,30.7c0,11.6-3.2,20.9-9.7,28C196.8,902.6,187.9,906.9,176.6,908.5z M186.8,951.5
		c1,0.3,1.7,0.8,2.1,1.6c0.4,0.8,0.4,1.7,0.2,2.7h-0.2c-0.4,1.5-1.4,2.3-3.2,2.3c-1.4-0.4-2.3-1-2.8-1.8c-0.5-0.8-0.6-1.7-0.4-2.5
		v-0.2c0.6-1.5,1.7-2.3,3.2-2.3C186.2,951.3,186.5,951.4,186.8,951.5z"/>
	<path class="st0" d="M233.8,891.6c0-6,0.8-12,2.4-17.9c1.6-5.9,3.8-11.5,6.8-16.7c3-5.2,6.6-10,10.9-14.3
		c4.3-4.3,9.1-7.8,14.5-10.6c0.3-0.3,0.8-0.4,1.5-0.4c1.1,0,2,0.5,2.6,1.5c0.5,0.9,0.6,1.7,0.3,2.5c-0.3,0.8-0.9,1.4-1.6,1.8
		c-4.9,2.6-9.3,5.9-13.2,9.7c-3.9,3.8-7.2,8.1-9.8,12.8c-2.6,4.7-4.7,9.8-6,15.1c-1.4,5.4-2.1,10.8-2.1,16.3
		c0,7.7,1.4,15.1,4.1,22.4c2.7,7.2,6.5,13.6,11.3,19.2c4.8,5.5,10.6,10,17.4,13.3c6.7,3.3,14.1,5,22.2,5c8.1,0,15.4-1.7,22.1-5
		c6.7-3.3,12.4-7.8,17.3-13.4c4.8-5.6,8.6-12,11.3-19.2c2.7-7.2,4.1-14.6,4.1-22.3c0-7.4-1.3-14.6-3.8-21.6c-2.5-7-6-13.2-10.6-18.7
		c-4.5-5.5-10-10-16.3-13.5c-6.4-3.5-13.4-5.5-21.1-6v13.4c0,2-1,3-3,3c-5.8,0-11.1,1.2-15.9,3.6c-4.8,2.4-8.8,5.6-12.2,9.6
		c-3.3,4-5.9,8.6-7.7,13.8c-1.8,5.2-2.7,10.5-2.7,16.1c0,5.4,0.9,10.7,2.7,15.9c1.8,5.2,4.4,9.8,7.8,13.8c3.4,4,7.5,7.2,12.2,9.6
		c4.7,2.4,10,3.6,15.8,3.6c5.8,0,11.1-1.2,15.9-3.6c4.8-2.4,8.9-5.6,12.3-9.5c3.4-4,6-8.5,7.8-13.7c1.8-5.2,2.7-10.5,2.7-16.1
		c0-9.1-2.2-17.2-6.5-24.4c-4.3-7.2-10.2-12.4-17.7-15.7c-0.8-0.3-1.3-0.8-1.6-1.6c-0.3-0.8-0.3-1.6,0.1-2.4
		c0.4-1.3,1.3-1.9,2.8-1.9c0.5,0,0.9,0.1,1.1,0.2c4.3,1.9,8.1,4.4,11.5,7.5c3.4,3.1,6.3,6.6,8.8,10.6c2.5,4,4.3,8.3,5.7,12.9
		c1.3,4.7,2,9.6,2,14.7c0,6.4-1.1,12.6-3.3,18.5c-2.2,5.9-5.3,11.1-9.2,15.7c-3.9,4.5-8.6,8.2-14.2,10.9c-5.5,2.7-11.6,4.1-18.3,4.1
		c-6.7,0-12.7-1.4-18.2-4.2c-5.5-2.8-10.2-6.4-14.2-11c-4-4.5-7-9.8-9.2-15.7c-2.1-5.9-3.2-12-3.2-18.3c0-6,1-11.9,2.9-17.7
		c2-5.7,4.8-10.8,8.4-15.3c3.7-4.5,8-8.2,13.1-11.1c5.1-3,10.8-4.6,17.1-5v-13.6c0-2,1.1-3,3.2-3c8.9,0,17.1,1.9,24.6,5.6
		c7.4,3.7,13.8,8.6,19.3,14.7c5.4,6.1,9.6,13.1,12.7,21.1c3,7.9,4.5,16.2,4.5,24.7c0,8.6-1.5,16.8-4.5,24.8c-3,8-7.2,15-12.7,21.2
		c-5.4,6.1-11.9,11-19.4,14.6c-7.5,3.7-15.6,5.5-24.5,5.5c-8.9,0-17.2-1.8-24.6-5.5c-7.5-3.7-13.9-8.5-19.4-14.6
		c-5.4-6.1-9.6-13.2-12.7-21.2C235.3,908.5,233.8,900.2,233.8,891.6z M276.5,829.7c0.4-1.5,1.4-2.3,3.2-2.3c0.5,0,0.9,0.1,1.1,0.2
		c0.9,0.3,1.5,0.8,1.9,1.7c0.4,0.9,0.4,1.8,0.2,2.6c-0.6,1.6-1.7,2.5-3.2,2.5c-1.5-0.5-2.5-1.2-3-2c-0.5-0.8-0.6-1.7-0.2-2.5V829.7z
		"/>
	<path class="st0" d="M369.4,958.9c-0.8-0.5-1.2-1.2-1.4-2.1c-0.2-0.9,0-1.6,0.5-2.3l49.1-77.2L388.3,831c-1.1-1.8-0.8-3.2,0.9-4.3
		c0.5-0.3,1-0.4,1.5-0.4c1.1,0,2,0.4,2.6,1.3l30.4,48c0.9,1,0.9,2.1,0,3.2l-50.2,78.9c-0.6,1-1.5,1.5-2.6,1.5
		C370.4,959.3,369.9,959.1,369.4,958.9z M400.8,881.4L368.7,831c-0.5-0.8-0.6-1.5-0.4-2.4c0.3-0.8,0.7-1.5,1.3-2
		c0.8-0.3,1.3-0.4,1.7-0.4c1.1,0,2,0.4,2.6,1.3l32.1,50.4c0.9,1.8,0.6,3.2-0.9,4.3c-0.5,0.4-1.1,0.6-1.7,0.6
		C402.3,883,401.4,882.5,400.8,881.4z M396.2,950.6c-0.5,0-1.1-0.2-1.7-0.6c-0.6-0.5-1.1-1.2-1.3-2c-0.3-0.8-0.1-1.6,0.4-2.4
		l14.9-23.4c0.8-0.9,1.6-1.3,2.6-1.3c0.8,0,1.3,0.1,1.7,0.4c1.8,1.1,2.1,2.6,0.9,4.3l-14.9,23.4
		C398.3,950.1,397.4,950.6,396.2,950.6z M418.5,910c-0.6-1-0.6-2.1,0-3.4l50.2-78.9c0.6-0.9,1.5-1.3,2.6-1.3c0.4,0,0.9,0.1,1.7,0.4
		c0.6,0.5,1.1,1.2,1.3,2c0.3,0.8,0.1,1.6-0.4,2.4l-49.3,77.2l23.6,37.2c1.1,1.8,0.8,3.2-0.9,4.3c-0.5,0.3-1,0.4-1.5,0.4
		c-1.3,0-2.1-0.4-2.6-1.3L418.5,910z M429.5,864.3c-0.6-0.5-1.1-1.2-1.3-2c-0.3-0.8-0.1-1.6,0.4-2.4l14.9-23.2
		c0.6-1,1.5-1.5,2.6-1.5c0.6,0,1.1,0.2,1.5,0.6c1.8,1.1,2.1,2.6,0.9,4.3l-14.7,23.2c-0.5,0.9-1.4,1.3-2.6,1.3
		C430.4,864.6,429.9,864.5,429.5,864.3z M473.7,954.5c0.5,0.6,0.7,1.4,0.5,2.3c-0.2,0.9-0.7,1.6-1.4,2.1c-0.5,0.3-1.1,0.4-1.7,0.4
		c-1,0-1.9-0.5-2.6-1.5l-31.9-50.2c-1.1-1.8-0.8-3.2,0.9-4.3c0.6-0.4,1.2-0.6,1.7-0.6c1.1,0,2,0.5,2.6,1.5L473.7,954.5z
		 M448.4,828.2c0.4-1.5,1.4-2.3,3.2-2.3c0.5,0,0.9,0.1,1.1,0.2c0.9,0.3,1.5,0.8,1.9,1.6c0.4,0.8,0.4,1.7,0.2,2.7
		c-0.5,1.5-1.6,2.3-3.2,2.3c-1.4-0.4-2.3-1-2.8-1.8c-0.5-0.8-0.6-1.7-0.4-2.5V828.2z"/>
</g>
<g id="Слой_3_1_">
	<g>
		<path class="st0" d="M507.6-145.6c-0.2-0.2-0.2-0.3-0.2-0.3c-0.2-0.4-0.3-1.1-0.5-1.9l-0.4-3.5c-0.1-2.8-0.2-6.2-0.2-9.7v-1.7
			c0-6.4,0.3-12.8,1-14.7c0.2-0.3,0.7-0.3,1.2,0.1c0.4,0.3,0.8,0.9,0.6,1.2c-0.6,1.9-0.9,9-0.9,16.1c0,3.5,0.1,7,0.3,9.7
			c0.9-2.2,4.4-6.7,6.8-6.3c0.5,0.1,1.1,0.3,1.6,0.8l0.3,0.2c1.1,1,1.5,2.3,1.5,3.6c0,0.8-0.2,1.6-0.4,2.2l-0.4,0.9
			c2.6-0.4,7-2.9,8.9-4.5c0.5-0.5,0.2,1.1-0.3,1.8c-2,2.7-5.8,4.8-10.6,4.8h-0.4l-0.2,0.1c-0.9,0.2-4,0-5.2-0.8l-0.1-0.1l-0.2,0.5
			l-0.3,1.5c0.1,0.4-0.1,0.6-0.1,0.8c-0.1,0-0.1,0.1-0.2,0.2c-0.1,0-0.3,0.2-0.9-0.1C507.9-145.2,507.6-145.6,507.6-145.6z
			 M512-148.6c2.5,0,4.6-2.2,4.6-4.8c0-0.8-0.2-1.3-0.5-1.6l-0.2-0.2h-0.1c-1.8,0.6-3.2,2.8-5.6,6.2l0.1,0.1
			C510.9-148.7,511.5-148.6,512-148.6z"/>
		<path class="st0" d="M537-150.7c-1.6,2.1-4,4.3-5.8,4.3s-3.5-1.3-4.2-3.1c-0.3-0.8-0.5-1.7-0.5-2.6c0-0.8,0.1-1.5,0.4-2.2
			c0.2-0.6,0.5-1.1,1.1-1.3c0.3-0.1,0.9,0.1,1.3,0.5s0.4,0.9,0.2,1c-0.2,0.1-0.5,0.4-0.8,0.9c-0.1,0.5-0.3,1.2-0.3,2
			c0.1,0.9,0.2,2.4,1.1,3c2.3,1.3,7-5,7.1-6.8c0-0.1,0.1-0.2,0.2-0.2c-0.1-0.1-0.1-0.1,0-0.1c0.1-0.1,0.3-0.2,0.5-0.2
			c0.5,0,1.5,0.6,1.5,1.2c0.1,0.1,0.3,2.3,0.4,5.5v0.2l0.1-0.1c1.5-0.9,8.3-4.2,9.6-3.1c0.5,0.4,0.4,0.5,0,0.6
			c-2.2,0.6-5.7,2.6-8,3.9l-1.6,1.1l-0.1,0.6l-0.2,5c-0.4,6.8-1.9,14.2-6.6,15.2c-1.4,0.3-3.5-0.6-5-2.1s-2.3-3.5-2.1-5.4
			c0.8-4.2,5.1-9.6,10.6-13.6l1.3-1L537-150.7z M537.2-144.7l-1.2,1.1c-4.4,4-8,8.4-8.6,12c-0.3,1.7,0.5,3,1.1,3.8
			c0.8,0.8,1.8,1.2,2.5,1C535.1-127.6,537.3-137.1,537.2-144.7z"/>
		<path class="st0" d="M570.9-152.2c0.2,0.7,0.3,1.5,0.1,2.3c-0.5,2.7-2.7,4-5.2,3.9c-2-0.1-3.3-1.8-3.6-3.3c-0.4-2.3,1-4.9,2.3-5.3
			c0.1,0,0.2-0.1,0.3-0.1c0.2-0.8,0.6-1.4,1.7-1.3c1.5,0.2,2.6,0.9,3.5,1.9c1.4,0.2,2.8,0.2,4,0.2c2.5,0,4.6-0.2,5.1-0.2
			c1.6-0.1,1.2,0.6-0.1,1.1C577.7-152.5,574.2-152,570.9-152.2z M564.1-149.4c0.3,1.6,0.9,2.2,1.9,2.1c2.4-0.1,3.6-3.2,2.7-5.1
			c-1.2-0.2-2.3-0.5-3-1l-0.1,0.1C564.9-152.8,563.8-150.9,564.1-149.4z"/>
		<path class="st0" d="M579.7-145.5c-1-1.6-1.4-5.5-1.4-9.9c0-9,1.5-20.6,2.2-22.8c0.1-0.3,0.4-0.4,0.9-0.2c0.5,0.3,1,0.7,1,1
			c-0.3,1-1.9,14-1.9,23.3c0,4.8,0.4,8.6,1.6,9.5c2.8,1.7,9.3-7.1,10.2-8.1c0.5-0.8,0.6,0.6,0.4,1.2c-1,2.7-5.3,8.5-8.7,8.5
			C582.3-143.1,580.8-144,579.7-145.5z"/>
		<path class="st0" d="M599.7-152.2c0.2,0.7,0.3,1.5,0.1,2.3c-0.5,2.7-2.7,4-5.2,3.9c-2-0.1-3.3-1.8-3.6-3.3c-0.4-2.3,1-4.9,2.3-5.3
			c0.1,0,0.2-0.1,0.3-0.1c0.2-0.8,0.6-1.4,1.7-1.3c1.5,0.2,2.6,0.9,3.5,1.9c1.4,0.2,2.8,0.2,4,0.2c2.5,0,4.6-0.2,5.1-0.2
			c1.6-0.1,1.2,0.6-0.1,1.1C606.5-152.5,603-152,599.7-152.2z M592.9-149.4c0.3,1.6,0.9,2.2,1.9,2.1c2.4-0.1,3.6-3.2,2.7-5.1
			c-1.2-0.2-2.3-0.5-3-1l-0.1,0.1C593.7-152.8,592.7-150.9,592.9-149.4z"/>
		<path class="st0" d="M619.7-146.5c-2.7,0-6-1-8-3.5c-1.2,1.5-1.8,4.2-1.9,6.7c0,0.8-1.5,0.1-1.8-0.8c-0.1-1.9-0.2-3.9-0.2-5.9
			c0-9.6,0.5-19.9,0.6-26.6c0-0.3,0.5-0.5,1-0.3c0.6,0.2,1.1,0.6,1.1,0.9c-0.2,7-0.3,14.7-0.8,24.9c1.7-2.9,4.1-6.4,7.2-6.7
			c1.2-0.1,1.9,0.8,2.2,1.4c0.8,2-3,5.1-5.6,5.8c0.9,1.1,3.7,2.3,5.9,2.1c3.9-0.3,8.5-3.4,10.7-5.2c0.7-0.6,0.1,1.7-0.9,2.6
			C628.3-150.1,624.9-146.5,619.7-146.5z M612.6-151.6c1.3-0.1,5-3.2,4.6-4.6C616.5-156.5,614.7-155,612.6-151.6z"/>
		<path class="st0" d="M630-155.6c0-0.4,0.5-0.4,1.1-0.1c0.5,0.3,0.8,0.8,0.8,1.1l-0.1,2.1c1.3-1.7,5.3-4.9,8.3-4.4
			c1.2,0.2,2,1.4,1.6,1.8c-0.8,0.9-1.5,0.5-1.5,0.1l0.1-0.4c-2.7-0.1-7.2,3.2-8.5,7c-0.2,0.4-0.2,0.8-0.4,2.3c0.1,0.7-1.7,0-1.9-0.8
			C629.4-147.4,629.3-148.8,630-155.6z"/>
		<path class="st0" d="M643.5-149.5c-0.2-0.5-0.3-1-0.3-1.6c0-2.4,1.6-4.8,4.3-4.9c1.7,0,3.2,1.6,2.6,3.2c-0.7,1.7-3,3-4.9,3
			c0.2,1,2.1,2.8,3.9,2.8c5.1,0,8.9-3.8,11.1-6.2c1.2-1.3,1-0.1,0.3,1.5c-1.5,3.1-5,5.8-8.7,6C648.7-145.6,644.6-146.2,643.5-149.5z
			 M645.2-151.1c2.3-1,3.8-2.5,3.2-3.1C647.2-155.3,645.1-152.4,645.2-151.1z"/>
		<path class="st0" d="M658.4-150.3c0-1.2,0.6-2.4,1.9-3.3c1.5-1,3.3-1.5,5.2-1.5c1.5,0,3,0.3,4.4,0.9h0.1l0.9-1.2
			c0.3-0.6,2.2,0.6,1.8,1.2c-0.3,0.8-0.8,1.8-0.9,2.8c-0.1,0.9,0.2,2,1.2,2.3c2.8,0.5,7.4-2.2,9.3-4.4c0.9-0.9,1.7,0.4-1.2,3.4
			c-1.3,1.3-5.1,3.1-7.3,2.5c-1.8-0.4-3.1-1.5-3.8-3.4c-1.5,1.3-5.1,4.1-7.9,4.1c-0.7,0-1.3-0.2-1.9-0.5
			C659-148.2,658.4-149.2,658.4-150.3z M669-153.1c-0.5-0.2-1.3-0.3-2.1-0.3c-2.7,0-6.3,1-6.9,3.5c-0.2,0.6,0.2,1.2,1,1.3
			C663.6-148.9,667.1-151.1,669-153.1z"/>
		<path class="st0" d="M682.4-146.5c-0.1,0-0.2,0-0.3-0.1c-0.1,0-0.4-0.2-0.7-0.6c-0.2-0.5-0.1-0.8,0-0.9c0-0.1,0.1-0.1,0.2-0.1
			l0.1-0.1c2.2-1.3,5.2-2.9,7.5-4.8l0.3-0.3l-2.4,0.3c-1.7,0.2-3.4,0.4-5,0.4c-0.4,0-0.8-0.3-1-0.8s-0.1-0.9,0.3-0.9
			c3.2-0.1,6.6-0.6,10.1-1c0.8-0.1,1.6,0.9,1.2,1.4c-1.7,2.1-4.4,3.9-6.9,5.3l-0.1,0.1h0.5c0.9-0.1,1.8-0.1,2.8-0.1
			c1.5,0,2.9,0.1,4.2,0.3c0.5,0.1,0.9,0.5,1,1c0.1,0.4-0.2,0.7-0.7,0.6c-1.1-0.3-2.7-0.4-4.1-0.4c-0.9,0-1.7,0.1-2.5,0.1l-3,0.2
			c-0.4,0.1-0.6,0.1-1,0.1h-0.5V-146.5z"/>
	</g>
</g>
<g>
	<g>
		<path class="st0" d="M-182-440.8c3.7,0,5.5-1.7,5.5-5.1v-185.2c0-3.4-1.8-5.1-5.5-5.1c-3.9,0-5.9,1.7-5.9,5.1v179.8h-92.2
			c-1.8,0-3.3,0.5-4.3,1.6s-1.6,2.3-1.6,3.8c0,3.4,2,5.1,5.9,5.1H-182z M-207.7-602.3c0-3.4-1.8-5.1-5.5-5.1c-1.6,0-3,0.5-4.2,1.4
			c-1.2,1-1.7,2.2-1.7,3.7v130.8c0,1.5,0.6,2.7,1.7,3.7c1.2,1,2.5,1.4,4.2,1.4c3.7,0,5.5-1.7,5.5-5.1V-602.3z M-208-418.4
			c0-1.5-0.6-2.7-1.7-3.7c-1.2-1-2.5-1.4-4.2-1.4h-85.3c-3.7,0-5.5,1.7-5.5,5.1c0,1.5,0.5,2.8,1.6,3.8c1,1.1,2.4,1.6,4,1.6h85.3
			c1.6,0,3-0.5,4.2-1.6C-208.6-415.6-208-416.9-208-418.4z M-299.5-440.1c2.5-0.6,4.3-1.7,5.2-3.2s1.2-3,0.7-4.5v-0.3
			c-1.2-2.6-3.1-3.8-5.9-3.8c-0.5,0-0.8,0.1-1,0.2c-0.2,0.1-0.6,0.2-1,0.2c-1.8,0.4-3.1,1.4-3.8,2.9c-0.7,1.5-0.7,3,0,4.5v0.3
			C-304.7-441.4-302.8-440.1-299.5-440.1z"/>
		<path class="st0" d="M-417.3-440.8c-3.7,0-5.5-1.7-5.5-5.1v-185.2c0-3.4,1.8-5.1,5.5-5.1c3.9,0,5.9,1.7,5.9,5.1v179.8h92.2
			c1.8,0,3.3,0.5,4.3,1.6s1.6,2.3,1.6,3.8c0,3.4-2,5.1-5.9,5.1H-417.3z M-391.7-602.3c0-3.4,1.8-5.1,5.5-5.1c1.6,0,3,0.5,4.2,1.4
			c1.2,1,1.7,2.2,1.7,3.7v130.8c0,1.5-0.6,2.7-1.7,3.7c-1.2,1-2.5,1.4-4.2,1.4c-3.7,0-5.5-1.7-5.5-5.1V-602.3z M-391.3-418.4
			c0-1.5,0.6-2.7,1.7-3.7c1.2-1,2.5-1.4,4.2-1.4h85.3c3.7,0,5.5,1.7,5.5,5.1c0,1.5-0.5,2.8-1.6,3.8c-1,1.1-2.4,1.6-4,1.6h-85.3
			c-1.6,0-3-0.5-4.2-1.6C-390.7-415.6-391.3-416.9-391.3-418.4z M-299.8-440.1c-2.5-0.6-4.3-1.7-5.2-3.2s-1.2-3-0.7-4.5v-0.3
			c1.2-2.6,3.1-3.8,5.9-3.8c0.5,0,0.8,0.1,1,0.2c0.2,0.1,0.6,0.2,1,0.2c1.8,0.4,3.1,1.4,3.8,2.9c0.7,1.5,0.7,3,0,4.5v0.3
			C-294.6-441.4-296.6-440.1-299.8-440.1z"/>
		<path class="st0" d="M-307.8-473.2v-101.1h26c1.6,0,2.9-0.5,4-1.6c1-1.1,1.6-2.3,1.6-3.8v-81.6c0-3.6-1.9-5.4-5.5-5.4
			c-1.6,0-3,0.5-4.2,1.4c-1.2,1-1.7,2.3-1.7,4v76.4h-25.7c-1.6,0-3,0.5-4.2,1.4c-1.2,1-1.7,2.2-1.7,3.7v101.4h-63.1
			c-3.9,0-5.9,1.7-5.9,5.1c0,3.6,2,5.4,5.9,5.4h69C-309.6-467.8-307.8-469.6-307.8-473.2z M-340-495.9c1.6,0,2.9-0.5,4-1.6
			c1-1.1,1.6-2.3,1.6-3.8c0-3.4-1.9-5.1-5.5-5.1h-42.4c-3.9,0-5.9,1.7-5.9,5.1c0,1.5,0.5,2.8,1.6,3.8c1,1.1,2.5,1.6,4.3,1.6H-340z
			 M-307.4-685.9c0-3.4-1.9-5.1-5.5-5.1c-1.6,0-3,0.5-4.2,1.4c-1.2,1-1.7,2.2-1.7,3.7v77.1c0,1.7,0.6,3,1.7,4c1.2,1,2.5,1.4,4.2,1.4
			c3.7,0,5.5-1.8,5.5-5.4V-685.9z M-281.8-467.8h45.1c3.7,0,5.5-1.8,5.5-5.4c0-3.4-1.9-5.1-5.5-5.1h-45.1c-1.6,0-3,0.5-4.2,1.4
			c-1.2,1-1.7,2.2-1.7,3.7c0,1.7,0.6,3,1.7,4C-284.8-468.3-283.4-467.8-281.8-467.8z M-287.7-551.3v49.9c0,1.5,0.6,2.8,1.7,3.8
			c1.2,1.1,2.5,1.6,4.2,1.6h64.1c1.8,0,3.3-0.5,4.3-1.6s1.6-2.3,1.6-3.8c0-3.4-2-5.1-5.9-5.1h-58.6v-44.8c0-3.4-1.9-5.1-5.5-5.1
			c-1.6,0-3,0.5-4.2,1.4C-287.1-554-287.7-552.8-287.7-551.3z M-215.6-467.5c1.8-0.4,3.1-1.4,3.8-2.9c0.7-1.5,0.8-3,0.3-4.5h-0.3
			c-0.7-2.8-2.7-4.2-5.9-4.2c-2.5,0.8-4.3,2-5.2,3.4c-0.9,1.4-1.2,2.8-0.7,4.3l0.3,0.3c0.7,2.6,2.7,3.8,5.9,3.8
			C-216.4-467.1-215.8-467.2-215.6-467.5z"/>
		<path class="st0" d="M-182-376.8c3.7,0,5.5,1.7,5.5,5.1v185.3c0,3.4-1.8,5.1-5.5,5.1c-3.9,0-5.9-1.7-5.9-5.1v-179.8h-92.2
			c-1.8,0-3.3-0.5-4.3-1.6s-1.6-2.3-1.6-3.8c0-3.4,2-5.1,5.9-5.1h98.1V-376.8z M-207.7-215.2c0,3.4-1.8,5.1-5.5,5.1
			c-1.6,0-3-0.5-4.2-1.4c-1.2-1-1.7-2.2-1.7-3.7v-130.9c0-1.5,0.6-2.7,1.7-3.7c1.2-1,2.5-1.4,4.2-1.4c3.7,0,5.5,1.7,5.5,5.1V-215.2z
			 M-208-399.1c0,1.5-0.6,2.7-1.7,3.7c-1.2,1-2.5,1.4-4.2,1.4h-85.3c-3.7,0-5.5-1.7-5.5-5.1c0-1.5,0.5-2.8,1.6-3.8
			c1-1.1,2.4-1.6,4-1.6h85.3c1.6,0,3,0.5,4.2,1.6C-208.6-401.9-208-400.6-208-399.1z M-299.5-377.4c2.5,0.6,4.3,1.7,5.2,3.2
			s1.2,3,0.7,4.5v0.3c-1.2,2.6-3.1,3.8-5.9,3.8c-0.5,0-0.8-0.1-1-0.2c-0.2-0.1-0.6-0.2-1-0.2c-1.8-0.4-3.1-1.4-3.8-2.9
			c-0.7-1.5-0.7-3,0-4.5v-0.3C-304.7-376.1-302.8-377.4-299.5-377.4z"/>
		<path class="st0" d="M-417.3-376.8c-3.7,0-5.5,1.7-5.5,5.1v185.3c0,3.4,1.8,5.1,5.5,5.1c3.9,0,5.9-1.7,5.9-5.1v-179.8h92.2
			c1.8,0,3.3-0.5,4.3-1.6s1.6-2.3,1.6-3.8c0-3.4-2-5.1-5.9-5.1h-98.1V-376.8z M-391.7-215.2c0,3.4,1.8,5.1,5.5,5.1
			c1.6,0,3-0.5,4.2-1.4c1.2-1,1.7-2.2,1.7-3.7v-130.9c0-1.5-0.6-2.7-1.7-3.7c-1.2-1-2.5-1.4-4.2-1.4c-3.7,0-5.5,1.7-5.5,5.1V-215.2z
			 M-391.3-399.1c0,1.5,0.6,2.7,1.7,3.7c1.2,1,2.5,1.4,4.2,1.4h85.3c3.7,0,5.5-1.7,5.5-5.1c0-1.5-0.5-2.8-1.6-3.8
			c-1-1.1-2.4-1.6-4-1.6h-85.3c-1.6,0-3,0.5-4.2,1.6C-390.7-401.9-391.3-400.6-391.3-399.1z M-299.8-377.4c-2.5,0.6-4.3,1.7-5.2,3.2
			s-1.2,3-0.7,4.5v0.3c1.2,2.6,3.1,3.8,5.9,3.8c0.5,0,0.8-0.1,1-0.2c0.2-0.1,0.6-0.2,1-0.2c1.8-0.4,3.1-1.4,3.8-2.9
			c0.7-1.5,0.7-3,0-4.5v-0.3C-294.6-376.1-296.6-377.4-299.8-377.4z"/>
		<path class="st0" d="M-307.8-344.3v101.1h26c1.6,0,2.9,0.5,4,1.6c1,1.1,1.6,2.3,1.6,3.8v81.6c0,3.6-1.9,5.4-5.5,5.4
			c-1.6,0-3-0.5-4.2-1.4c-1.2-1-1.7-2.3-1.7-4v-76.4h-25.7c-1.6,0-3-0.5-4.2-1.4c-1.2-1-1.7-2.2-1.7-3.7v-101.5h-63.1
			c-3.9,0-5.9-1.7-5.9-5.1c0-3.6,2-5.4,5.9-5.4h69C-309.6-349.7-307.8-347.9-307.8-344.3z M-340-321.6c1.6,0,2.9,0.5,4,1.6
			c1,1.1,1.6,2.3,1.6,3.8c0,3.4-1.9,5.1-5.5,5.1h-42.4c-3.9,0-5.9-1.7-5.9-5.1c0-1.5,0.5-2.8,1.6-3.8c1-1.1,2.5-1.6,4.3-1.6H-340z
			 M-307.4-131.6c0,3.4-1.9,5.1-5.5,5.1c-1.6,0-3-0.5-4.2-1.4c-1.2-1-1.7-2.2-1.7-3.7v-77.1c0-1.7,0.6-3,1.7-4
			c1.2-1,2.5-1.4,4.2-1.4c3.7,0,5.5,1.8,5.5,5.4V-131.6z M-281.8-349.7h45.1c3.7,0,5.5,1.8,5.5,5.4c0,3.4-1.9,5.1-5.5,5.1h-45.1
			c-1.6,0-3-0.5-4.2-1.4c-1.2-1-1.7-2.2-1.7-3.7c0-1.7,0.6-3,1.7-4C-284.8-349.3-283.4-349.7-281.8-349.7z M-287.7-266.2v-49.9
			c0-1.5,0.6-2.8,1.7-3.8c1.2-1.1,2.5-1.6,4.2-1.6h64.1c1.8,0,3.3,0.5,4.3,1.6s1.6,2.3,1.6,3.8c0,3.4-2,5.1-5.9,5.1h-58.6v44.8
			c0,3.4-1.9,5.1-5.5,5.1c-1.6,0-3-0.5-4.2-1.4C-287.1-263.5-287.7-264.8-287.7-266.2z M-215.6-350.1c1.8,0.4,3.1,1.4,3.8,2.9
			c0.7,1.5,0.8,3,0.3,4.5h-0.3c-0.7,2.8-2.7,4.2-5.9,4.2c-2.5-0.8-4.3-2-5.2-3.4c-0.9-1.4-1.2-2.8-0.7-4.3l0.3-0.3
			c0.7-2.6,2.7-3.8,5.9-3.8C-216.4-350.4-215.8-350.3-215.6-350.1z"/>
	</g>
	<g>
		<path class="st0" d="M-117.3-404c0-6,0.8-12,2.4-17.9c1.6-5.9,3.8-11.5,6.8-16.7c3-5.2,6.6-10,10.9-14.3
			c4.3-4.3,9.1-7.8,14.5-10.6c0.3-0.3,0.8-0.4,1.5-0.4c1.1,0,2,0.5,2.6,1.5c0.5,0.9,0.6,1.7,0.3,2.5c-0.3,0.8-0.9,1.4-1.6,1.8
			c-4.9,2.6-9.3,5.9-13.2,9.7c-3.9,3.8-7.2,8.1-9.8,12.8c-2.6,4.7-4.7,9.8-6,15.1c-1.4,5.4-2.1,10.8-2.1,16.3
			c0,7.7,1.4,15.1,4.1,22.4c2.7,7.2,6.5,13.6,11.3,19.2c4.8,5.5,10.6,10,17.4,13.3c6.7,3.3,14.1,5,22.2,5c8.1,0,15.4-1.7,22.1-5
			c6.7-3.3,12.4-7.8,17.3-13.4c4.8-5.6,8.6-12,11.3-19.2c2.7-7.2,4.1-14.6,4.1-22.3c0-7.4-1.3-14.6-3.8-21.6
			c-2.5-7-6-13.2-10.6-18.7c-4.5-5.5-10-10-16.3-13.5c-6.4-3.5-13.4-5.5-21.1-6v13.4c0,2-1,3-3,3c-5.8,0-11.1,1.2-15.9,3.6
			c-4.8,2.4-8.8,5.6-12.2,9.6c-3.3,4-5.9,8.6-7.7,13.8c-1.8,5.2-2.7,10.5-2.7,16.1c0,5.4,0.9,10.7,2.7,15.9
			c1.8,5.2,4.4,9.8,7.8,13.8c3.4,4,7.5,7.2,12.2,9.6c4.7,2.4,10,3.6,15.8,3.6c5.8,0,11.1-1.2,15.9-3.6c4.8-2.4,8.9-5.6,12.3-9.5
			s6-8.5,7.8-13.7c1.8-5.2,2.7-10.5,2.7-16.1c0-9.1-2.2-17.2-6.5-24.4c-4.3-7.2-10.2-12.4-17.7-15.7c-0.8-0.3-1.3-0.8-1.6-1.6
			c-0.3-0.8-0.3-1.6,0.1-2.4c0.4-1.3,1.3-1.9,2.8-1.9c0.5,0,0.9,0.1,1.1,0.2c4.3,1.9,8.1,4.4,11.5,7.5c3.4,3.1,6.3,6.6,8.8,10.6
			c2.5,4,4.3,8.3,5.7,12.9c1.3,4.7,2,9.6,2,14.7c0,6.4-1.1,12.6-3.3,18.5c-2.2,5.9-5.3,11.1-9.2,15.7c-3.9,4.5-8.6,8.2-14.2,10.9
			c-5.5,2.7-11.6,4.1-18.3,4.1c-6.7,0-12.7-1.4-18.2-4.2c-5.5-2.8-10.2-6.4-14.2-11c-4-4.5-7-9.8-9.2-15.7c-2.1-5.9-3.2-12-3.2-18.3
			c0-6,1-11.9,2.9-17.7c2-5.7,4.8-10.8,8.4-15.3c3.7-4.5,8-8.2,13.1-11.1c5.1-3,10.8-4.6,17.1-5v-13.6c0-2,1.1-3,3.2-3
			c8.9,0,17.1,1.9,24.6,5.6c7.4,3.7,13.8,8.6,19.3,14.7c5.4,6.1,9.6,13.1,12.7,21.1c3,7.9,4.5,16.2,4.5,24.7
			c0,8.6-1.5,16.8-4.5,24.8c-3,8-7.2,15-12.7,21.2c-5.4,6.1-11.9,11-19.4,14.6c-7.5,3.7-15.6,5.5-24.5,5.5c-8.9,0-17.2-1.8-24.6-5.5
			c-7.5-3.7-13.9-8.5-19.4-14.6c-5.4-6.1-9.6-13.2-12.7-21.2C-115.8-387.2-117.3-395.4-117.3-404z M-74.6-466
			c0.4-1.5,1.4-2.3,3.2-2.3c0.5,0,0.9,0.1,1.1,0.2c0.9,0.3,1.5,0.8,1.9,1.7c0.4,0.9,0.4,1.8,0.2,2.6c-0.6,1.6-1.7,2.5-3.2,2.5
			c-1.5-0.5-2.5-1.2-3-2c-0.5-0.8-0.6-1.7-0.2-2.5V-466z"/>
		<path class="st0" d="M23.6-354.9c-2,0-3-1-3-3v-109.4c0-2,1-3,3-3c2.1,0,3.2,1,3.2,3v106.1H77c1,0,1.8,0.3,2.4,0.9
			c0.6,0.6,0.8,1.4,0.8,2.3c0,2-1.1,3-3.2,3H23.6z M37.6-450.3c0-2,1-3,3-3c0.9,0,1.6,0.3,2.3,0.9c0.6,0.6,0.9,1.3,0.9,2.2v77.2
			c0,0.9-0.3,1.6-0.9,2.2c-0.6,0.6-1.4,0.9-2.3,0.9c-2,0-3-1-3-3V-450.3z M37.7-341.7c0-0.9,0.3-1.6,0.9-2.2
			c0.6-0.6,1.4-0.9,2.3-0.9h46.5c2,0,3,1,3,3c0,0.9-0.3,1.6-0.9,2.3c-0.6,0.6-1.3,0.9-2.2,0.9H41c-0.9,0-1.6-0.3-2.3-0.9
			C38.1-340,37.7-340.8,37.7-341.7z M87.6-354.5c-1.4-0.4-2.3-1-2.8-1.9c-0.5-0.9-0.6-1.8-0.4-2.6v-0.2c0.6-1.5,1.7-2.3,3.2-2.3
			c0.3,0,0.4,0,0.6,0.1c0.1,0.1,0.3,0.1,0.6,0.1c1,0.3,1.7,0.8,2.1,1.7c0.4,0.9,0.4,1.8,0,2.6v0.2C90.4-355.3,89.4-354.5,87.6-354.5
			z"/>
		<path class="st0" d="M106.9-404c0-6,0.8-12,2.4-17.9c1.6-5.9,3.8-11.5,6.8-16.7c3-5.2,6.6-10,10.9-14.3c4.3-4.3,9.1-7.8,14.5-10.6
			c0.3-0.3,0.8-0.4,1.5-0.4c1.1,0,2,0.5,2.6,1.5c0.5,0.9,0.6,1.7,0.3,2.5c-0.3,0.8-0.9,1.4-1.6,1.8c-4.9,2.6-9.3,5.9-13.2,9.7
			c-3.9,3.8-7.2,8.1-9.8,12.8c-2.6,4.7-4.7,9.8-6,15.1c-1.4,5.4-2.1,10.8-2.1,16.3c0,7.7,1.4,15.1,4.1,22.4
			c2.7,7.2,6.5,13.6,11.3,19.2c4.8,5.5,10.6,10,17.4,13.3c6.7,3.3,14.1,5,22.2,5c8.1,0,15.4-1.7,22.1-5c6.7-3.3,12.4-7.8,17.3-13.4
			c4.8-5.6,8.6-12,11.3-19.2c2.7-7.2,4.1-14.6,4.1-22.3c0-7.4-1.3-14.6-3.8-21.6c-2.5-7-6-13.2-10.6-18.7c-4.5-5.5-10-10-16.3-13.5
			c-6.4-3.5-13.4-5.5-21.1-6v13.4c0,2-1,3-3,3c-5.8,0-11.1,1.2-15.9,3.6c-4.8,2.4-8.8,5.6-12.2,9.6c-3.3,4-5.9,8.6-7.7,13.8
			c-1.8,5.2-2.7,10.5-2.7,16.1c0,5.4,0.9,10.7,2.7,15.9c1.8,5.2,4.4,9.8,7.8,13.8c3.4,4,7.5,7.2,12.2,9.6c4.7,2.4,10,3.6,15.8,3.6
			c5.8,0,11.1-1.2,15.9-3.6c4.8-2.4,8.9-5.6,12.3-9.5c3.4-4,6-8.5,7.8-13.7c1.8-5.2,2.7-10.5,2.7-16.1c0-9.1-2.2-17.2-6.5-24.4
			c-4.3-7.2-10.2-12.4-17.7-15.7c-0.8-0.3-1.3-0.8-1.6-1.6c-0.3-0.8-0.3-1.6,0.1-2.4c0.4-1.3,1.3-1.9,2.8-1.9c0.5,0,0.9,0.1,1.1,0.2
			c4.3,1.9,8.1,4.4,11.5,7.5c3.4,3.1,6.3,6.6,8.8,10.6c2.5,4,4.3,8.3,5.7,12.9c1.3,4.7,2,9.6,2,14.7c0,6.4-1.1,12.6-3.3,18.5
			c-2.2,5.9-5.3,11.1-9.2,15.7c-3.9,4.5-8.6,8.2-14.2,10.9c-5.5,2.7-11.6,4.1-18.3,4.1c-6.7,0-12.7-1.4-18.2-4.2
			c-5.5-2.8-10.2-6.4-14.2-11c-4-4.5-7-9.8-9.2-15.7c-2.1-5.9-3.2-12-3.2-18.3c0-6,1-11.9,2.9-17.7c2-5.7,4.8-10.8,8.4-15.3
			c3.7-4.5,8-8.2,13.1-11.1c5.1-3,10.8-4.6,17.1-5v-13.6c0-2,1.1-3,3.2-3c8.9,0,17.1,1.9,24.6,5.6c7.4,3.7,13.8,8.6,19.3,14.7
			c5.4,6.1,9.6,13.1,12.7,21.1c3,7.9,4.5,16.2,4.5,24.7c0,8.6-1.5,16.8-4.5,24.8c-3,8-7.2,15-12.7,21.2c-5.4,6.1-11.9,11-19.4,14.6
			c-7.5,3.7-15.6,5.5-24.5,5.5c-8.9,0-17.2-1.8-24.6-5.5c-7.5-3.7-13.9-8.5-19.4-14.6c-5.4-6.1-9.6-13.2-12.7-21.2
			C108.4-387.2,106.9-395.4,106.9-404z M149.6-466c0.4-1.5,1.4-2.3,3.2-2.3c0.5,0,0.9,0.1,1.1,0.2c0.9,0.3,1.5,0.8,1.9,1.7
			c0.4,0.9,0.4,1.8,0.2,2.6c-0.6,1.6-1.7,2.5-3.2,2.5c-1.5-0.5-2.5-1.2-3-2c-0.5-0.8-0.6-1.7-0.2-2.5V-466z"/>
		<path class="st0" d="M252.3-449.3c0-0.9,0.3-1.6,0.8-2.3c0.6-0.6,1.4-0.9,2.4-0.9h24.6c3.4,0,6.6,0.4,9.7,1.2
			c3.1,0.8,5.8,2.1,8,3.9c2.3,1.8,4.1,4,5.5,6.8c1.4,2.8,2.1,6,2.1,9.8c0,3.8-0.7,7.1-2,9.8c-1.3,2.8-3.1,5.1-5.5,7.1
			c-2.3,2-5,3.4-8.1,4.3c-3.1,0.9-6.3,1.4-9.7,1.4h-7.7c-2,0-3-1-3-3v-13.2c0-2,1-3,3-3c0.9,0,1.6,0.3,2.3,0.9
			c0.6,0.6,0.9,1.3,0.9,2.2v10h4.5c5.2,0,9.6-1.3,13.4-4c3.8-2.6,5.7-6.8,5.7-12.5c0-2.9-0.5-5.3-1.6-7.3c-1.1-2-2.5-3.6-4.2-4.8
			c-1.7-1.3-3.7-2.1-6-2.6c-2.3-0.5-4.8-0.8-7.3-0.8h-21.5v106.5c0,0.9-0.3,1.6-0.9,2.3c-0.6,0.6-1.3,0.9-2.2,0.9
			c-1,0-1.8-0.3-2.4-0.9c-0.6-0.6-0.8-1.4-0.8-2.3V-449.3z M272.3-351.1c-2,0-3-1-3-3v-40.6c0-2,1-3,3-3H287c1.6,0,4.1-0.4,7.3-1.3
			c3.2-0.9,6.5-2.6,9.7-5.1c7.7-6.3,11.5-15.6,11.5-28c0-4.4-0.6-8.5-1.9-12.3c-1.3-3.8-3.1-7-5.5-9.7c-2.4-2.7-5.4-4.8-9-6.4
			c-3.6-1.6-7.6-2.4-12.2-2.4h-14.9c-0.9,0-1.6-0.3-2.3-0.9c-0.6-0.6-0.9-1.4-0.9-2.3c0-0.9,0.3-1.6,0.9-2.2
			c0.6-0.6,1.4-0.8,2.3-0.8H287c5.5,0,10.5,0.9,14.8,2.8c4.3,1.9,8,4.5,11,7.8c3,3.3,5.2,7.3,6.7,11.8c1.5,4.5,2.3,9.4,2.3,14.5
			c0,6.2-1.1,12.2-3.2,18c-2.1,5.9-5.7,10.7-10.8,14.6c-3.7,2.9-7.4,4.9-11.2,6.1c-3.8,1.2-7,1.8-9.5,1.8h-11.5v37.4
			c0,0.9-0.3,1.6-0.9,2.2C274-351.4,273.2-351.1,272.3-351.1z M271.4-431.8c-1-0.3-1.7-0.8-2.1-1.6c-0.4-0.8-0.4-1.7-0.2-2.6v-0.2
			c0.6-1.5,1.8-2.3,3.4-2.3c0.4,0,0.7,0.1,0.9,0.2c1,0.3,1.7,0.8,2.1,1.6c0.4,0.8,0.4,1.7,0.2,2.7h-0.2c-0.4,1.5-1.4,2.3-3.2,2.3
			L271.4-431.8z"/>
		<path class="st0" d="M359.6-447.6v106.9c0,2.1-1,3.2-3,3.2c-2.1,0-3.2-1.1-3.2-3.2v-109.9c0-0.9,0.3-1.6,0.9-2.3
			c0.6-0.6,1.4-0.9,2.4-0.9h37.6c4.5,0,8.7,0.4,12.6,1.2c3.8,0.8,7.1,2.2,9.8,4.2c2.7,2,4.8,4.7,6.3,8c1.5,3.3,2.3,7.5,2.3,12.6
			c0,17.8-9.9,26.6-29.8,26.6h-5.9c-0.9,0-1.6-0.3-2.3-0.9c-0.6-0.6-0.9-1.4-0.9-2.3c0-0.9,0.3-1.6,0.9-2.2c0.6-0.6,1.4-0.8,2.3-0.8
			h5.9c7.3,0,13.1-1.4,17.3-4.3c4.2-2.9,6.3-8.2,6.3-16.1c0-4-0.6-7.3-1.8-9.9c-1.2-2.6-2.9-4.6-5-6c-2.1-1.4-4.8-2.5-7.8-3
			c-3.1-0.6-6.5-0.8-10.1-0.8H359.6z M411.5-351.3c0.5,0.6,0.7,1.4,0.5,2.3c-0.2,0.9-0.6,1.6-1.2,2.1c-0.5,0.4-1.1,0.6-1.9,0.6
			c-1,0-1.8-0.5-2.5-1.5l-36.6-54.4c-1.1-1.8-0.8-3.2,0.9-4.3c0.4-0.4,0.9-0.6,1.7-0.6c0.9,0,1.8,0.4,2.6,1.3L411.5-351.3z
			 M373.2-376.6c2,0,3,1,3,3v32.9c0,2.1-1,3.2-3,3.2c-0.9,0-1.6-0.3-2.3-0.8c-0.6-0.6-0.9-1.4-0.9-2.4v-32.9c0-0.9,0.3-1.6,0.9-2.2
			C371.5-376.3,372.3-376.6,373.2-376.6z M405.7-387.2l30.6,44.8c1.1,1.8,0.9,3.2-0.8,4.3c-0.5,0.4-1.1,0.6-1.7,0.6
			c-1.1,0-2-0.4-2.6-1.3l-33.6-49.5c-0.8-0.9-0.8-2-0.2-3.2c0.6-1.1,1.6-1.7,2.8-1.7c5.3,0,10.1-0.8,14.5-2.5c4.4-1.6,8.2-4,11.3-7
			c3.1-3,5.6-6.7,7.3-11c1.7-4.3,2.5-9.1,2.5-14.5c0-12.1-3-20.8-9.1-26.2c-6-5.4-14.9-8-26.6-8h-26.8c-2,0-3-1.1-3-3.2c0-2,1-3,3-3
			h26.8c13.3,0,23.7,3.2,31,9.7c7.3,6.5,11,16.7,11,30.7c0,11.6-3.2,20.9-9.7,28C425.9-393,417-388.7,405.7-387.2z M415.9-344.1
			c1,0.3,1.7,0.8,2.1,1.6c0.4,0.8,0.4,1.7,0.2,2.7h-0.2c-0.4,1.5-1.4,2.3-3.2,2.3c-1.4-0.4-2.3-1-2.8-1.8c-0.5-0.8-0.6-1.7-0.4-2.5
			v-0.2c0.6-1.5,1.7-2.3,3.2-2.3C415.2-344.3,415.6-344.3,415.9-344.1z"/>
		<path class="st0" d="M462.9-404c0-6,0.8-12,2.4-17.9c1.6-5.9,3.8-11.5,6.8-16.7c3-5.2,6.6-10,10.9-14.3c4.3-4.3,9.1-7.8,14.5-10.6
			c0.3-0.3,0.8-0.4,1.5-0.4c1.1,0,2,0.5,2.6,1.5c0.5,0.9,0.6,1.7,0.3,2.5c-0.3,0.8-0.9,1.4-1.6,1.8c-4.9,2.6-9.3,5.9-13.2,9.7
			c-3.9,3.8-7.2,8.1-9.8,12.8c-2.6,4.7-4.7,9.8-6,15.1c-1.4,5.4-2.1,10.8-2.1,16.3c0,7.7,1.4,15.1,4.1,22.4
			c2.7,7.2,6.5,13.6,11.3,19.2c4.8,5.5,10.6,10,17.4,13.3c6.7,3.3,14.1,5,22.2,5c8.1,0,15.4-1.7,22.1-5c6.7-3.3,12.4-7.8,17.3-13.4
			c4.8-5.6,8.6-12,11.3-19.2c2.7-7.2,4.1-14.6,4.1-22.3c0-7.4-1.3-14.6-3.8-21.6c-2.5-7-6-13.2-10.6-18.7c-4.5-5.5-10-10-16.3-13.5
			c-6.4-3.5-13.4-5.5-21.1-6v13.4c0,2-1,3-3,3c-5.8,0-11.1,1.2-15.9,3.6c-4.8,2.4-8.8,5.6-12.2,9.6c-3.3,4-5.9,8.6-7.7,13.8
			c-1.8,5.2-2.7,10.5-2.7,16.1c0,5.4,0.9,10.7,2.7,15.9c1.8,5.2,4.4,9.8,7.8,13.8c3.4,4,7.5,7.2,12.2,9.6c4.7,2.4,10,3.6,15.8,3.6
			c5.8,0,11.1-1.2,15.9-3.6c4.8-2.4,8.9-5.6,12.3-9.5s6-8.5,7.8-13.7c1.8-5.2,2.7-10.5,2.7-16.1c0-9.1-2.2-17.2-6.5-24.4
			c-4.3-7.2-10.2-12.4-17.7-15.7c-0.8-0.3-1.3-0.8-1.6-1.6c-0.3-0.8-0.3-1.6,0.1-2.4c0.4-1.3,1.3-1.9,2.8-1.9c0.5,0,0.9,0.1,1.1,0.2
			c4.3,1.9,8.1,4.4,11.5,7.5c3.4,3.1,6.3,6.6,8.8,10.6c2.5,4,4.3,8.3,5.7,12.9c1.3,4.7,2,9.6,2,14.7c0,6.4-1.1,12.6-3.3,18.5
			c-2.2,5.9-5.3,11.1-9.2,15.7c-3.9,4.5-8.6,8.2-14.2,10.9c-5.5,2.7-11.6,4.1-18.3,4.1c-6.7,0-12.7-1.4-18.2-4.2
			c-5.5-2.8-10.2-6.4-14.2-11c-4-4.5-7-9.8-9.2-15.7c-2.1-5.9-3.2-12-3.2-18.3c0-6,1-11.9,2.9-17.7c2-5.7,4.8-10.8,8.4-15.3
			c3.7-4.5,8-8.2,13.1-11.1c5.1-3,10.8-4.6,17.1-5v-13.6c0-2,1.1-3,3.2-3c8.9,0,17.1,1.9,24.6,5.6c7.4,3.7,13.8,8.6,19.3,14.7
			c5.4,6.1,9.6,13.1,12.7,21.1c3,7.9,4.5,16.2,4.5,24.7c0,8.6-1.5,16.8-4.5,24.8c-3,8-7.2,15-12.7,21.2c-5.4,6.1-11.9,11-19.4,14.6
			c-7.5,3.7-15.6,5.5-24.5,5.5c-8.9,0-17.2-1.8-24.6-5.5c-7.5-3.7-13.9-8.5-19.4-14.6c-5.4-6.1-9.6-13.2-12.7-21.2
			C464.4-387.2,462.9-395.4,462.9-404z M505.6-466c0.4-1.5,1.4-2.3,3.2-2.3c0.5,0,0.9,0.1,1.1,0.2c0.9,0.3,1.5,0.8,1.9,1.7
			c0.4,0.9,0.4,1.8,0.2,2.6c-0.6,1.6-1.7,2.5-3.2,2.5c-1.5-0.5-2.5-1.2-3-2c-0.5-0.8-0.6-1.7-0.2-2.5V-466z"/>
		<path class="st0" d="M598.5-336.8c-0.8-0.5-1.2-1.2-1.4-2.1c-0.2-0.9,0-1.6,0.5-2.3l49.1-77.2l-29.3-46.3
			c-1.1-1.8-0.8-3.2,0.9-4.3c0.5-0.3,1-0.4,1.5-0.4c1.1,0,2,0.4,2.6,1.3l30.4,48c0.9,1,0.9,2.1,0,3.2l-50.2,78.9
			c-0.6,1-1.5,1.5-2.6,1.5C599.5-336.4,599-336.5,598.5-336.8z M629.8-414.2l-32.1-50.4c-0.5-0.8-0.6-1.5-0.4-2.4
			c0.3-0.8,0.7-1.5,1.3-2c0.8-0.3,1.3-0.4,1.7-0.4c1.1,0,2,0.4,2.6,1.3l32.1,50.4c0.9,1.8,0.6,3.2-0.9,4.3c-0.5,0.4-1.1,0.6-1.7,0.6
			C631.4-412.7,630.5-413.2,629.8-414.2z M625.3-345.1c-0.5,0-1.1-0.2-1.7-0.6c-0.6-0.5-1.1-1.2-1.3-2c-0.3-0.8-0.1-1.6,0.4-2.4
			l14.9-23.4c0.8-0.9,1.6-1.3,2.6-1.3c0.8,0,1.3,0.1,1.7,0.4c1.8,1.1,2.1,2.6,0.9,4.3L628-346.6
			C627.3-345.6,626.4-345.1,625.3-345.1z M647.6-385.7c-0.6-1-0.6-2.1,0-3.4l50.2-78.9c0.6-0.9,1.5-1.3,2.6-1.3
			c0.4,0,0.9,0.1,1.7,0.4c0.6,0.5,1.1,1.2,1.3,2c0.3,0.8,0.1,1.6-0.4,2.4l-49.3,77.2l23.6,37.2c1.1,1.8,0.8,3.2-0.9,4.3
			c-0.5,0.3-1,0.4-1.5,0.4c-1.3,0-2.1-0.4-2.6-1.3L647.6-385.7z M658.6-431.4c-0.6-0.5-1.1-1.2-1.3-2c-0.3-0.8-0.1-1.6,0.4-2.4
			l14.9-23.2c0.6-1,1.5-1.5,2.6-1.5c0.6,0,1.1,0.2,1.5,0.6c1.8,1.1,2.1,2.6,0.9,4.3l-14.7,23.2c-0.5,0.9-1.4,1.3-2.6,1.3
			C659.5-431,658.9-431.1,658.6-431.4z M702.8-341.1c0.5,0.6,0.7,1.4,0.5,2.3c-0.2,0.9-0.7,1.6-1.4,2.1c-0.5,0.3-1.1,0.4-1.7,0.4
			c-1,0-1.9-0.5-2.6-1.5l-31.9-50.2c-1.1-1.8-0.8-3.2,0.9-4.3c0.6-0.4,1.2-0.6,1.7-0.6c1.1,0,2,0.5,2.6,1.5L702.8-341.1z
			 M677.4-467.5c0.4-1.5,1.4-2.3,3.2-2.3c0.5,0,0.9,0.1,1.1,0.2c0.9,0.3,1.5,0.8,1.9,1.6c0.4,0.8,0.4,1.7,0.2,2.7
			c-0.5,1.5-1.6,2.3-3.2,2.3c-1.4-0.4-2.3-1-2.8-1.8c-0.5-0.8-0.6-1.7-0.4-2.5V-467.5z"/>
	</g>
</g>
</svg>
