<?xml version="1.0" encoding="utf-8"?>
<!-- Generator: Adobe Illustrator 25.3.1, SVG Export Plug-In . SVG Version: 6.00 Build 0)  -->
<!DOCTYPE svg PUBLIC "-//W3C//DTD SVG 1.1//EN" "http://www.w3.org/Graphics/SVG/1.1/DTD/svg11.dtd" [
	<!ENTITY ns_extend "http://ns.adobe.com/Extensibility/1.0/">
	<!ENTITY ns_ai "http://ns.adobe.com/AdobeIllustrator/10.0/">
	<!ENTITY ns_graphs "http://ns.adobe.com/Graphs/1.0/">
	<!ENTITY ns_vars "http://ns.adobe.com/Variables/1.0/">
	<!ENTITY ns_imrep "http://ns.adobe.com/ImageReplacement/1.0/">
	<!ENTITY ns_sfw "http://ns.adobe.com/SaveForWeb/1.0/">
	<!ENTITY ns_custom "http://ns.adobe.com/GenericCustomNamespace/1.0/">
	<!ENTITY ns_adobe_xpath "http://ns.adobe.com/XPath/1.0/">
]>
<svg version="1.1" id="Слой_1" xmlns:x="&ns_extend;" xmlns:i="&ns_ai;" xmlns:graph="&ns_graphs;"
	 xmlns="http://www.w3.org/2000/svg" xmlns:xlink="http://www.w3.org/1999/xlink" x="0px" y="0px" viewBox="0 0 247.4 564.5"
	 style="enable-background:new 0 0 247.4 564.5;" xml:space="preserve">
<style type="text/css">
	.st0{fill:#FF9200;}
</style>
<metadata>
	<sfw  xmlns="&ns_sfw;">
		<slices></slices>
		<sliceSourceBounds  bottomLeftOrigin="true" height="1650.3" width="1366" x="-2.1" y="-267.3"></sliceSourceBounds>
	</sfw>
</metadata>
<g id="Слой_2_1_">
</g>
<g id="Слой_4">
</g>
<g id="Слой_3">
	<g>
		<path class="st0" d="M520.6,748c-0.2-0.2-0.2-0.3-0.2-0.3c-0.2-0.4-0.3-1.1-0.5-1.9l-0.4-3.5c-0.1-2.8-0.2-6.2-0.2-9.7v-1.7
			c0-6.4,0.3-12.8,1-14.7c0.2-0.3,0.7-0.3,1.2,0.1c0.4,0.3,0.8,0.9,0.6,1.2c-0.6,1.9-0.9,9-0.9,16.1c0,3.5,0.1,7,0.3,9.7
			c0.9-2.2,4.4-6.7,6.8-6.3c0.5,0.1,1.1,0.3,1.6,0.8l0.3,0.2c1.1,1,1.5,2.3,1.5,3.6c0,0.8-0.2,1.6-0.4,2.2l-0.4,0.9
			c2.6-0.4,7-2.9,8.9-4.5c0.5-0.5,0.2,1.1-0.3,1.8c-2,2.7-5.8,4.8-10.6,4.8h-0.4l-0.2,0.1c-0.9,0.2-4,0-5.2-0.8L523,746l-0.2,0.5
			l-0.3,1.5c0.1,0.4-0.1,0.6-0.1,0.8c-0.1,0-0.1,0.1-0.2,0.2c-0.1,0-0.3,0.2-0.9-0.1C520.9,748.4,520.6,748,520.6,748z M525,745
			c2.5,0,4.6-2.2,4.6-4.8c0-0.8-0.2-1.3-0.5-1.6l-0.2-0.2h-0.1c-1.8,0.6-3.2,2.8-5.6,6.2l0.1,0.1C523.9,744.9,524.5,745,525,745z"/>
		<path class="st0" d="M550,742.9c-1.6,2.1-4,4.3-5.8,4.3s-3.5-1.3-4.2-3.1c-0.3-0.8-0.5-1.7-0.5-2.6c0-0.8,0.1-1.5,0.4-2.2
			c0.2-0.6,0.5-1.1,1.1-1.3c0.3-0.1,0.9,0.1,1.3,0.5s0.4,0.9,0.2,1c-0.2,0.1-0.5,0.4-0.8,0.9c-0.1,0.5-0.3,1.2-0.3,2
			c0.1,0.9,0.2,2.4,1.1,3c2.3,1.3,7-5,7.1-6.8c0-0.1,0.1-0.2,0.2-0.2c-0.1-0.1-0.1-0.1,0-0.1c0.1-0.1,0.3-0.2,0.5-0.2
			c0.5,0,1.5,0.6,1.5,1.2c0.1,0.1,0.3,2.3,0.4,5.5v0.2l0.1-0.1c1.5-0.9,8.3-4.2,9.6-3.1c0.5,0.4,0.4,0.5,0,0.6
			c-2.2,0.6-5.7,2.6-8,3.9l-1.6,1.1l-0.1,0.6l-0.2,5c-0.4,6.8-1.9,14.2-6.6,15.2c-1.4,0.3-3.5-0.6-5-2.1s-2.3-3.5-2.1-5.4
			c0.8-4.2,5.1-9.6,10.6-13.6l1.3-1L550,742.9z M550.2,748.9L549,750c-4.4,4-8,8.4-8.6,12c-0.3,1.7,0.5,3,1.1,3.8
			c0.8,0.8,1.8,1.2,2.5,1C548.1,766,550.3,756.5,550.2,748.9z"/>
		<path class="st0" d="M583.9,741.4c0.2,0.7,0.3,1.5,0.1,2.3c-0.5,2.7-2.7,4-5.2,3.9c-2-0.1-3.3-1.8-3.6-3.3c-0.4-2.3,1-4.9,2.3-5.3
			c0.1,0,0.2-0.1,0.3-0.1c0.2-0.8,0.6-1.4,1.7-1.3c1.5,0.2,2.6,0.9,3.5,1.9c1.4,0.2,2.8,0.2,4,0.2c2.5,0,4.6-0.2,5.1-0.2
			c1.6-0.1,1.2,0.6-0.1,1.1C590.7,741.1,587.2,741.6,583.9,741.4z M577.1,744.2c0.3,1.6,0.9,2.2,1.9,2.1c2.4-0.1,3.6-3.2,2.7-5.1
			c-1.2-0.2-2.3-0.5-3-1l-0.1,0.1C577.9,740.8,576.8,742.7,577.1,744.2z"/>
		<path class="st0" d="M592.7,748.1c-1-1.6-1.4-5.5-1.4-9.9c0-9,1.5-20.6,2.2-22.8c0.1-0.3,0.4-0.4,0.9-0.2c0.5,0.3,1,0.7,1,1
			c-0.3,1-1.9,14-1.9,23.3c0,4.8,0.4,8.6,1.6,9.5c2.8,1.7,9.3-7.1,10.2-8.1c0.5-0.8,0.6,0.6,0.4,1.2c-1,2.7-5.3,8.5-8.7,8.5
			C595.3,750.5,593.8,749.6,592.7,748.1z"/>
		<path class="st0" d="M612.7,741.4c0.2,0.7,0.3,1.5,0.1,2.3c-0.5,2.7-2.7,4-5.2,3.9c-2-0.1-3.3-1.8-3.6-3.3c-0.4-2.3,1-4.9,2.3-5.3
			c0.1,0,0.2-0.1,0.3-0.1c0.2-0.8,0.6-1.4,1.7-1.3c1.5,0.2,2.6,0.9,3.5,1.9c1.4,0.2,2.8,0.2,4,0.2c2.5,0,4.6-0.2,5.1-0.2
			c1.6-0.1,1.2,0.6-0.1,1.1C619.5,741.1,616,741.6,612.7,741.4z M605.9,744.2c0.3,1.6,0.9,2.2,1.9,2.1c2.4-0.1,3.6-3.2,2.7-5.1
			c-1.2-0.2-2.3-0.5-3-1l-0.1,0.1C606.7,740.8,605.7,742.7,605.9,744.2z"/>
		<path class="st0" d="M632.7,747.1c-2.7,0-6-1-8-3.5c-1.2,1.5-1.8,4.2-1.9,6.7c0,0.8-1.5,0.1-1.8-0.8c-0.1-1.9-0.2-3.9-0.2-5.9
			c0-9.6,0.5-19.9,0.6-26.6c0-0.3,0.5-0.5,1-0.3c0.6,0.2,1.1,0.6,1.1,0.9c-0.2,7-0.3,14.7-0.8,24.9c1.7-2.9,4.1-6.4,7.2-6.7
			c1.2-0.1,1.9,0.8,2.2,1.4c0.8,2-3,5.1-5.6,5.8c0.9,1.1,3.7,2.3,5.9,2.1c3.9-0.3,8.5-3.4,10.7-5.2c0.7-0.6,0.1,1.7-0.9,2.6
			C641.3,743.5,637.9,747.1,632.7,747.1z M625.6,742c1.3-0.1,5-3.2,4.6-4.6C629.5,737.1,627.7,738.6,625.6,742z"/>
		<path class="st0" d="M643,738c0-0.4,0.5-0.4,1.1-0.1c0.5,0.3,0.8,0.8,0.8,1.1l-0.1,2.1c1.3-1.7,5.3-4.9,8.3-4.4
			c1.2,0.2,2,1.4,1.6,1.8c-0.8,0.9-1.5,0.5-1.5,0.1l0.1-0.4c-2.7-0.1-7.2,3.2-8.5,7c-0.2,0.4-0.2,0.8-0.4,2.3c0.1,0.7-1.7,0-1.9-0.8
			C642.4,746.2,642.3,744.8,643,738z"/>
		<path class="st0" d="M656.5,744.1c-0.2-0.5-0.3-1-0.3-1.6c0-2.4,1.6-4.8,4.3-4.9c1.7,0,3.2,1.6,2.6,3.2c-0.7,1.7-3,3-4.9,3
			c0.2,1,2.1,2.8,3.9,2.8c5.1,0,8.9-3.8,11.1-6.2c1.2-1.3,1-0.1,0.3,1.5c-1.5,3.1-5,5.8-8.7,6C661.7,748,657.6,747.4,656.5,744.1z
			 M658.2,742.5c2.3-1,3.8-2.5,3.2-3.1C660.2,738.3,658.1,741.2,658.2,742.5z"/>
		<path class="st0" d="M671.4,743.3c0-1.2,0.6-2.4,1.9-3.3c1.5-1,3.3-1.5,5.2-1.5c1.5,0,3,0.3,4.4,0.9h0.1l0.9-1.2
			c0.3-0.6,2.2,0.6,1.8,1.2c-0.3,0.8-0.8,1.8-0.9,2.8c-0.1,0.9,0.2,2,1.2,2.3c2.8,0.5,7.4-2.2,9.3-4.4c0.9-0.9,1.7,0.4-1.2,3.4
			c-1.3,1.3-5.1,3.1-7.3,2.5c-1.8-0.4-3.1-1.5-3.8-3.4c-1.5,1.3-5.1,4.1-7.9,4.1c-0.7,0-1.3-0.2-1.9-0.5
			C672,745.4,671.4,744.4,671.4,743.3z M682,740.5c-0.5-0.2-1.3-0.3-2.1-0.3c-2.7,0-6.3,1-6.9,3.5c-0.2,0.6,0.2,1.2,1,1.3
			C676.6,744.7,680.1,742.5,682,740.5z"/>
		<path class="st0" d="M695.4,747.1c-0.1,0-0.2,0-0.3-0.1c-0.1,0-0.4-0.2-0.7-0.6c-0.2-0.5-0.1-0.8,0-0.9c0-0.1,0.1-0.1,0.2-0.1
			l0.1-0.1c2.2-1.3,5.2-2.9,7.5-4.8l0.3-0.3l-2.4,0.3c-1.7,0.2-3.4,0.4-5,0.4c-0.4,0-0.8-0.3-1-0.8s-0.1-0.9,0.3-0.9
			c3.2-0.1,6.6-0.6,10.1-1c0.8-0.1,1.6,0.9,1.2,1.4c-1.7,2.1-4.4,3.9-6.9,5.3l-0.1,0.1h0.5c0.9-0.1,1.8-0.1,2.8-0.1
			c1.5,0,2.9,0.1,4.2,0.3c0.5,0.1,0.9,0.5,1,1c0.1,0.4-0.2,0.7-0.7,0.6c-1.1-0.3-2.7-0.4-4.1-0.4c-0.9,0-1.7,0.1-2.5,0.1l-3,0.2
			c-0.4,0.1-0.6,0.1-1,0.1h-0.5V747.1z"/>
	</g>
</g>
<g>
	<path d="M241.9,250.2c3.7,0,5.5-1.7,5.5-5.1V59.9c0-3.4-1.8-5.1-5.5-5.1c-3.9,0-5.9,1.7-5.9,5.1v179.8h-92.2
		c-1.8,0-3.3,0.5-4.3,1.6s-1.6,2.3-1.6,3.8c0,3.4,2,5.1,5.9,5.1H241.9z M216.2,88.7c0-3.4-1.8-5.1-5.5-5.1c-1.6,0-3,0.5-4.2,1.4
		c-1.2,1-1.7,2.2-1.7,3.7v130.8c0,1.5,0.6,2.7,1.7,3.7c1.2,1,2.5,1.4,4.2,1.4c3.7,0,5.5-1.7,5.5-5.1V88.7z M215.9,272.6
		c0-1.5-0.6-2.7-1.7-3.7c-1.2-1-2.5-1.4-4.2-1.4h-85.3c-3.7,0-5.5,1.7-5.5,5.1c0,1.5,0.5,2.8,1.6,3.8c1,1.1,2.4,1.6,4,1.6h85.3
		c1.6,0,3-0.5,4.2-1.6C215.3,275.4,215.9,274.1,215.9,272.6z M124.4,250.9c2.5-0.6,4.3-1.7,5.2-3.2s1.2-3,0.7-4.5v-0.3
		c-1.2-2.6-3.1-3.8-5.9-3.8c-0.5,0-0.8,0.1-1,0.2s-0.6,0.2-1,0.2c-1.8,0.4-3.1,1.4-3.8,2.9s-0.7,3,0,4.5v0.3
		C119.2,249.6,121.1,250.9,124.4,250.9z"/>
	<path d="M6.6,250.2c-3.7,0-5.5-1.7-5.5-5.1V59.9c0-3.4,1.8-5.1,5.5-5.1c3.9,0,5.9,1.7,5.9,5.1v179.8h92.2c1.8,0,3.3,0.5,4.3,1.6
		s1.6,2.3,1.6,3.8c0,3.4-2,5.1-5.9,5.1H6.6z M32.2,88.7c0-3.4,1.8-5.1,5.5-5.1c1.6,0,3,0.5,4.2,1.4c1.2,1,1.7,2.2,1.7,3.7v130.8
		c0,1.5-0.6,2.7-1.7,3.7c-1.2,1-2.5,1.4-4.2,1.4c-3.7,0-5.5-1.7-5.5-5.1V88.7z M32.6,272.6c0-1.5,0.6-2.7,1.7-3.7
		c1.2-1,2.5-1.4,4.2-1.4h85.3c3.7,0,5.5,1.7,5.5,5.1c0,1.5-0.5,2.8-1.6,3.8c-1,1.1-2.4,1.6-4,1.6H38.4c-1.6,0-3-0.5-4.2-1.6
		C33.2,275.4,32.6,274.1,32.6,272.6z M124.1,250.9c-2.5-0.6-4.3-1.7-5.2-3.2s-1.2-3-0.7-4.5v-0.3c1.2-2.6,3.1-3.8,5.9-3.8
		c0.5,0,0.8,0.1,1,0.2s0.6,0.2,1,0.2c1.8,0.4,3.1,1.4,3.8,2.9s0.7,3,0,4.5v0.3C129.3,249.6,127.3,250.9,124.1,250.9z"/>
	<path d="M116.1,217.8V116.7h26c1.6,0,2.9-0.5,4-1.6c1-1.1,1.6-2.3,1.6-3.8V29.7c0-3.6-1.9-5.4-5.5-5.4c-1.6,0-3,0.5-4.2,1.4
		c-1.2,1-1.7,2.3-1.7,4v76.4h-25.7c-1.6,0-3,0.5-4.2,1.4c-1.2,1-1.7,2.2-1.7,3.7v101.4H41.6c-3.9,0-5.9,1.7-5.9,5.1
		c0,3.6,2,5.4,5.9,5.4h69C114.3,223.2,116.1,221.4,116.1,217.8z M83.9,195.1c1.6,0,2.9-0.5,4-1.6c1-1.1,1.6-2.3,1.6-3.8
		c0-3.4-1.9-5.1-5.5-5.1H41.6c-3.9,0-5.9,1.7-5.9,5.1c0,1.5,0.5,2.8,1.6,3.8c1,1.1,2.5,1.6,4.3,1.6H83.9z M116.5,5.1
		c0-3.4-1.9-5.1-5.5-5.1c-1.6,0-3,0.5-4.2,1.4c-1.2,1-1.7,2.2-1.7,3.7v77.1c0,1.7,0.6,3,1.7,4c1.2,1,2.5,1.4,4.2,1.4
		c3.7,0,5.5-1.8,5.5-5.4V5.1z M142.1,223.2h45.1c3.7,0,5.5-1.8,5.5-5.4c0-3.4-1.9-5.1-5.5-5.1h-45.1c-1.6,0-3,0.5-4.2,1.4
		c-1.2,1-1.7,2.2-1.7,3.7c0,1.7,0.6,3,1.7,4C139.1,222.7,140.5,223.2,142.1,223.2z M136.2,139.7v49.9c0,1.5,0.6,2.8,1.7,3.8
		c1.2,1.1,2.5,1.6,4.2,1.6h64.1c1.8,0,3.3-0.5,4.3-1.6s1.6-2.3,1.6-3.8c0-3.4-2-5.1-5.9-5.1h-58.6v-44.8c0-3.4-1.9-5.1-5.5-5.1
		c-1.6,0-3,0.5-4.2,1.4C136.8,137,136.2,138.2,136.2,139.7z M208.3,223.5c1.8-0.4,3.1-1.4,3.8-2.9c0.7-1.5,0.8-3,0.3-4.5h-0.3
		c-0.7-2.8-2.7-4.2-5.9-4.2c-2.5,0.8-4.3,2-5.2,3.4c-0.9,1.4-1.2,2.8-0.7,4.3l0.3,0.3c0.7,2.6,2.7,3.8,5.9,3.8
		C207.5,223.9,208.1,223.8,208.3,223.5z"/>
	<path d="M241.9,314.2c3.7,0,5.5,1.7,5.5,5.1v185.3c0,3.4-1.8,5.1-5.5,5.1c-3.9,0-5.9-1.7-5.9-5.1V324.8h-92.2
		c-1.8,0-3.3-0.5-4.3-1.6s-1.6-2.3-1.6-3.8c0-3.4,2-5.1,5.9-5.1h98.1V314.2z M216.2,475.8c0,3.4-1.8,5.1-5.5,5.1
		c-1.6,0-3-0.5-4.2-1.4c-1.2-1-1.7-2.2-1.7-3.7V344.9c0-1.5,0.6-2.7,1.7-3.7c1.2-1,2.5-1.4,4.2-1.4c3.7,0,5.5,1.7,5.5,5.1V475.8z
		 M215.9,291.9c0,1.5-0.6,2.7-1.7,3.7c-1.2,1-2.5,1.4-4.2,1.4h-85.3c-3.7,0-5.5-1.7-5.5-5.1c0-1.5,0.5-2.8,1.6-3.8
		c1-1.1,2.4-1.6,4-1.6h85.3c1.6,0,3,0.5,4.2,1.6C215.3,289.1,215.9,290.4,215.9,291.9z M124.4,313.6c2.5,0.6,4.3,1.7,5.2,3.2
		s1.2,3,0.7,4.5v0.3c-1.2,2.6-3.1,3.8-5.9,3.8c-0.5,0-0.8-0.1-1-0.2s-0.6-0.2-1-0.2c-1.8-0.4-3.1-1.4-3.8-2.9s-0.7-3,0-4.5v-0.3
		C119.2,314.9,121.1,313.6,124.4,313.6z"/>
	<path d="M6.6,314.2c-3.7,0-5.5,1.7-5.5,5.1v185.3c0,3.4,1.8,5.1,5.5,5.1c3.9,0,5.9-1.7,5.9-5.1V324.8h92.2c1.8,0,3.3-0.5,4.3-1.6
		s1.6-2.3,1.6-3.8c0-3.4-2-5.1-5.9-5.1H6.6V314.2z M32.2,475.8c0,3.4,1.8,5.1,5.5,5.1c1.6,0,3-0.5,4.2-1.4c1.2-1,1.7-2.2,1.7-3.7
		V344.9c0-1.5-0.6-2.7-1.7-3.7c-1.2-1-2.5-1.4-4.2-1.4c-3.7,0-5.5,1.7-5.5,5.1V475.8z M32.6,291.9c0,1.5,0.6,2.7,1.7,3.7
		c1.2,1,2.5,1.4,4.2,1.4h85.3c3.7,0,5.5-1.7,5.5-5.1c0-1.5-0.5-2.8-1.6-3.8c-1-1.1-2.4-1.6-4-1.6H38.4c-1.6,0-3,0.5-4.2,1.6
		C33.2,289.1,32.6,290.4,32.6,291.9z M124.1,313.6c-2.5,0.6-4.3,1.7-5.2,3.2s-1.2,3-0.7,4.5v0.3c1.2,2.6,3.1,3.8,5.9,3.8
		c0.5,0,0.8-0.1,1-0.2s0.6-0.2,1-0.2c1.8-0.4,3.1-1.4,3.8-2.9s0.7-3,0-4.5v-0.3C129.3,314.9,127.3,313.6,124.1,313.6z"/>
	<path d="M116.1,346.7v101.1h26c1.6,0,2.9,0.5,4,1.6c1,1.1,1.6,2.3,1.6,3.8v81.6c0,3.6-1.9,5.4-5.5,5.4c-1.6,0-3-0.5-4.2-1.4
		c-1.2-1-1.7-2.3-1.7-4v-76.4h-25.7c-1.6,0-3-0.5-4.2-1.4c-1.2-1-1.7-2.2-1.7-3.7V351.8H41.6c-3.9,0-5.9-1.7-5.9-5.1
		c0-3.6,2-5.4,5.9-5.4h69C114.3,341.3,116.1,343.1,116.1,346.7z M83.9,369.4c1.6,0,2.9,0.5,4,1.6c1,1.1,1.6,2.3,1.6,3.8
		c0,3.4-1.9,5.1-5.5,5.1H41.6c-3.9,0-5.9-1.7-5.9-5.1c0-1.5,0.5-2.8,1.6-3.8c1-1.1,2.5-1.6,4.3-1.6H83.9z M116.5,559.4
		c0,3.4-1.9,5.1-5.5,5.1c-1.6,0-3-0.5-4.2-1.4c-1.2-1-1.7-2.2-1.7-3.7v-77.1c0-1.7,0.6-3,1.7-4c1.2-1,2.5-1.4,4.2-1.4
		c3.7,0,5.5,1.8,5.5,5.4V559.4z M142.1,341.3h45.1c3.7,0,5.5,1.8,5.5,5.4c0,3.4-1.9,5.1-5.5,5.1h-45.1c-1.6,0-3-0.5-4.2-1.4
		c-1.2-1-1.7-2.2-1.7-3.7c0-1.7,0.6-3,1.7-4C139.1,341.7,140.5,341.3,142.1,341.3z M136.2,424.8v-49.9c0-1.5,0.6-2.8,1.7-3.8
		c1.2-1.1,2.5-1.6,4.2-1.6h64.1c1.8,0,3.3,0.5,4.3,1.6s1.6,2.3,1.6,3.8c0,3.4-2,5.1-5.9,5.1h-58.6v44.8c0,3.4-1.9,5.1-5.5,5.1
		c-1.6,0-3-0.5-4.2-1.4C136.8,427.5,136.2,426.2,136.2,424.8z M208.3,340.9c1.8,0.4,3.1,1.4,3.8,2.9c0.7,1.5,0.8,3,0.3,4.5h-0.3
		c-0.7,2.8-2.7,4.2-5.9,4.2c-2.5-0.8-4.3-2-5.2-3.4c-0.9-1.4-1.2-2.8-0.7-4.3l0.3-0.3c0.7-2.6,2.7-3.8,5.9-3.8
		C207.5,340.6,208.1,340.7,208.3,340.9z"/>
</g>
<g>
	<path class="st0" d="M-346.4,884.2c0-6,0.8-12,2.4-17.9c1.6-5.9,3.8-11.5,6.8-16.7c3-5.2,6.6-10,10.9-14.3
		c4.3-4.3,9.1-7.8,14.5-10.6c0.3-0.3,0.8-0.4,1.5-0.4c1.1,0,2,0.5,2.6,1.5c0.5,0.9,0.6,1.7,0.3,2.5c-0.3,0.8-0.9,1.4-1.6,1.8
		c-4.9,2.6-9.3,5.9-13.2,9.7c-3.9,3.8-7.2,8.1-9.8,12.8c-2.6,4.7-4.7,9.8-6,15.1c-1.4,5.4-2.1,10.8-2.1,16.3
		c0,7.7,1.4,15.1,4.1,22.4c2.7,7.2,6.5,13.6,11.3,19.2c4.8,5.5,10.6,10,17.4,13.3c6.7,3.3,14.1,5,22.2,5c8.1,0,15.4-1.7,22.1-5
		c6.7-3.3,12.4-7.8,17.3-13.4c4.8-5.6,8.6-12,11.3-19.2c2.7-7.2,4.1-14.6,4.1-22.3c0-7.4-1.3-14.6-3.8-21.6c-2.5-7-6-13.2-10.6-18.7
		s-10-10-16.3-13.5c-6.4-3.5-13.4-5.5-21.1-6v13.4c0,2-1,3-3,3c-5.8,0-11.1,1.2-15.9,3.6c-4.8,2.4-8.8,5.6-12.2,9.6
		c-3.3,4-5.9,8.6-7.7,13.8c-1.8,5.2-2.7,10.5-2.7,16.1c0,5.4,0.9,10.7,2.7,15.9c1.8,5.2,4.4,9.8,7.8,13.8c3.4,4,7.5,7.2,12.2,9.6
		c4.7,2.4,10,3.6,15.8,3.6c5.8,0,11.1-1.2,15.9-3.6c4.8-2.4,8.9-5.6,12.3-9.5c3.4-4,6-8.5,7.8-13.7c1.8-5.2,2.7-10.5,2.7-16.1
		c0-9.1-2.2-17.2-6.5-24.4c-4.3-7.2-10.2-12.4-17.7-15.7c-0.8-0.3-1.3-0.8-1.6-1.6c-0.3-0.8-0.3-1.6,0.1-2.4
		c0.4-1.3,1.3-1.9,2.8-1.9c0.5,0,0.9,0.1,1.1,0.2c4.3,1.9,8.1,4.4,11.5,7.5c3.4,3.1,6.3,6.6,8.8,10.6c2.5,4,4.3,8.3,5.7,12.9
		c1.3,4.7,2,9.6,2,14.7c0,6.4-1.1,12.6-3.3,18.5c-2.2,5.9-5.3,11.1-9.2,15.7c-3.9,4.5-8.6,8.2-14.2,10.9c-5.5,2.7-11.6,4.1-18.3,4.1
		c-6.7,0-12.7-1.4-18.2-4.2c-5.5-2.8-10.2-6.4-14.2-11c-4-4.5-7-9.8-9.2-15.7c-2.1-5.9-3.2-12-3.2-18.3c0-6,1-11.9,2.9-17.7
		c2-5.7,4.8-10.8,8.4-15.3c3.7-4.5,8-8.2,13.1-11.1c5.1-3,10.8-4.6,17.1-5v-13.6c0-2,1.1-3,3.2-3c8.9,0,17.1,1.9,24.6,5.6
		c7.4,3.7,13.8,8.6,19.3,14.7c5.4,6.1,9.6,13.1,12.7,21.1c3,7.9,4.5,16.2,4.5,24.7c0,8.6-1.5,16.8-4.5,24.8c-3,8-7.2,15-12.7,21.2
		c-5.4,6.1-11.9,11-19.4,14.6c-7.5,3.7-15.6,5.5-24.5,5.5c-8.9,0-17.2-1.8-24.6-5.5c-7.5-3.7-13.9-8.5-19.4-14.6
		c-5.4-6.1-9.6-13.2-12.7-21.2C-344.9,901.1-346.4,892.8-346.4,884.2z M-303.7,822.3c0.4-1.5,1.4-2.3,3.2-2.3c0.5,0,0.9,0.1,1.1,0.2
		c0.9,0.3,1.5,0.8,1.9,1.7c0.4,0.9,0.4,1.8,0.2,2.6c-0.6,1.6-1.7,2.5-3.2,2.5c-1.5-0.5-2.5-1.2-3-2c-0.5-0.8-0.6-1.7-0.2-2.5V822.3z
		"/>
	<path class="st0" d="M-205.5,933.4c-2,0-3-1-3-3V821c0-2,1-3,3-3c2.1,0,3.2,1,3.2,3v106.1h50.2c1,0,1.8,0.3,2.4,0.9
		c0.6,0.6,0.8,1.4,0.8,2.3c0,2-1.1,3-3.2,3H-205.5z M-191.5,838c0-2,1-3,3-3c0.9,0,1.6,0.3,2.3,0.9c0.6,0.6,0.9,1.3,0.9,2.2v77.2
		c0,0.9-0.3,1.6-0.9,2.2c-0.6,0.6-1.4,0.9-2.3,0.9c-2,0-3-1-3-3V838z M-191.3,946.6c0-0.9,0.3-1.6,0.9-2.2c0.6-0.6,1.4-0.9,2.3-0.9
		h46.5c2,0,3,1,3,3c0,0.9-0.3,1.6-0.9,2.3c-0.6,0.6-1.3,0.9-2.2,0.9h-46.5c-0.9,0-1.6-0.3-2.3-0.9
		C-191,948.2-191.3,947.5-191.3,946.6z M-141.5,933.7c-1.4-0.4-2.3-1-2.8-1.9c-0.5-0.9-0.6-1.8-0.4-2.6V929c0.6-1.5,1.7-2.3,3.2-2.3
		c0.3,0,0.4,0,0.6,0.1c0.1,0.1,0.3,0.1,0.6,0.1c1,0.3,1.7,0.8,2.1,1.7c0.4,0.9,0.4,1.8,0,2.6v0.2
		C-138.6,933-139.7,933.7-141.5,933.7z"/>
	<path class="st0" d="M-122.2,884.2c0-6,0.8-12,2.4-17.9c1.6-5.9,3.8-11.5,6.8-16.7c3-5.2,6.6-10,10.9-14.3
		c4.3-4.3,9.1-7.8,14.5-10.6c0.3-0.3,0.8-0.4,1.5-0.4c1.1,0,2,0.5,2.6,1.5c0.5,0.9,0.6,1.7,0.3,2.5c-0.3,0.8-0.9,1.4-1.6,1.8
		c-4.9,2.6-9.3,5.9-13.2,9.7c-3.9,3.8-7.2,8.1-9.8,12.8c-2.6,4.7-4.7,9.8-6,15.1c-1.4,5.4-2.1,10.8-2.1,16.3
		c0,7.7,1.4,15.1,4.1,22.4c2.7,7.2,6.5,13.6,11.3,19.2c4.8,5.5,10.6,10,17.4,13.3c6.7,3.3,14.1,5,22.2,5c8.1,0,15.4-1.7,22.1-5
		c6.7-3.3,12.4-7.8,17.3-13.4c4.8-5.6,8.6-12,11.3-19.2c2.7-7.2,4.1-14.6,4.1-22.3c0-7.4-1.3-14.6-3.8-21.6c-2.5-7-6-13.2-10.6-18.7
		s-10-10-16.3-13.5c-6.4-3.5-13.4-5.5-21.1-6v13.4c0,2-1,3-3,3c-5.8,0-11.1,1.2-15.9,3.6c-4.8,2.4-8.8,5.6-12.2,9.6
		c-3.3,4-5.9,8.6-7.7,13.8c-1.8,5.2-2.7,10.5-2.7,16.1c0,5.4,0.9,10.7,2.7,15.9c1.8,5.2,4.4,9.8,7.8,13.8c3.4,4,7.5,7.2,12.2,9.6
		c4.7,2.4,10,3.6,15.8,3.6c5.8,0,11.1-1.2,15.9-3.6c4.8-2.4,8.9-5.6,12.3-9.5c3.4-4,6-8.5,7.8-13.7c1.8-5.2,2.7-10.5,2.7-16.1
		c0-9.1-2.2-17.2-6.5-24.4c-4.3-7.2-10.2-12.4-17.7-15.7c-0.8-0.3-1.3-0.8-1.6-1.6c-0.3-0.8-0.3-1.6,0.1-2.4
		c0.4-1.3,1.3-1.9,2.8-1.9c0.5,0,0.9,0.1,1.1,0.2c4.3,1.9,8.1,4.4,11.5,7.5c3.4,3.1,6.3,6.6,8.8,10.6c2.5,4,4.3,8.3,5.7,12.9
		c1.3,4.7,2,9.6,2,14.7c0,6.4-1.1,12.6-3.3,18.5c-2.2,5.9-5.3,11.1-9.2,15.7c-3.9,4.5-8.6,8.2-14.2,10.9c-5.5,2.7-11.6,4.1-18.3,4.1
		c-6.7,0-12.7-1.4-18.2-4.2c-5.5-2.8-10.2-6.4-14.2-11c-4-4.5-7-9.8-9.2-15.7c-2.1-5.9-3.2-12-3.2-18.3c0-6,1-11.9,2.9-17.7
		c2-5.7,4.8-10.8,8.4-15.3c3.7-4.5,8-8.2,13.1-11.1c5.1-3,10.8-4.6,17.1-5v-13.6c0-2,1.1-3,3.2-3c8.9,0,17.1,1.9,24.6,5.6
		c7.4,3.7,13.8,8.6,19.3,14.7c5.4,6.1,9.6,13.1,12.7,21.1c3,7.9,4.5,16.2,4.5,24.7c0,8.6-1.5,16.8-4.5,24.8c-3,8-7.2,15-12.7,21.2
		c-5.4,6.1-11.9,11-19.4,14.6c-7.5,3.7-15.6,5.5-24.5,5.5c-8.9,0-17.2-1.8-24.6-5.5c-7.5-3.7-13.9-8.5-19.4-14.6
		c-5.4-6.1-9.6-13.2-12.7-21.2C-120.7,901.1-122.2,892.8-122.2,884.2z M-79.5,822.3c0.4-1.5,1.4-2.3,3.2-2.3c0.5,0,0.9,0.1,1.1,0.2
		c0.9,0.3,1.5,0.8,1.9,1.7c0.4,0.9,0.4,1.8,0.2,2.6c-0.6,1.6-1.7,2.5-3.2,2.5c-1.5-0.5-2.5-1.2-3-2c-0.5-0.8-0.6-1.7-0.2-2.5V822.3z
		"/>
	<path class="st0" d="M23.2,838.9c0-0.9,0.3-1.6,0.8-2.3c0.6-0.6,1.4-0.9,2.4-0.9H51c3.4,0,6.6,0.4,9.7,1.2c3.1,0.8,5.8,2.1,8,3.9
		c2.3,1.8,4.1,4,5.5,6.8c1.4,2.8,2.1,6,2.1,9.8s-0.7,7.1-2,9.8c-1.3,2.8-3.1,5.1-5.5,7.1c-2.3,2-5,3.4-8.1,4.3
		c-3.1,0.9-6.3,1.4-9.7,1.4h-7.7c-2,0-3-1-3-3v-13.2c0-2,1-3,3-3c0.9,0,1.6,0.3,2.3,0.9c0.6,0.6,0.9,1.3,0.9,2.2v10H51
		c5.2,0,9.6-1.3,13.4-4c3.8-2.6,5.7-6.8,5.7-12.5c0-2.9-0.5-5.3-1.6-7.3c-1.1-2-2.5-3.6-4.2-4.8c-1.7-1.3-3.7-2.1-6-2.6
		c-2.3-0.5-4.8-0.8-7.3-0.8H29.5v106.5c0,0.9-0.3,1.6-0.9,2.3c-0.6,0.6-1.3,0.9-2.2,0.9c-1,0-1.8-0.3-2.4-0.9
		c-0.6-0.6-0.8-1.4-0.8-2.3V838.9z M43.2,937.1c-2,0-3-1-3-3v-40.6c0-2,1-3,3-3H58c1.6,0,4.1-0.4,7.3-1.3c3.2-0.9,6.5-2.6,9.7-5.1
		c7.7-6.3,11.5-15.6,11.5-28c0-4.4-0.6-8.5-1.9-12.3c-1.3-3.8-3.1-7-5.5-9.7c-2.4-2.7-5.4-4.8-9-6.4c-3.6-1.6-7.6-2.4-12.2-2.4H43.1
		c-0.9,0-1.6-0.3-2.3-0.9c-0.6-0.6-0.9-1.4-0.9-2.3c0-0.9,0.3-1.6,0.9-2.2c0.6-0.6,1.4-0.8,2.3-0.8H58c5.5,0,10.5,0.9,14.8,2.8
		c4.3,1.9,8,4.5,11,7.8c3,3.3,5.2,7.3,6.7,11.8c1.5,4.5,2.3,9.4,2.3,14.5c0,6.2-1.1,12.2-3.2,18c-2.1,5.9-5.7,10.7-10.8,14.6
		c-3.7,2.9-7.4,4.9-11.2,6.1c-3.8,1.2-7,1.8-9.5,1.8H46.5v37.4c0,0.9-0.3,1.6-0.9,2.2C44.9,936.8,44.1,937.1,43.2,937.1z
		 M42.3,856.5c-1-0.3-1.7-0.8-2.1-1.6c-0.4-0.8-0.4-1.7-0.2-2.6v-0.2c0.6-1.5,1.8-2.3,3.4-2.3c0.4,0,0.7,0.1,0.9,0.2
		c1,0.3,1.7,0.8,2.1,1.6c0.4,0.8,0.4,1.7,0.2,2.7h-0.2c-0.4,1.5-1.4,2.3-3.2,2.3L42.3,856.5z"/>
	<path class="st0" d="M130.5,840.6v106.9c0,2.1-1,3.2-3,3.2c-2.1,0-3.2-1.1-3.2-3.2V837.6c0-0.9,0.3-1.6,0.9-2.3
		c0.6-0.6,1.4-0.9,2.4-0.9h37.6c4.5,0,8.7,0.4,12.6,1.2c3.8,0.8,7.1,2.2,9.8,4.2c2.7,2,4.8,4.7,6.3,8c1.5,3.3,2.3,7.5,2.3,12.6
		c0,17.8-9.9,26.6-29.8,26.6h-5.9c-0.9,0-1.6-0.3-2.3-0.9c-0.6-0.6-0.9-1.4-0.9-2.3c0-0.9,0.3-1.6,0.9-2.2c0.6-0.6,1.4-0.8,2.3-0.8
		h5.9c7.3,0,13.1-1.4,17.3-4.3c4.2-2.9,6.3-8.2,6.3-16.1c0-4-0.6-7.3-1.8-9.9c-1.2-2.6-2.9-4.6-5-6c-2.1-1.4-4.8-2.5-7.8-3
		c-3.1-0.6-6.5-0.8-10.1-0.8H130.5z M182.4,936.9c0.5,0.6,0.7,1.4,0.5,2.3c-0.2,0.9-0.6,1.6-1.2,2.1c-0.5,0.4-1.1,0.6-1.9,0.6
		c-1,0-1.8-0.5-2.5-1.5l-36.6-54.4c-1.1-1.8-0.8-3.2,0.9-4.3c0.4-0.4,0.9-0.6,1.7-0.6c0.9,0,1.8,0.4,2.6,1.3L182.4,936.9z
		 M144.1,911.6c2,0,3,1,3,3v32.9c0,2.1-1,3.2-3,3.2c-0.9,0-1.6-0.3-2.3-0.8c-0.6-0.6-0.9-1.4-0.9-2.4v-32.9c0-0.9,0.3-1.6,0.9-2.2
		C142.5,911.9,143.2,911.6,144.1,911.6z M176.6,901.1l30.6,44.8c1.1,1.8,0.9,3.2-0.8,4.3c-0.5,0.4-1.1,0.6-1.7,0.6
		c-1.1,0-2-0.4-2.6-1.3l-33.6-49.5c-0.8-0.9-0.8-2-0.2-3.2c0.6-1.1,1.6-1.7,2.8-1.7c5.3,0,10.1-0.8,14.5-2.5c4.4-1.6,8.2-4,11.3-7
		c3.1-3,5.6-6.7,7.3-11c1.7-4.3,2.5-9.1,2.5-14.5c0-12.1-3-20.8-9.1-26.2c-6-5.4-14.9-8-26.6-8h-26.8c-2,0-3-1.1-3-3.2c0-2,1-3,3-3
		h26.8c13.3,0,23.7,3.2,31,9.7c7.3,6.5,11,16.7,11,30.7c0,11.6-3.2,20.9-9.7,28C196.8,895.2,187.9,899.5,176.6,901.1z M186.8,944.1
		c1,0.3,1.7,0.8,2.1,1.6c0.4,0.8,0.4,1.7,0.2,2.7h-0.2c-0.4,1.5-1.4,2.3-3.2,2.3c-1.4-0.4-2.3-1-2.8-1.8c-0.5-0.8-0.6-1.7-0.4-2.5
		v-0.2c0.6-1.5,1.7-2.3,3.2-2.3C186.2,943.9,186.5,944,186.8,944.1z"/>
	<path class="st0" d="M233.8,884.2c0-6,0.8-12,2.4-17.9c1.6-5.9,3.8-11.5,6.8-16.7c3-5.2,6.6-10,10.9-14.3
		c4.3-4.3,9.1-7.8,14.5-10.6c0.3-0.3,0.8-0.4,1.5-0.4c1.1,0,2,0.5,2.6,1.5c0.5,0.9,0.6,1.7,0.3,2.5c-0.3,0.8-0.9,1.4-1.6,1.8
		c-4.9,2.6-9.3,5.9-13.2,9.7c-3.9,3.8-7.2,8.1-9.8,12.8c-2.6,4.7-4.7,9.8-6,15.1c-1.4,5.4-2.1,10.8-2.1,16.3
		c0,7.7,1.4,15.1,4.1,22.4c2.7,7.2,6.5,13.6,11.3,19.2c4.8,5.5,10.6,10,17.4,13.3c6.7,3.3,14.1,5,22.2,5c8.1,0,15.4-1.7,22.1-5
		c6.7-3.3,12.4-7.8,17.3-13.4c4.8-5.6,8.6-12,11.3-19.2c2.7-7.2,4.1-14.6,4.1-22.3c0-7.4-1.3-14.6-3.8-21.6c-2.5-7-6-13.2-10.6-18.7
		s-10-10-16.3-13.5c-6.4-3.5-13.4-5.5-21.1-6v13.4c0,2-1,3-3,3c-5.8,0-11.1,1.2-15.9,3.6c-4.8,2.4-8.8,5.6-12.2,9.6
		c-3.3,4-5.9,8.6-7.7,13.8c-1.8,5.2-2.7,10.5-2.7,16.1c0,5.4,0.9,10.7,2.7,15.9c1.8,5.2,4.4,9.8,7.8,13.8c3.4,4,7.5,7.2,12.2,9.6
		c4.7,2.4,10,3.6,15.8,3.6c5.8,0,11.1-1.2,15.9-3.6c4.8-2.4,8.9-5.6,12.3-9.5c3.4-4,6-8.5,7.8-13.7c1.8-5.2,2.7-10.5,2.7-16.1
		c0-9.1-2.2-17.2-6.5-24.4c-4.3-7.2-10.2-12.4-17.7-15.7c-0.8-0.3-1.3-0.8-1.6-1.6c-0.3-0.8-0.3-1.6,0.1-2.4
		c0.4-1.3,1.3-1.9,2.8-1.9c0.5,0,0.9,0.1,1.1,0.2c4.3,1.9,8.1,4.4,11.5,7.5c3.4,3.1,6.3,6.6,8.8,10.6c2.5,4,4.3,8.3,5.7,12.9
		c1.3,4.7,2,9.6,2,14.7c0,6.4-1.1,12.6-3.3,18.5c-2.2,5.9-5.3,11.1-9.2,15.7c-3.9,4.5-8.6,8.2-14.2,10.9c-5.5,2.7-11.6,4.1-18.3,4.1
		c-6.7,0-12.7-1.4-18.2-4.2c-5.5-2.8-10.2-6.4-14.2-11c-4-4.5-7-9.8-9.2-15.7c-2.1-5.9-3.2-12-3.2-18.3c0-6,1-11.9,2.9-17.7
		c2-5.7,4.8-10.8,8.4-15.3c3.7-4.5,8-8.2,13.1-11.1c5.1-3,10.8-4.6,17.1-5v-13.6c0-2,1.1-3,3.2-3c8.9,0,17.1,1.9,24.6,5.6
		c7.4,3.7,13.8,8.6,19.3,14.7c5.4,6.1,9.6,13.1,12.7,21.1c3,7.9,4.5,16.2,4.5,24.7c0,8.6-1.5,16.8-4.5,24.8c-3,8-7.2,15-12.7,21.2
		c-5.4,6.1-11.9,11-19.4,14.6c-7.5,3.7-15.6,5.5-24.5,5.5c-8.9,0-17.2-1.8-24.6-5.5c-7.5-3.7-13.9-8.5-19.4-14.6
		c-5.4-6.1-9.6-13.2-12.7-21.2C235.3,901.1,233.8,892.8,233.8,884.2z M276.5,822.3c0.4-1.5,1.4-2.3,3.2-2.3c0.5,0,0.9,0.1,1.1,0.2
		c0.9,0.3,1.5,0.8,1.9,1.7c0.4,0.9,0.4,1.8,0.2,2.6c-0.6,1.6-1.7,2.5-3.2,2.5c-1.5-0.5-2.5-1.2-3-2c-0.5-0.8-0.6-1.7-0.2-2.5V822.3z
		"/>
	<path class="st0" d="M369.4,951.5c-0.8-0.5-1.2-1.2-1.4-2.1c-0.2-0.9,0-1.6,0.5-2.3l49.1-77.2l-29.3-46.3c-1.1-1.8-0.8-3.2,0.9-4.3
		c0.5-0.3,1-0.4,1.5-0.4c1.1,0,2,0.4,2.6,1.3l30.4,48c0.9,1,0.9,2.1,0,3.2l-50.2,78.9c-0.6,1-1.5,1.5-2.6,1.5
		C370.4,951.9,369.9,951.7,369.4,951.5z M400.8,874l-32.1-50.4c-0.5-0.8-0.6-1.5-0.4-2.4c0.3-0.8,0.7-1.5,1.3-2
		c0.8-0.3,1.3-0.4,1.7-0.4c1.1,0,2,0.4,2.6,1.3l32.1,50.4c0.9,1.8,0.6,3.2-0.9,4.3c-0.5,0.4-1.1,0.6-1.7,0.6
		C402.3,875.6,401.4,875.1,400.8,874z M396.2,943.2c-0.5,0-1.1-0.2-1.7-0.6c-0.6-0.5-1.1-1.2-1.3-2c-0.3-0.8-0.1-1.6,0.4-2.4
		l14.9-23.4c0.8-0.9,1.6-1.3,2.6-1.3c0.8,0,1.3,0.1,1.7,0.4c1.8,1.1,2.1,2.6,0.9,4.3l-14.9,23.4
		C398.3,942.7,397.4,943.2,396.2,943.2z M418.5,902.6c-0.6-1-0.6-2.1,0-3.4l50.2-78.9c0.6-0.9,1.5-1.3,2.6-1.3
		c0.4,0,0.9,0.1,1.7,0.4c0.6,0.5,1.1,1.2,1.3,2c0.3,0.8,0.1,1.6-0.4,2.4l-49.3,77.2l23.6,37.2c1.1,1.8,0.8,3.2-0.9,4.3
		c-0.5,0.3-1,0.4-1.5,0.4c-1.3,0-2.1-0.4-2.6-1.3L418.5,902.6z M429.5,856.9c-0.6-0.5-1.1-1.2-1.3-2c-0.3-0.8-0.1-1.6,0.4-2.4
		l14.9-23.2c0.6-1,1.5-1.5,2.6-1.5c0.6,0,1.1,0.2,1.5,0.6c1.8,1.1,2.1,2.6,0.9,4.3l-14.7,23.2c-0.5,0.9-1.4,1.3-2.6,1.3
		C430.4,857.2,429.9,857.1,429.5,856.9z M473.7,947.1c0.5,0.6,0.7,1.4,0.5,2.3c-0.2,0.9-0.7,1.6-1.4,2.1c-0.5,0.3-1.1,0.4-1.7,0.4
		c-1,0-1.9-0.5-2.6-1.5l-31.9-50.2c-1.1-1.8-0.8-3.2,0.9-4.3c0.6-0.4,1.2-0.6,1.7-0.6c1.1,0,2,0.5,2.6,1.5L473.7,947.1z
		 M448.4,820.8c0.4-1.5,1.4-2.3,3.2-2.3c0.5,0,0.9,0.1,1.1,0.2c0.9,0.3,1.5,0.8,1.9,1.6c0.4,0.8,0.4,1.7,0.2,2.7
		c-0.5,1.5-1.6,2.3-3.2,2.3c-1.4-0.4-2.3-1-2.8-1.8c-0.5-0.8-0.6-1.7-0.4-2.5V820.8z"/>
</g>
<g id="Слой_3_1_">
	<g>
		<path class="st0" d="M507.6-153c-0.2-0.2-0.2-0.3-0.2-0.3c-0.2-0.4-0.3-1.1-0.5-1.9l-0.4-3.5c-0.1-2.8-0.2-6.2-0.2-9.7v-1.7
			c0-6.4,0.3-12.8,1-14.7c0.2-0.3,0.7-0.3,1.2,0.1c0.4,0.3,0.8,0.9,0.6,1.2c-0.6,1.9-0.9,9-0.9,16.1c0,3.5,0.1,7,0.3,9.7
			c0.9-2.2,4.4-6.7,6.8-6.3c0.5,0.1,1.1,0.3,1.6,0.8l0.3,0.2c1.1,1,1.5,2.3,1.5,3.6c0,0.8-0.2,1.6-0.4,2.2l-0.4,0.9
			c2.6-0.4,7-2.9,8.9-4.5c0.5-0.5,0.2,1.1-0.3,1.8c-2,2.7-5.8,4.8-10.6,4.8h-0.4l-0.2,0.1c-0.9,0.2-4,0-5.2-0.8L510-155l-0.2,0.5
			l-0.3,1.5c0.1,0.4-0.1,0.6-0.1,0.8c-0.1,0-0.1,0.1-0.2,0.2c-0.1,0-0.3,0.2-0.9-0.1C507.9-152.6,507.6-153,507.6-153z M512-156
			c2.5,0,4.6-2.2,4.6-4.8c0-0.8-0.2-1.3-0.5-1.6l-0.2-0.2h-0.1c-1.8,0.6-3.2,2.8-5.6,6.2l0.1,0.1C510.9-156.1,511.5-156,512-156z"/>
		<path class="st0" d="M537-158.1c-1.6,2.1-4,4.3-5.8,4.3s-3.5-1.3-4.2-3.1c-0.3-0.8-0.5-1.7-0.5-2.6c0-0.8,0.1-1.5,0.4-2.2
			c0.2-0.6,0.5-1.1,1.1-1.3c0.3-0.1,0.9,0.1,1.3,0.5s0.4,0.9,0.2,1c-0.2,0.1-0.5,0.4-0.8,0.9c-0.1,0.5-0.3,1.2-0.3,2
			c0.1,0.9,0.2,2.4,1.1,3c2.3,1.3,7-5,7.1-6.8c0-0.1,0.1-0.2,0.2-0.2c-0.1-0.1-0.1-0.1,0-0.1c0.1-0.1,0.3-0.2,0.5-0.2
			c0.5,0,1.5,0.6,1.5,1.2c0.1,0.1,0.3,2.3,0.4,5.5v0.2l0.1-0.1c1.5-0.9,8.3-4.2,9.6-3.1c0.5,0.4,0.4,0.5,0,0.6
			c-2.2,0.6-5.7,2.6-8,3.9l-1.6,1.1l-0.1,0.6l-0.2,5c-0.4,6.8-1.9,14.2-6.6,15.2c-1.4,0.3-3.5-0.6-5-2.1s-2.3-3.5-2.1-5.4
			c0.8-4.2,5.1-9.6,10.6-13.6l1.3-1L537-158.1z M537.2-152.1L536-151c-4.4,4-8,8.4-8.6,12c-0.3,1.7,0.5,3,1.1,3.8
			c0.8,0.8,1.8,1.2,2.5,1C535.1-135,537.3-144.5,537.2-152.1z"/>
		<path class="st0" d="M570.9-159.6c0.2,0.7,0.3,1.5,0.1,2.3c-0.5,2.7-2.7,4-5.2,3.9c-2-0.1-3.3-1.8-3.6-3.3c-0.4-2.3,1-4.9,2.3-5.3
			c0.1,0,0.2-0.1,0.3-0.1c0.2-0.8,0.6-1.4,1.7-1.3c1.5,0.2,2.6,0.9,3.5,1.9c1.4,0.2,2.8,0.2,4,0.2c2.5,0,4.6-0.2,5.1-0.2
			c1.6-0.1,1.2,0.6-0.1,1.1C577.7-159.9,574.2-159.4,570.9-159.6z M564.1-156.8c0.3,1.6,0.9,2.2,1.9,2.1c2.4-0.1,3.6-3.2,2.7-5.1
			c-1.2-0.2-2.3-0.5-3-1l-0.1,0.1C564.9-160.2,563.8-158.3,564.1-156.8z"/>
		<path class="st0" d="M579.7-152.9c-1-1.6-1.4-5.5-1.4-9.9c0-9,1.5-20.6,2.2-22.8c0.1-0.3,0.4-0.4,0.9-0.2c0.5,0.3,1,0.7,1,1
			c-0.3,1-1.9,14-1.9,23.3c0,4.8,0.4,8.6,1.6,9.5c2.8,1.7,9.3-7.1,10.2-8.1c0.5-0.8,0.6,0.6,0.4,1.2c-1,2.7-5.3,8.5-8.7,8.5
			C582.3-150.5,580.8-151.4,579.7-152.9z"/>
		<path class="st0" d="M599.7-159.6c0.2,0.7,0.3,1.5,0.1,2.3c-0.5,2.7-2.7,4-5.2,3.9c-2-0.1-3.3-1.8-3.6-3.3c-0.4-2.3,1-4.9,2.3-5.3
			c0.1,0,0.2-0.1,0.3-0.1c0.2-0.8,0.6-1.4,1.7-1.3c1.5,0.2,2.6,0.9,3.5,1.9c1.4,0.2,2.8,0.2,4,0.2c2.5,0,4.6-0.2,5.1-0.2
			c1.6-0.1,1.2,0.6-0.1,1.1C606.5-159.9,603-159.4,599.7-159.6z M592.9-156.8c0.3,1.6,0.9,2.2,1.9,2.1c2.4-0.1,3.6-3.2,2.7-5.1
			c-1.2-0.2-2.3-0.5-3-1l-0.1,0.1C593.7-160.2,592.7-158.3,592.9-156.8z"/>
		<path class="st0" d="M619.7-153.9c-2.7,0-6-1-8-3.5c-1.2,1.5-1.8,4.2-1.9,6.7c0,0.8-1.5,0.1-1.8-0.8c-0.1-1.9-0.2-3.9-0.2-5.9
			c0-9.6,0.5-19.9,0.6-26.6c0-0.3,0.5-0.5,1-0.3c0.6,0.2,1.1,0.6,1.1,0.9c-0.2,7-0.3,14.7-0.8,24.9c1.7-2.9,4.1-6.4,7.2-6.7
			c1.2-0.1,1.9,0.8,2.2,1.4c0.8,2-3,5.1-5.6,5.8c0.9,1.1,3.7,2.3,5.9,2.1c3.9-0.3,8.5-3.4,10.7-5.2c0.7-0.6,0.1,1.7-0.9,2.6
			C628.3-157.5,624.9-153.9,619.7-153.9z M612.6-159c1.3-0.1,5-3.2,4.6-4.6C616.5-163.9,614.7-162.4,612.6-159z"/>
		<path class="st0" d="M630-163c0-0.4,0.5-0.4,1.1-0.1c0.5,0.3,0.8,0.8,0.8,1.1l-0.1,2.1c1.3-1.7,5.3-4.9,8.3-4.4
			c1.2,0.2,2,1.4,1.6,1.8c-0.8,0.9-1.5,0.5-1.5,0.1l0.1-0.4c-2.7-0.1-7.2,3.2-8.5,7c-0.2,0.4-0.2,0.8-0.4,2.3c0.1,0.7-1.7,0-1.9-0.8
			C629.4-154.8,629.3-156.2,630-163z"/>
		<path class="st0" d="M643.5-156.9c-0.2-0.5-0.3-1-0.3-1.6c0-2.4,1.6-4.8,4.3-4.9c1.7,0,3.2,1.6,2.6,3.2c-0.7,1.7-3,3-4.9,3
			c0.2,1,2.1,2.8,3.9,2.8c5.1,0,8.9-3.8,11.1-6.2c1.2-1.3,1-0.1,0.3,1.5c-1.5,3.1-5,5.8-8.7,6C648.7-153,644.6-153.6,643.5-156.9z
			 M645.2-158.5c2.3-1,3.8-2.5,3.2-3.1C647.2-162.7,645.1-159.8,645.2-158.5z"/>
		<path class="st0" d="M658.4-157.7c0-1.2,0.6-2.4,1.9-3.3c1.5-1,3.3-1.5,5.2-1.5c1.5,0,3,0.3,4.4,0.9h0.1l0.9-1.2
			c0.3-0.6,2.2,0.6,1.8,1.2c-0.3,0.8-0.8,1.8-0.9,2.8c-0.1,0.9,0.2,2,1.2,2.3c2.8,0.5,7.4-2.2,9.3-4.4c0.9-0.9,1.7,0.4-1.2,3.4
			c-1.3,1.3-5.1,3.1-7.3,2.5c-1.8-0.4-3.1-1.5-3.8-3.4c-1.5,1.3-5.1,4.1-7.9,4.1c-0.7,0-1.3-0.2-1.9-0.5
			C659-155.6,658.4-156.6,658.4-157.7z M669-160.5c-0.5-0.2-1.3-0.3-2.1-0.3c-2.7,0-6.3,1-6.9,3.5c-0.2,0.6,0.2,1.2,1,1.3
			C663.6-156.3,667.1-158.5,669-160.5z"/>
		<path class="st0" d="M682.4-153.9c-0.1,0-0.2,0-0.3-0.1c-0.1,0-0.4-0.2-0.7-0.6c-0.2-0.5-0.1-0.8,0-0.9c0-0.1,0.1-0.1,0.2-0.1
			l0.1-0.1c2.2-1.3,5.2-2.9,7.5-4.8l0.3-0.3l-2.4,0.3c-1.7,0.2-3.4,0.4-5,0.4c-0.4,0-0.8-0.3-1-0.8s-0.1-0.9,0.3-0.9
			c3.2-0.1,6.6-0.6,10.1-1c0.8-0.1,1.6,0.9,1.2,1.4c-1.7,2.1-4.4,3.9-6.9,5.3l-0.1,0.1h0.5c0.9-0.1,1.8-0.1,2.8-0.1
			c1.5,0,2.9,0.1,4.2,0.3c0.5,0.1,0.9,0.5,1,1c0.1,0.4-0.2,0.7-0.7,0.6c-1.1-0.3-2.7-0.4-4.1-0.4c-0.9,0-1.7,0.1-2.5,0.1l-3,0.2
			c-0.4,0.1-0.6,0.1-1,0.1h-0.5V-153.9z"/>
	</g>
</g>
<g>
	<g>
		<path class="st0" d="M-182-448.2c3.7,0,5.5-1.7,5.5-5.1v-185.2c0-3.4-1.8-5.1-5.5-5.1c-3.9,0-5.9,1.7-5.9,5.1v179.8h-92.2
			c-1.8,0-3.3,0.5-4.3,1.6s-1.6,2.3-1.6,3.8c0,3.4,2,5.1,5.9,5.1H-182z M-207.7-609.7c0-3.4-1.8-5.1-5.5-5.1c-1.6,0-3,0.5-4.2,1.4
			c-1.2,1-1.7,2.2-1.7,3.7v130.8c0,1.5,0.6,2.7,1.7,3.7c1.2,1,2.5,1.4,4.2,1.4c3.7,0,5.5-1.7,5.5-5.1V-609.7z M-208-425.8
			c0-1.5-0.6-2.7-1.7-3.7c-1.2-1-2.5-1.4-4.2-1.4h-85.3c-3.7,0-5.5,1.7-5.5,5.1c0,1.5,0.5,2.8,1.6,3.8c1,1.1,2.4,1.6,4,1.6h85.3
			c1.6,0,3-0.5,4.2-1.6C-208.6-423-208-424.3-208-425.8z M-299.5-447.5c2.5-0.6,4.3-1.7,5.2-3.2s1.2-3,0.7-4.5v-0.3
			c-1.2-2.6-3.1-3.8-5.9-3.8c-0.5,0-0.8,0.1-1,0.2c-0.2,0.1-0.6,0.2-1,0.2c-1.8,0.4-3.1,1.4-3.8,2.9c-0.7,1.5-0.7,3,0,4.5v0.3
			C-304.7-448.8-302.8-447.5-299.5-447.5z"/>
		<path class="st0" d="M-417.3-448.2c-3.7,0-5.5-1.7-5.5-5.1v-185.2c0-3.4,1.8-5.1,5.5-5.1c3.9,0,5.9,1.7,5.9,5.1v179.8h92.2
			c1.8,0,3.3,0.5,4.3,1.6s1.6,2.3,1.6,3.8c0,3.4-2,5.1-5.9,5.1H-417.3z M-391.7-609.7c0-3.4,1.8-5.1,5.5-5.1c1.6,0,3,0.5,4.2,1.4
			c1.2,1,1.7,2.2,1.7,3.7v130.8c0,1.5-0.6,2.7-1.7,3.7c-1.2,1-2.5,1.4-4.2,1.4c-3.7,0-5.5-1.7-5.5-5.1V-609.7z M-391.3-425.8
			c0-1.5,0.6-2.7,1.7-3.7c1.2-1,2.5-1.4,4.2-1.4h85.3c3.7,0,5.5,1.7,5.5,5.1c0,1.5-0.5,2.8-1.6,3.8c-1,1.1-2.4,1.6-4,1.6h-85.3
			c-1.6,0-3-0.5-4.2-1.6C-390.7-423-391.3-424.3-391.3-425.8z M-299.8-447.5c-2.5-0.6-4.3-1.7-5.2-3.2s-1.2-3-0.7-4.5v-0.3
			c1.2-2.6,3.1-3.8,5.9-3.8c0.5,0,0.8,0.1,1,0.2c0.2,0.1,0.6,0.2,1,0.2c1.8,0.4,3.1,1.4,3.8,2.9c0.7,1.5,0.7,3,0,4.5v0.3
			C-294.6-448.8-296.6-447.5-299.8-447.5z"/>
		<path class="st0" d="M-307.8-480.6v-101.1h26c1.6,0,2.9-0.5,4-1.6c1-1.1,1.6-2.3,1.6-3.8v-81.6c0-3.6-1.9-5.4-5.5-5.4
			c-1.6,0-3,0.5-4.2,1.4c-1.2,1-1.7,2.3-1.7,4v76.4h-25.7c-1.6,0-3,0.5-4.2,1.4c-1.2,1-1.7,2.2-1.7,3.7v101.4h-63.1
			c-3.9,0-5.9,1.7-5.9,5.1c0,3.6,2,5.4,5.9,5.4h69C-309.6-475.2-307.8-477-307.8-480.6z M-340-503.3c1.6,0,2.9-0.5,4-1.6
			c1-1.1,1.6-2.3,1.6-3.8c0-3.4-1.9-5.1-5.5-5.1h-42.4c-3.9,0-5.9,1.7-5.9,5.1c0,1.5,0.5,2.8,1.6,3.8c1,1.1,2.5,1.6,4.3,1.6H-340z
			 M-307.4-693.3c0-3.4-1.9-5.1-5.5-5.1c-1.6,0-3,0.5-4.2,1.4c-1.2,1-1.7,2.2-1.7,3.7v77.1c0,1.7,0.6,3,1.7,4c1.2,1,2.5,1.4,4.2,1.4
			c3.7,0,5.5-1.8,5.5-5.4V-693.3z M-281.8-475.2h45.1c3.7,0,5.5-1.8,5.5-5.4c0-3.4-1.9-5.1-5.5-5.1h-45.1c-1.6,0-3,0.5-4.2,1.4
			c-1.2,1-1.7,2.2-1.7,3.7c0,1.7,0.6,3,1.7,4C-284.8-475.7-283.4-475.2-281.8-475.2z M-287.7-558.7v49.9c0,1.5,0.6,2.8,1.7,3.8
			c1.2,1.1,2.5,1.6,4.2,1.6h64.1c1.8,0,3.3-0.5,4.3-1.6s1.6-2.3,1.6-3.8c0-3.4-2-5.1-5.9-5.1h-58.6v-44.8c0-3.4-1.9-5.1-5.5-5.1
			c-1.6,0-3,0.5-4.2,1.4C-287.1-561.4-287.7-560.2-287.7-558.7z M-215.6-474.9c1.8-0.4,3.1-1.4,3.8-2.9c0.7-1.5,0.8-3,0.3-4.5h-0.3
			c-0.7-2.8-2.7-4.2-5.9-4.2c-2.5,0.8-4.3,2-5.2,3.4c-0.9,1.4-1.2,2.8-0.7,4.3l0.3,0.3c0.7,2.6,2.7,3.8,5.9,3.8
			C-216.4-474.5-215.8-474.6-215.6-474.9z"/>
		<path class="st0" d="M-182-384.2c3.7,0,5.5,1.7,5.5,5.1v185.3c0,3.4-1.8,5.1-5.5,5.1c-3.9,0-5.9-1.7-5.9-5.1v-179.8h-92.2
			c-1.8,0-3.3-0.5-4.3-1.6s-1.6-2.3-1.6-3.8c0-3.4,2-5.1,5.9-5.1h98.1V-384.2z M-207.7-222.6c0,3.4-1.8,5.1-5.5,5.1
			c-1.6,0-3-0.5-4.2-1.4c-1.2-1-1.7-2.2-1.7-3.7v-130.9c0-1.5,0.6-2.7,1.7-3.7c1.2-1,2.5-1.4,4.2-1.4c3.7,0,5.5,1.7,5.5,5.1V-222.6z
			 M-208-406.5c0,1.5-0.6,2.7-1.7,3.7c-1.2,1-2.5,1.4-4.2,1.4h-85.3c-3.7,0-5.5-1.7-5.5-5.1c0-1.5,0.5-2.8,1.6-3.8
			c1-1.1,2.4-1.6,4-1.6h85.3c1.6,0,3,0.5,4.2,1.6C-208.6-409.3-208-408-208-406.5z M-299.5-384.8c2.5,0.6,4.3,1.7,5.2,3.2
			s1.2,3,0.7,4.5v0.3c-1.2,2.6-3.1,3.8-5.9,3.8c-0.5,0-0.8-0.1-1-0.2c-0.2-0.1-0.6-0.2-1-0.2c-1.8-0.4-3.1-1.4-3.8-2.9
			c-0.7-1.5-0.7-3,0-4.5v-0.3C-304.7-383.5-302.8-384.8-299.5-384.8z"/>
		<path class="st0" d="M-417.3-384.2c-3.7,0-5.5,1.7-5.5,5.1v185.3c0,3.4,1.8,5.1,5.5,5.1c3.9,0,5.9-1.7,5.9-5.1v-179.8h92.2
			c1.8,0,3.3-0.5,4.3-1.6s1.6-2.3,1.6-3.8c0-3.4-2-5.1-5.9-5.1h-98.1V-384.2z M-391.7-222.6c0,3.4,1.8,5.1,5.5,5.1
			c1.6,0,3-0.5,4.2-1.4c1.2-1,1.7-2.2,1.7-3.7v-130.9c0-1.5-0.6-2.7-1.7-3.7c-1.2-1-2.5-1.4-4.2-1.4c-3.7,0-5.5,1.7-5.5,5.1V-222.6z
			 M-391.3-406.5c0,1.5,0.6,2.7,1.7,3.7c1.2,1,2.5,1.4,4.2,1.4h85.3c3.7,0,5.5-1.7,5.5-5.1c0-1.5-0.5-2.8-1.6-3.8
			c-1-1.1-2.4-1.6-4-1.6h-85.3c-1.6,0-3,0.5-4.2,1.6C-390.7-409.3-391.3-408-391.3-406.5z M-299.8-384.8c-2.5,0.6-4.3,1.7-5.2,3.2
			s-1.2,3-0.7,4.5v0.3c1.2,2.6,3.1,3.8,5.9,3.8c0.5,0,0.8-0.1,1-0.2c0.2-0.1,0.6-0.2,1-0.2c1.8-0.4,3.1-1.4,3.8-2.9
			c0.7-1.5,0.7-3,0-4.5v-0.3C-294.6-383.5-296.6-384.8-299.8-384.8z"/>
		<path class="st0" d="M-307.8-351.7v101.1h26c1.6,0,2.9,0.5,4,1.6c1,1.1,1.6,2.3,1.6,3.8v81.6c0,3.6-1.9,5.4-5.5,5.4
			c-1.6,0-3-0.5-4.2-1.4c-1.2-1-1.7-2.3-1.7-4V-240h-25.7c-1.6,0-3-0.5-4.2-1.4c-1.2-1-1.7-2.2-1.7-3.7v-101.5h-63.1
			c-3.9,0-5.9-1.7-5.9-5.1c0-3.6,2-5.4,5.9-5.4h69C-309.6-357.1-307.8-355.3-307.8-351.7z M-340-329c1.6,0,2.9,0.5,4,1.6
			c1,1.1,1.6,2.3,1.6,3.8c0,3.4-1.9,5.1-5.5,5.1h-42.4c-3.9,0-5.9-1.7-5.9-5.1c0-1.5,0.5-2.8,1.6-3.8c1-1.1,2.5-1.6,4.3-1.6H-340z
			 M-307.4-139c0,3.4-1.9,5.1-5.5,5.1c-1.6,0-3-0.5-4.2-1.4c-1.2-1-1.7-2.2-1.7-3.7v-77.1c0-1.7,0.6-3,1.7-4c1.2-1,2.5-1.4,4.2-1.4
			c3.7,0,5.5,1.8,5.5,5.4V-139z M-281.8-357.1h45.1c3.7,0,5.5,1.8,5.5,5.4c0,3.4-1.9,5.1-5.5,5.1h-45.1c-1.6,0-3-0.5-4.2-1.4
			c-1.2-1-1.7-2.2-1.7-3.7c0-1.7,0.6-3,1.7-4C-284.8-356.7-283.4-357.1-281.8-357.1z M-287.7-273.6v-49.9c0-1.5,0.6-2.8,1.7-3.8
			c1.2-1.1,2.5-1.6,4.2-1.6h64.1c1.8,0,3.3,0.5,4.3,1.6s1.6,2.3,1.6,3.8c0,3.4-2,5.1-5.9,5.1h-58.6v44.8c0,3.4-1.9,5.1-5.5,5.1
			c-1.6,0-3-0.5-4.2-1.4C-287.1-270.9-287.7-272.2-287.7-273.6z M-215.6-357.5c1.8,0.4,3.1,1.4,3.8,2.9c0.7,1.5,0.8,3,0.3,4.5h-0.3
			c-0.7,2.8-2.7,4.2-5.9,4.2c-2.5-0.8-4.3-2-5.2-3.4c-0.9-1.4-1.2-2.8-0.7-4.3l0.3-0.3c0.7-2.6,2.7-3.8,5.9-3.8
			C-216.4-357.8-215.8-357.7-215.6-357.5z"/>
	</g>
	<g>
		<path class="st0" d="M-117.3-411.4c0-6,0.8-12,2.4-17.9c1.6-5.9,3.8-11.5,6.8-16.7c3-5.2,6.6-10,10.9-14.3
			c4.3-4.3,9.1-7.8,14.5-10.6c0.3-0.3,0.8-0.4,1.5-0.4c1.1,0,2,0.5,2.6,1.5c0.5,0.9,0.6,1.7,0.3,2.5c-0.3,0.8-0.9,1.4-1.6,1.8
			c-4.9,2.6-9.3,5.9-13.2,9.7c-3.9,3.8-7.2,8.1-9.8,12.8c-2.6,4.7-4.7,9.8-6,15.1c-1.4,5.4-2.1,10.8-2.1,16.3
			c0,7.7,1.4,15.1,4.1,22.4c2.7,7.2,6.5,13.6,11.3,19.2c4.8,5.5,10.6,10,17.4,13.3c6.7,3.3,14.1,5,22.2,5c8.1,0,15.4-1.7,22.1-5
			c6.7-3.3,12.4-7.8,17.3-13.4c4.8-5.6,8.6-12,11.3-19.2c2.7-7.2,4.1-14.6,4.1-22.3c0-7.4-1.3-14.6-3.8-21.6
			c-2.5-7-6-13.2-10.6-18.7c-4.5-5.5-10-10-16.3-13.5c-6.4-3.5-13.4-5.5-21.1-6v13.4c0,2-1,3-3,3c-5.8,0-11.1,1.2-15.9,3.6
			c-4.8,2.4-8.8,5.6-12.2,9.6c-3.3,4-5.9,8.6-7.7,13.8c-1.8,5.2-2.7,10.5-2.7,16.1c0,5.4,0.9,10.7,2.7,15.9
			c1.8,5.2,4.4,9.8,7.8,13.8c3.4,4,7.5,7.2,12.2,9.6c4.7,2.4,10,3.6,15.8,3.6c5.8,0,11.1-1.2,15.9-3.6c4.8-2.4,8.9-5.6,12.3-9.5
			c3.4-4,6-8.5,7.8-13.7c1.8-5.2,2.7-10.5,2.7-16.1c0-9.1-2.2-17.2-6.5-24.4c-4.3-7.2-10.2-12.4-17.7-15.7c-0.8-0.3-1.3-0.8-1.6-1.6
			c-0.3-0.8-0.3-1.6,0.1-2.4c0.4-1.3,1.3-1.9,2.8-1.9c0.5,0,0.9,0.1,1.1,0.2c4.3,1.9,8.1,4.4,11.5,7.5c3.4,3.1,6.3,6.6,8.8,10.6
			c2.5,4,4.3,8.3,5.7,12.9c1.3,4.7,2,9.6,2,14.7c0,6.4-1.1,12.6-3.3,18.5c-2.2,5.9-5.3,11.1-9.2,15.7c-3.9,4.5-8.6,8.2-14.2,10.9
			c-5.5,2.7-11.6,4.1-18.3,4.1c-6.7,0-12.7-1.4-18.2-4.2c-5.5-2.8-10.2-6.4-14.2-11c-4-4.5-7-9.8-9.2-15.7c-2.1-5.9-3.2-12-3.2-18.3
			c0-6,1-11.9,2.9-17.7c2-5.7,4.8-10.8,8.4-15.3c3.7-4.5,8-8.2,13.1-11.1c5.1-3,10.8-4.6,17.1-5v-13.6c0-2,1.1-3,3.2-3
			c8.9,0,17.1,1.9,24.6,5.6c7.4,3.7,13.8,8.6,19.3,14.7c5.4,6.1,9.6,13.1,12.7,21.1c3,7.9,4.5,16.2,4.5,24.7
			c0,8.6-1.5,16.8-4.5,24.8c-3,8-7.2,15-12.7,21.2c-5.4,6.1-11.9,11-19.4,14.6c-7.5,3.7-15.6,5.5-24.5,5.5c-8.9,0-17.2-1.8-24.6-5.5
			c-7.5-3.7-13.9-8.5-19.4-14.6c-5.4-6.1-9.6-13.2-12.7-21.2C-115.8-394.6-117.3-402.8-117.3-411.4z M-74.6-473.4
			c0.4-1.5,1.4-2.3,3.2-2.3c0.5,0,0.9,0.1,1.1,0.2c0.9,0.3,1.5,0.8,1.9,1.7c0.4,0.9,0.4,1.8,0.2,2.6c-0.6,1.6-1.7,2.5-3.2,2.5
			c-1.5-0.5-2.5-1.2-3-2c-0.5-0.8-0.6-1.7-0.2-2.5V-473.4z"/>
		<path class="st0" d="M23.6-362.3c-2,0-3-1-3-3v-109.4c0-2,1-3,3-3c2.1,0,3.2,1,3.2,3v106.1H77c1,0,1.8,0.3,2.4,0.9
			c0.6,0.6,0.8,1.4,0.8,2.3c0,2-1.1,3-3.2,3H23.6z M37.6-457.7c0-2,1-3,3-3c0.9,0,1.6,0.3,2.3,0.9c0.6,0.6,0.9,1.3,0.9,2.2v77.2
			c0,0.9-0.3,1.6-0.9,2.2c-0.6,0.6-1.4,0.9-2.3,0.9c-2,0-3-1-3-3V-457.7z M37.7-349.1c0-0.9,0.3-1.6,0.9-2.2
			c0.6-0.6,1.4-0.9,2.3-0.9h46.5c2,0,3,1,3,3c0,0.9-0.3,1.6-0.9,2.3c-0.6,0.6-1.3,0.9-2.2,0.9H41c-0.9,0-1.6-0.3-2.3-0.9
			C38.1-347.4,37.7-348.2,37.7-349.1z M87.6-361.9c-1.4-0.4-2.3-1-2.8-1.9c-0.5-0.9-0.6-1.8-0.4-2.6v-0.2c0.6-1.5,1.7-2.3,3.2-2.3
			c0.3,0,0.4,0,0.6,0.1c0.1,0.1,0.3,0.1,0.6,0.1c1,0.3,1.7,0.8,2.1,1.7c0.4,0.9,0.4,1.8,0,2.6v0.2C90.4-362.7,89.4-361.9,87.6-361.9
			z"/>
		<path class="st0" d="M106.9-411.4c0-6,0.8-12,2.4-17.9c1.6-5.9,3.8-11.5,6.8-16.7c3-5.2,6.6-10,10.9-14.3
			c4.3-4.3,9.1-7.8,14.5-10.6c0.3-0.3,0.8-0.4,1.5-0.4c1.1,0,2,0.5,2.6,1.5c0.5,0.9,0.6,1.7,0.3,2.5c-0.3,0.8-0.9,1.4-1.6,1.8
			c-4.9,2.6-9.3,5.9-13.2,9.7c-3.9,3.8-7.2,8.1-9.8,12.8c-2.6,4.7-4.7,9.8-6,15.1c-1.4,5.4-2.1,10.8-2.1,16.3
			c0,7.7,1.4,15.1,4.1,22.4c2.7,7.2,6.5,13.6,11.3,19.2c4.8,5.5,10.6,10,17.4,13.3c6.7,3.3,14.1,5,22.2,5c8.1,0,15.4-1.7,22.1-5
			c6.7-3.3,12.4-7.8,17.3-13.4c4.8-5.6,8.6-12,11.3-19.2c2.7-7.2,4.1-14.6,4.1-22.3c0-7.4-1.3-14.6-3.8-21.6
			c-2.5-7-6-13.2-10.6-18.7c-4.5-5.5-10-10-16.3-13.5c-6.4-3.5-13.4-5.5-21.1-6v13.4c0,2-1,3-3,3c-5.8,0-11.1,1.2-15.9,3.6
			c-4.8,2.4-8.8,5.6-12.2,9.6c-3.3,4-5.9,8.6-7.7,13.8c-1.8,5.2-2.7,10.5-2.7,16.1c0,5.4,0.9,10.7,2.7,15.9
			c1.8,5.2,4.4,9.8,7.8,13.8c3.4,4,7.5,7.2,12.2,9.6c4.7,2.4,10,3.6,15.8,3.6c5.8,0,11.1-1.2,15.9-3.6c4.8-2.4,8.9-5.6,12.3-9.5
			c3.4-4,6-8.5,7.8-13.7c1.8-5.2,2.7-10.5,2.7-16.1c0-9.1-2.2-17.2-6.5-24.4c-4.3-7.2-10.2-12.4-17.7-15.7c-0.8-0.3-1.3-0.8-1.6-1.6
			c-0.3-0.8-0.3-1.6,0.1-2.4c0.4-1.3,1.3-1.9,2.8-1.9c0.5,0,0.9,0.1,1.1,0.2c4.3,1.9,8.1,4.4,11.5,7.5c3.4,3.1,6.3,6.6,8.8,10.6
			c2.5,4,4.3,8.3,5.7,12.9c1.3,4.7,2,9.6,2,14.7c0,6.4-1.1,12.6-3.3,18.5c-2.2,5.9-5.3,11.1-9.2,15.7c-3.9,4.5-8.6,8.2-14.2,10.9
			c-5.5,2.7-11.6,4.1-18.3,4.1c-6.7,0-12.7-1.4-18.2-4.2c-5.5-2.8-10.2-6.4-14.2-11c-4-4.5-7-9.8-9.2-15.7c-2.1-5.9-3.2-12-3.2-18.3
			c0-6,1-11.9,2.9-17.7c2-5.7,4.8-10.8,8.4-15.3c3.7-4.5,8-8.2,13.1-11.1c5.1-3,10.8-4.6,17.1-5v-13.6c0-2,1.1-3,3.2-3
			c8.9,0,17.1,1.9,24.6,5.6c7.4,3.7,13.8,8.6,19.3,14.7c5.4,6.1,9.6,13.1,12.7,21.1c3,7.9,4.5,16.2,4.5,24.7
			c0,8.6-1.5,16.8-4.5,24.8c-3,8-7.2,15-12.7,21.2c-5.4,6.1-11.9,11-19.4,14.6c-7.5,3.7-15.6,5.5-24.5,5.5c-8.9,0-17.2-1.8-24.6-5.5
			c-7.5-3.7-13.9-8.5-19.4-14.6c-5.4-6.1-9.6-13.2-12.7-21.2C108.4-394.6,106.9-402.8,106.9-411.4z M149.6-473.4
			c0.4-1.5,1.4-2.3,3.2-2.3c0.5,0,0.9,0.1,1.1,0.2c0.9,0.3,1.5,0.8,1.9,1.7c0.4,0.9,0.4,1.8,0.2,2.6c-0.6,1.6-1.7,2.5-3.2,2.5
			c-1.5-0.5-2.5-1.2-3-2c-0.5-0.8-0.6-1.7-0.2-2.5V-473.4z"/>
		<path class="st0" d="M252.3-456.7c0-0.9,0.3-1.6,0.8-2.3c0.6-0.6,1.4-0.9,2.4-0.9h24.6c3.4,0,6.6,0.4,9.7,1.2
			c3.1,0.8,5.8,2.1,8,3.9c2.3,1.8,4.1,4,5.5,6.8c1.4,2.8,2.1,6,2.1,9.8c0,3.8-0.7,7.1-2,9.8c-1.3,2.8-3.1,5.1-5.5,7.1
			c-2.3,2-5,3.4-8.1,4.3c-3.1,0.9-6.3,1.4-9.7,1.4h-7.7c-2,0-3-1-3-3v-13.2c0-2,1-3,3-3c0.9,0,1.6,0.3,2.3,0.9
			c0.6,0.6,0.9,1.3,0.9,2.2v10h4.5c5.2,0,9.6-1.3,13.4-4c3.8-2.6,5.7-6.8,5.7-12.5c0-2.9-0.5-5.3-1.6-7.3c-1.1-2-2.5-3.6-4.2-4.8
			c-1.7-1.3-3.7-2.1-6-2.6c-2.3-0.5-4.8-0.8-7.3-0.8h-21.5v106.5c0,0.9-0.3,1.6-0.9,2.3c-0.6,0.6-1.3,0.9-2.2,0.9
			c-1,0-1.8-0.3-2.4-0.9c-0.6-0.6-0.8-1.4-0.8-2.3V-456.7z M272.3-358.5c-2,0-3-1-3-3v-40.6c0-2,1-3,3-3H287c1.6,0,4.1-0.4,7.3-1.3
			c3.2-0.9,6.5-2.6,9.7-5.1c7.7-6.3,11.5-15.6,11.5-28c0-4.4-0.6-8.5-1.9-12.3c-1.3-3.8-3.1-7-5.5-9.7c-2.4-2.7-5.4-4.8-9-6.4
			c-3.6-1.6-7.6-2.4-12.2-2.4h-14.9c-0.9,0-1.6-0.3-2.3-0.9c-0.6-0.6-0.9-1.4-0.9-2.3c0-0.9,0.3-1.6,0.9-2.2
			c0.6-0.6,1.4-0.8,2.3-0.8H287c5.5,0,10.5,0.9,14.8,2.8c4.3,1.9,8,4.5,11,7.8c3,3.3,5.2,7.3,6.7,11.8c1.5,4.5,2.3,9.4,2.3,14.5
			c0,6.2-1.1,12.2-3.2,18c-2.1,5.9-5.7,10.7-10.8,14.6c-3.7,2.9-7.4,4.9-11.2,6.1c-3.8,1.2-7,1.8-9.5,1.8h-11.5v37.4
			c0,0.9-0.3,1.6-0.9,2.2C274-358.8,273.2-358.5,272.3-358.5z M271.4-439.2c-1-0.3-1.7-0.8-2.1-1.6c-0.4-0.8-0.4-1.7-0.2-2.6v-0.2
			c0.6-1.5,1.8-2.3,3.4-2.3c0.4,0,0.7,0.1,0.9,0.2c1,0.3,1.7,0.8,2.1,1.6c0.4,0.8,0.4,1.7,0.2,2.7h-0.2c-0.4,1.5-1.4,2.3-3.2,2.3
			L271.4-439.2z"/>
		<path class="st0" d="M359.6-455v106.9c0,2.1-1,3.2-3,3.2c-2.1,0-3.2-1.1-3.2-3.2v-109.9c0-0.9,0.3-1.6,0.9-2.3
			c0.6-0.6,1.4-0.9,2.4-0.9h37.6c4.5,0,8.7,0.4,12.6,1.2c3.8,0.8,7.1,2.2,9.8,4.2c2.7,2,4.8,4.7,6.3,8c1.5,3.3,2.3,7.5,2.3,12.6
			c0,17.8-9.9,26.6-29.8,26.6h-5.9c-0.9,0-1.6-0.3-2.3-0.9c-0.6-0.6-0.9-1.4-0.9-2.3c0-0.9,0.3-1.6,0.9-2.2c0.6-0.6,1.4-0.8,2.3-0.8
			h5.9c7.3,0,13.1-1.4,17.3-4.3c4.2-2.9,6.3-8.2,6.3-16.1c0-4-0.6-7.3-1.8-9.9c-1.2-2.6-2.9-4.6-5-6c-2.1-1.4-4.8-2.5-7.8-3
			c-3.1-0.6-6.5-0.8-10.1-0.8H359.6z M411.5-358.7c0.5,0.6,0.7,1.4,0.5,2.3c-0.2,0.9-0.6,1.6-1.2,2.1c-0.5,0.4-1.1,0.6-1.9,0.6
			c-1,0-1.8-0.5-2.5-1.5l-36.6-54.4c-1.1-1.8-0.8-3.2,0.9-4.3c0.4-0.4,0.9-0.6,1.7-0.6c0.9,0,1.8,0.4,2.6,1.3L411.5-358.7z
			 M373.2-384c2,0,3,1,3,3v32.9c0,2.1-1,3.2-3,3.2c-0.9,0-1.6-0.3-2.3-0.8c-0.6-0.6-0.9-1.4-0.9-2.4V-381c0-0.9,0.3-1.6,0.9-2.2
			C371.5-383.7,372.3-384,373.2-384z M405.7-394.6l30.6,44.8c1.1,1.8,0.9,3.2-0.8,4.3c-0.5,0.4-1.1,0.6-1.7,0.6
			c-1.1,0-2-0.4-2.6-1.3l-33.6-49.5c-0.8-0.9-0.8-2-0.2-3.2c0.6-1.1,1.6-1.7,2.8-1.7c5.3,0,10.1-0.8,14.5-2.5c4.4-1.6,8.2-4,11.3-7
			c3.1-3,5.6-6.7,7.3-11c1.7-4.3,2.5-9.1,2.5-14.5c0-12.1-3-20.8-9.1-26.2c-6-5.4-14.9-8-26.6-8h-26.8c-2,0-3-1.1-3-3.2c0-2,1-3,3-3
			h26.8c13.3,0,23.7,3.2,31,9.7c7.3,6.5,11,16.7,11,30.7c0,11.6-3.2,20.9-9.7,28C425.9-400.4,417-396.1,405.7-394.6z M415.9-351.5
			c1,0.3,1.7,0.8,2.1,1.6c0.4,0.8,0.4,1.7,0.2,2.7h-0.2c-0.4,1.5-1.4,2.3-3.2,2.3c-1.4-0.4-2.3-1-2.8-1.8c-0.5-0.8-0.6-1.7-0.4-2.5
			v-0.2c0.6-1.5,1.7-2.3,3.2-2.3C415.2-351.7,415.6-351.7,415.9-351.5z"/>
		<path class="st0" d="M462.9-411.4c0-6,0.8-12,2.4-17.9c1.6-5.9,3.8-11.5,6.8-16.7c3-5.2,6.6-10,10.9-14.3
			c4.3-4.3,9.1-7.8,14.5-10.6c0.3-0.3,0.8-0.4,1.5-0.4c1.1,0,2,0.5,2.6,1.5c0.5,0.9,0.6,1.7,0.3,2.5c-0.3,0.8-0.9,1.4-1.6,1.8
			c-4.9,2.6-9.3,5.9-13.2,9.7c-3.9,3.8-7.2,8.1-9.8,12.8c-2.6,4.7-4.7,9.8-6,15.1c-1.4,5.4-2.1,10.8-2.1,16.3
			c0,7.7,1.4,15.1,4.1,22.4c2.7,7.2,6.5,13.6,11.3,19.2c4.8,5.5,10.6,10,17.4,13.3c6.7,3.3,14.1,5,22.2,5c8.1,0,15.4-1.7,22.1-5
			c6.7-3.3,12.4-7.8,17.3-13.4c4.8-5.6,8.6-12,11.3-19.2c2.7-7.2,4.1-14.6,4.1-22.3c0-7.4-1.3-14.6-3.8-21.6
			c-2.5-7-6-13.2-10.6-18.7c-4.5-5.5-10-10-16.3-13.5c-6.4-3.5-13.4-5.5-21.1-6v13.4c0,2-1,3-3,3c-5.8,0-11.1,1.2-15.9,3.6
			c-4.8,2.4-8.8,5.6-12.2,9.6c-3.3,4-5.9,8.6-7.7,13.8c-1.8,5.2-2.7,10.5-2.7,16.1c0,5.4,0.9,10.7,2.7,15.9
			c1.8,5.2,4.4,9.8,7.8,13.8c3.4,4,7.5,7.2,12.2,9.6c4.7,2.4,10,3.6,15.8,3.6c5.8,0,11.1-1.2,15.9-3.6c4.8-2.4,8.9-5.6,12.3-9.5
			c3.4-4,6-8.5,7.8-13.7c1.8-5.2,2.7-10.5,2.7-16.1c0-9.1-2.2-17.2-6.5-24.4c-4.3-7.2-10.2-12.4-17.7-15.7c-0.8-0.3-1.3-0.8-1.6-1.6
			c-0.3-0.8-0.3-1.6,0.1-2.4c0.4-1.3,1.3-1.9,2.8-1.9c0.5,0,0.9,0.1,1.1,0.2c4.3,1.9,8.1,4.4,11.5,7.5c3.4,3.1,6.3,6.6,8.8,10.6
			c2.5,4,4.3,8.3,5.7,12.9c1.3,4.7,2,9.6,2,14.7c0,6.4-1.1,12.6-3.3,18.5c-2.2,5.9-5.3,11.1-9.2,15.7c-3.9,4.5-8.6,8.2-14.2,10.9
			c-5.5,2.7-11.6,4.1-18.3,4.1c-6.7,0-12.7-1.4-18.2-4.2c-5.5-2.8-10.2-6.4-14.2-11c-4-4.5-7-9.8-9.2-15.7c-2.1-5.9-3.2-12-3.2-18.3
			c0-6,1-11.9,2.9-17.7c2-5.7,4.8-10.8,8.4-15.3c3.7-4.5,8-8.2,13.1-11.1c5.1-3,10.8-4.6,17.1-5v-13.6c0-2,1.1-3,3.2-3
			c8.9,0,17.1,1.9,24.6,5.6c7.4,3.7,13.8,8.6,19.3,14.7c5.4,6.1,9.6,13.1,12.7,21.1c3,7.9,4.5,16.2,4.5,24.7
			c0,8.6-1.5,16.8-4.5,24.8c-3,8-7.2,15-12.7,21.2c-5.4,6.1-11.9,11-19.4,14.6c-7.5,3.7-15.6,5.5-24.5,5.5c-8.9,0-17.2-1.8-24.6-5.5
			c-7.5-3.7-13.9-8.5-19.4-14.6c-5.4-6.1-9.6-13.2-12.7-21.2C464.4-394.6,462.9-402.8,462.9-411.4z M505.6-473.4
			c0.4-1.5,1.4-2.3,3.2-2.3c0.5,0,0.9,0.1,1.1,0.2c0.9,0.3,1.5,0.8,1.9,1.7c0.4,0.9,0.4,1.8,0.2,2.6c-0.6,1.6-1.7,2.5-3.2,2.5
			c-1.5-0.5-2.5-1.2-3-2c-0.5-0.8-0.6-1.7-0.2-2.5V-473.4z"/>
		<path class="st0" d="M598.5-344.2c-0.8-0.5-1.2-1.2-1.4-2.1c-0.2-0.9,0-1.6,0.5-2.3l49.1-77.2L617.4-472c-1.1-1.8-0.8-3.2,0.9-4.3
			c0.5-0.3,1-0.4,1.5-0.4c1.1,0,2,0.4,2.6,1.3l30.4,48c0.9,1,0.9,2.1,0,3.2l-50.2,78.9c-0.6,1-1.5,1.5-2.6,1.5
			C599.5-343.8,599-343.9,598.5-344.2z M629.8-421.6L597.7-472c-0.5-0.8-0.6-1.5-0.4-2.4c0.3-0.8,0.7-1.5,1.3-2
			c0.8-0.3,1.3-0.4,1.7-0.4c1.1,0,2,0.4,2.6,1.3l32.1,50.4c0.9,1.8,0.6,3.2-0.9,4.3c-0.5,0.4-1.1,0.6-1.7,0.6
			C631.4-420.1,630.5-420.6,629.8-421.6z M625.3-352.5c-0.5,0-1.1-0.2-1.7-0.6c-0.6-0.5-1.1-1.2-1.3-2c-0.3-0.8-0.1-1.6,0.4-2.4
			l14.9-23.4c0.8-0.9,1.6-1.3,2.6-1.3c0.8,0,1.3,0.1,1.7,0.4c1.8,1.1,2.1,2.6,0.9,4.3L628-354C627.3-353,626.4-352.5,625.3-352.5z
			 M647.6-393.1c-0.6-1-0.6-2.1,0-3.4l50.2-78.9c0.6-0.9,1.5-1.3,2.6-1.3c0.4,0,0.9,0.1,1.7,0.4c0.6,0.5,1.1,1.2,1.3,2
			c0.3,0.8,0.1,1.6-0.4,2.4l-49.3,77.2l23.6,37.2c1.1,1.8,0.8,3.2-0.9,4.3c-0.5,0.3-1,0.4-1.5,0.4c-1.3,0-2.1-0.4-2.6-1.3
			L647.6-393.1z M658.6-438.8c-0.6-0.5-1.1-1.2-1.3-2c-0.3-0.8-0.1-1.6,0.4-2.4l14.9-23.2c0.6-1,1.5-1.5,2.6-1.5
			c0.6,0,1.1,0.2,1.5,0.6c1.8,1.1,2.1,2.6,0.9,4.3l-14.7,23.2c-0.5,0.9-1.4,1.3-2.6,1.3C659.5-438.4,658.9-438.5,658.6-438.8z
			 M702.8-348.5c0.5,0.6,0.7,1.4,0.5,2.3c-0.2,0.9-0.7,1.6-1.4,2.1c-0.5,0.3-1.1,0.4-1.7,0.4c-1,0-1.9-0.5-2.6-1.5l-31.9-50.2
			c-1.1-1.8-0.8-3.2,0.9-4.3c0.6-0.4,1.2-0.6,1.7-0.6c1.1,0,2,0.5,2.6,1.5L702.8-348.5z M677.4-474.9c0.4-1.5,1.4-2.3,3.2-2.3
			c0.5,0,0.9,0.1,1.1,0.2c0.9,0.3,1.5,0.8,1.9,1.6c0.4,0.8,0.4,1.7,0.2,2.7c-0.5,1.5-1.6,2.3-3.2,2.3c-1.4-0.4-2.3-1-2.8-1.8
			c-0.5-0.8-0.6-1.7-0.4-2.5V-474.9z"/>
	</g>
</g>
</svg>
